%TF.GenerationSoftware,KiCad,Pcbnew,(5.1.9)-1*%
%TF.CreationDate,2021-01-08T22:51:15-05:00*%
%TF.ProjectId,rgb,7267622e-6b69-4636-9164-5f7063625858,rev?*%
%TF.SameCoordinates,Original*%
%TF.FileFunction,Legend,Bot*%
%TF.FilePolarity,Positive*%
%FSLAX46Y46*%
G04 Gerber Fmt 4.6, Leading zero omitted, Abs format (unit mm)*
G04 Created by KiCad (PCBNEW (5.1.9)-1) date 2021-01-08 22:51:15*
%MOMM*%
%LPD*%
G01*
G04 APERTURE LIST*
%ADD10C,0.150000*%
%ADD11C,0.300000*%
%ADD12C,0.120000*%
%ADD13C,0.200000*%
G04 APERTURE END LIST*
D10*
X161719047Y-98552380D02*
X161719047Y-99266666D01*
X161766666Y-99409523D01*
X161861904Y-99504761D01*
X162004761Y-99552380D01*
X162100000Y-99552380D01*
X160766666Y-99552380D02*
X161242857Y-99552380D01*
X161242857Y-98552380D01*
X159861904Y-99457142D02*
X159909523Y-99504761D01*
X160052380Y-99552380D01*
X160147619Y-99552380D01*
X160290476Y-99504761D01*
X160385714Y-99409523D01*
X160433333Y-99314285D01*
X160480952Y-99123809D01*
X160480952Y-98980952D01*
X160433333Y-98790476D01*
X160385714Y-98695238D01*
X160290476Y-98600000D01*
X160147619Y-98552380D01*
X160052380Y-98552380D01*
X159909523Y-98600000D01*
X159861904Y-98647619D01*
X159147619Y-98552380D02*
X159147619Y-99266666D01*
X159195238Y-99409523D01*
X159290476Y-99504761D01*
X159433333Y-99552380D01*
X159528571Y-99552380D01*
X158195238Y-99552380D02*
X158671428Y-99552380D01*
X158671428Y-98552380D01*
X157290476Y-99457142D02*
X157338095Y-99504761D01*
X157480952Y-99552380D01*
X157576190Y-99552380D01*
X157719047Y-99504761D01*
X157814285Y-99409523D01*
X157861904Y-99314285D01*
X157909523Y-99123809D01*
X157909523Y-98980952D01*
X157861904Y-98790476D01*
X157814285Y-98695238D01*
X157719047Y-98600000D01*
X157576190Y-98552380D01*
X157480952Y-98552380D01*
X157338095Y-98600000D01*
X157290476Y-98647619D01*
X156576190Y-98552380D02*
X156576190Y-99266666D01*
X156623809Y-99409523D01*
X156719047Y-99504761D01*
X156861904Y-99552380D01*
X156957142Y-99552380D01*
X155623809Y-99552380D02*
X156100000Y-99552380D01*
X156100000Y-98552380D01*
X154719047Y-99457142D02*
X154766666Y-99504761D01*
X154909523Y-99552380D01*
X155004761Y-99552380D01*
X155147619Y-99504761D01*
X155242857Y-99409523D01*
X155290476Y-99314285D01*
X155338095Y-99123809D01*
X155338095Y-98980952D01*
X155290476Y-98790476D01*
X155242857Y-98695238D01*
X155147619Y-98600000D01*
X155004761Y-98552380D01*
X154909523Y-98552380D01*
X154766666Y-98600000D01*
X154719047Y-98647619D01*
X154004761Y-98552380D02*
X154004761Y-99266666D01*
X154052380Y-99409523D01*
X154147619Y-99504761D01*
X154290476Y-99552380D01*
X154385714Y-99552380D01*
X153052380Y-99552380D02*
X153528571Y-99552380D01*
X153528571Y-98552380D01*
X152147619Y-99457142D02*
X152195238Y-99504761D01*
X152338095Y-99552380D01*
X152433333Y-99552380D01*
X152576190Y-99504761D01*
X152671428Y-99409523D01*
X152719047Y-99314285D01*
X152766666Y-99123809D01*
X152766666Y-98980952D01*
X152719047Y-98790476D01*
X152671428Y-98695238D01*
X152576190Y-98600000D01*
X152433333Y-98552380D01*
X152338095Y-98552380D01*
X152195238Y-98600000D01*
X152147619Y-98647619D01*
X130807127Y-99802380D02*
X130723794Y-99135714D01*
X130747604Y-99326190D02*
X130688080Y-99230952D01*
X130634508Y-99183333D01*
X130533318Y-99135714D01*
X130438080Y-99135714D01*
X129801175Y-99754761D02*
X129902366Y-99802380D01*
X130092842Y-99802380D01*
X130182127Y-99754761D01*
X130217842Y-99659523D01*
X130170223Y-99278571D01*
X130110699Y-99183333D01*
X130009508Y-99135714D01*
X129819032Y-99135714D01*
X129729747Y-99183333D01*
X129694032Y-99278571D01*
X129705937Y-99373809D01*
X130194032Y-99469047D01*
X129342842Y-99135714D02*
X129188080Y-99802380D01*
X128866651Y-99135714D01*
X128253556Y-98802380D02*
X128158318Y-98802380D01*
X128069032Y-98850000D01*
X128027366Y-98897619D01*
X127991651Y-98992857D01*
X127967842Y-99183333D01*
X127997604Y-99421428D01*
X128069032Y-99611904D01*
X128128556Y-99707142D01*
X128182127Y-99754761D01*
X128283318Y-99802380D01*
X128378556Y-99802380D01*
X128467842Y-99754761D01*
X128509508Y-99707142D01*
X128545223Y-99611904D01*
X128569032Y-99421428D01*
X128539270Y-99183333D01*
X128467842Y-98992857D01*
X128408318Y-98897619D01*
X128354747Y-98850000D01*
X128253556Y-98802380D01*
X174811732Y-80624303D02*
X174811732Y-79624303D01*
X174573637Y-79624303D01*
X174430780Y-79671923D01*
X174335542Y-79767161D01*
X174287923Y-79862399D01*
X174240304Y-80052875D01*
X174240304Y-80195732D01*
X174287923Y-80386208D01*
X174335542Y-80481446D01*
X174430780Y-80576684D01*
X174573637Y-80624303D01*
X174811732Y-80624303D01*
X173430780Y-80576684D02*
X173526018Y-80624303D01*
X173716494Y-80624303D01*
X173811732Y-80576684D01*
X173859351Y-80481446D01*
X173859351Y-80100494D01*
X173811732Y-80005256D01*
X173716494Y-79957637D01*
X173526018Y-79957637D01*
X173430780Y-80005256D01*
X173383161Y-80100494D01*
X173383161Y-80195732D01*
X173859351Y-80290970D01*
X173002208Y-80576684D02*
X172906970Y-80624303D01*
X172716494Y-80624303D01*
X172621256Y-80576684D01*
X172573637Y-80481446D01*
X172573637Y-80433827D01*
X172621256Y-80338589D01*
X172716494Y-80290970D01*
X172859351Y-80290970D01*
X172954589Y-80243351D01*
X173002208Y-80148113D01*
X173002208Y-80100494D01*
X172954589Y-80005256D01*
X172859351Y-79957637D01*
X172716494Y-79957637D01*
X172621256Y-80005256D01*
X172145066Y-80624303D02*
X172145066Y-79957637D01*
X172145066Y-79624303D02*
X172192685Y-79671923D01*
X172145066Y-79719542D01*
X172097447Y-79671923D01*
X172145066Y-79624303D01*
X172145066Y-79719542D01*
X171240304Y-79957637D02*
X171240304Y-80767161D01*
X171287923Y-80862399D01*
X171335542Y-80910018D01*
X171430780Y-80957637D01*
X171573637Y-80957637D01*
X171668875Y-80910018D01*
X171240304Y-80576684D02*
X171335542Y-80624303D01*
X171526018Y-80624303D01*
X171621256Y-80576684D01*
X171668875Y-80529065D01*
X171716494Y-80433827D01*
X171716494Y-80148113D01*
X171668875Y-80052875D01*
X171621256Y-80005256D01*
X171526018Y-79957637D01*
X171335542Y-79957637D01*
X171240304Y-80005256D01*
X170764113Y-79957637D02*
X170764113Y-80624303D01*
X170764113Y-80052875D02*
X170716494Y-80005256D01*
X170621256Y-79957637D01*
X170478399Y-79957637D01*
X170383161Y-80005256D01*
X170335542Y-80100494D01*
X170335542Y-80624303D01*
X169478399Y-80576684D02*
X169573637Y-80624303D01*
X169764113Y-80624303D01*
X169859351Y-80576684D01*
X169906970Y-80481446D01*
X169906970Y-80100494D01*
X169859351Y-80005256D01*
X169764113Y-79957637D01*
X169573637Y-79957637D01*
X169478399Y-80005256D01*
X169430780Y-80100494D01*
X169430780Y-80195732D01*
X169906970Y-80290970D01*
X168573637Y-80624303D02*
X168573637Y-79624303D01*
X168573637Y-80576684D02*
X168668875Y-80624303D01*
X168859351Y-80624303D01*
X168954589Y-80576684D01*
X169002208Y-80529065D01*
X169049828Y-80433827D01*
X169049828Y-80148113D01*
X169002208Y-80052875D01*
X168954589Y-80005256D01*
X168859351Y-79957637D01*
X168668875Y-79957637D01*
X168573637Y-80005256D01*
X167335542Y-80624303D02*
X167335542Y-79624303D01*
X167335542Y-80005256D02*
X167240304Y-79957637D01*
X167049828Y-79957637D01*
X166954589Y-80005256D01*
X166906970Y-80052875D01*
X166859351Y-80148113D01*
X166859351Y-80433827D01*
X166906970Y-80529065D01*
X166954589Y-80576684D01*
X167049828Y-80624303D01*
X167240304Y-80624303D01*
X167335542Y-80576684D01*
X166526018Y-79957637D02*
X166287923Y-80624303D01*
X166049828Y-79957637D02*
X166287923Y-80624303D01*
X166383161Y-80862399D01*
X166430780Y-80910018D01*
X166526018Y-80957637D01*
X165668875Y-80529065D02*
X165621256Y-80576684D01*
X165668875Y-80624303D01*
X165716494Y-80576684D01*
X165668875Y-80529065D01*
X165668875Y-80624303D01*
X165668875Y-80005256D02*
X165621256Y-80052875D01*
X165668875Y-80100494D01*
X165716494Y-80052875D01*
X165668875Y-80005256D01*
X165668875Y-80100494D01*
X174049828Y-81893351D02*
X173287923Y-81893351D01*
X171764113Y-81274303D02*
X171764113Y-81988589D01*
X171811732Y-82131446D01*
X171906970Y-82226684D01*
X172049828Y-82274303D01*
X172145066Y-82274303D01*
X170906970Y-82226684D02*
X171002208Y-82274303D01*
X171192685Y-82274303D01*
X171287923Y-82226684D01*
X171335542Y-82131446D01*
X171335542Y-81750494D01*
X171287923Y-81655256D01*
X171192685Y-81607637D01*
X171002208Y-81607637D01*
X170906970Y-81655256D01*
X170859351Y-81750494D01*
X170859351Y-81845732D01*
X171335542Y-81940970D01*
X171002208Y-81226684D02*
X171145066Y-81369542D01*
X170430780Y-82274303D02*
X170430780Y-81607637D01*
X170430780Y-81798113D02*
X170383161Y-81702875D01*
X170335542Y-81655256D01*
X170240304Y-81607637D01*
X170145066Y-81607637D01*
X169430780Y-82226684D02*
X169526018Y-82274303D01*
X169716494Y-82274303D01*
X169811732Y-82226684D01*
X169859351Y-82131446D01*
X169859351Y-81750494D01*
X169811732Y-81655256D01*
X169716494Y-81607637D01*
X169526018Y-81607637D01*
X169430780Y-81655256D01*
X169383161Y-81750494D01*
X169383161Y-81845732D01*
X169859351Y-81940970D01*
X169526018Y-81226684D02*
X169668875Y-81369542D01*
X168954589Y-82274303D02*
X168954589Y-81607637D01*
X168954589Y-81702875D02*
X168906970Y-81655256D01*
X168811732Y-81607637D01*
X168668875Y-81607637D01*
X168573637Y-81655256D01*
X168526018Y-81750494D01*
X168526018Y-82274303D01*
X168526018Y-81750494D02*
X168478399Y-81655256D01*
X168383161Y-81607637D01*
X168240304Y-81607637D01*
X168145066Y-81655256D01*
X168097447Y-81750494D01*
X168097447Y-82274303D01*
X167621256Y-82274303D02*
X167621256Y-81607637D01*
X167621256Y-81274303D02*
X167668875Y-81321923D01*
X167621256Y-81369542D01*
X167573637Y-81321923D01*
X167621256Y-81274303D01*
X167621256Y-81369542D01*
X166764113Y-82226684D02*
X166859351Y-82274303D01*
X167049828Y-82274303D01*
X167145066Y-82226684D01*
X167192685Y-82131446D01*
X167192685Y-81750494D01*
X167145066Y-81655256D01*
X167049828Y-81607637D01*
X166859351Y-81607637D01*
X166764113Y-81655256D01*
X166716494Y-81750494D01*
X166716494Y-81845732D01*
X167192685Y-81940970D01*
X165049828Y-82274303D02*
X165526018Y-82274303D01*
X165526018Y-81274303D01*
X164287923Y-82274303D02*
X164287923Y-81750494D01*
X164335542Y-81655256D01*
X164430780Y-81607637D01*
X164621256Y-81607637D01*
X164716494Y-81655256D01*
X164287923Y-82226684D02*
X164383161Y-82274303D01*
X164621256Y-82274303D01*
X164716494Y-82226684D01*
X164764113Y-82131446D01*
X164764113Y-82036208D01*
X164716494Y-81940970D01*
X164621256Y-81893351D01*
X164383161Y-81893351D01*
X164287923Y-81845732D01*
X163906970Y-81607637D02*
X163668875Y-82274303D01*
X163430780Y-81607637D01*
X162906970Y-82274303D02*
X163002208Y-82226684D01*
X163049828Y-82179065D01*
X163097447Y-82083827D01*
X163097447Y-81798113D01*
X163049828Y-81702875D01*
X163002208Y-81655256D01*
X162906970Y-81607637D01*
X162764113Y-81607637D01*
X162668875Y-81655256D01*
X162621256Y-81702875D01*
X162573637Y-81798113D01*
X162573637Y-82083827D01*
X162621256Y-82179065D01*
X162668875Y-82226684D01*
X162764113Y-82274303D01*
X162906970Y-82274303D01*
X162145066Y-82274303D02*
X162145066Y-81607637D01*
X162145066Y-81274303D02*
X162192685Y-81321923D01*
X162145066Y-81369542D01*
X162097447Y-81321923D01*
X162145066Y-81274303D01*
X162145066Y-81369542D01*
X161287923Y-82226684D02*
X161383161Y-82274303D01*
X161573637Y-82274303D01*
X161668875Y-82226684D01*
X161716494Y-82131446D01*
X161716494Y-81750494D01*
X161668875Y-81655256D01*
X161573637Y-81607637D01*
X161383161Y-81607637D01*
X161287923Y-81655256D01*
X161240304Y-81750494D01*
X161240304Y-81845732D01*
X161716494Y-81940970D01*
X174049828Y-83543351D02*
X173287923Y-83543351D01*
X172097447Y-83638589D02*
X171621256Y-83638589D01*
X172192685Y-83924303D02*
X171859351Y-82924303D01*
X171526018Y-83924303D01*
X171049828Y-83924303D02*
X171145066Y-83876684D01*
X171192685Y-83781446D01*
X171192685Y-82924303D01*
X170287923Y-83876684D02*
X170383161Y-83924303D01*
X170573637Y-83924303D01*
X170668875Y-83876684D01*
X170716494Y-83781446D01*
X170716494Y-83400494D01*
X170668875Y-83305256D01*
X170573637Y-83257637D01*
X170383161Y-83257637D01*
X170287923Y-83305256D01*
X170240304Y-83400494D01*
X170240304Y-83495732D01*
X170716494Y-83590970D01*
X169906970Y-83924303D02*
X169383161Y-83257637D01*
X169906970Y-83257637D02*
X169383161Y-83924303D01*
X168573637Y-83924303D02*
X168573637Y-83400494D01*
X168621256Y-83305256D01*
X168716494Y-83257637D01*
X168906970Y-83257637D01*
X169002208Y-83305256D01*
X168573637Y-83876684D02*
X168668875Y-83924303D01*
X168906970Y-83924303D01*
X169002208Y-83876684D01*
X169049828Y-83781446D01*
X169049828Y-83686208D01*
X169002208Y-83590970D01*
X168906970Y-83543351D01*
X168668875Y-83543351D01*
X168573637Y-83495732D01*
X168097447Y-83257637D02*
X168097447Y-83924303D01*
X168097447Y-83352875D02*
X168049828Y-83305256D01*
X167954589Y-83257637D01*
X167811732Y-83257637D01*
X167716494Y-83305256D01*
X167668875Y-83400494D01*
X167668875Y-83924303D01*
X166764113Y-83924303D02*
X166764113Y-82924303D01*
X166764113Y-83876684D02*
X166859351Y-83924303D01*
X167049828Y-83924303D01*
X167145066Y-83876684D01*
X167192685Y-83829065D01*
X167240304Y-83733827D01*
X167240304Y-83448113D01*
X167192685Y-83352875D01*
X167145066Y-83305256D01*
X167049828Y-83257637D01*
X166859351Y-83257637D01*
X166764113Y-83305256D01*
X166287923Y-83924303D02*
X166287923Y-83257637D01*
X166287923Y-83448113D02*
X166240304Y-83352875D01*
X166192685Y-83305256D01*
X166097447Y-83257637D01*
X166002208Y-83257637D01*
X165287923Y-83876684D02*
X165383161Y-83924303D01*
X165573637Y-83924303D01*
X165668875Y-83876684D01*
X165716494Y-83781446D01*
X165716494Y-83400494D01*
X165668875Y-83305256D01*
X165573637Y-83257637D01*
X165383161Y-83257637D01*
X165287923Y-83305256D01*
X165240304Y-83400494D01*
X165240304Y-83495732D01*
X165716494Y-83590970D01*
X163526018Y-82971923D02*
X163621256Y-82924303D01*
X163764113Y-82924303D01*
X163906970Y-82971923D01*
X164002208Y-83067161D01*
X164049828Y-83162399D01*
X164097447Y-83352875D01*
X164097447Y-83495732D01*
X164049828Y-83686208D01*
X164002208Y-83781446D01*
X163906970Y-83876684D01*
X163764113Y-83924303D01*
X163668875Y-83924303D01*
X163526018Y-83876684D01*
X163478399Y-83829065D01*
X163478399Y-83495732D01*
X163668875Y-83495732D01*
X162621256Y-83924303D02*
X162621256Y-83400494D01*
X162668875Y-83305256D01*
X162764113Y-83257637D01*
X162954589Y-83257637D01*
X163049828Y-83305256D01*
X162621256Y-83876684D02*
X162716494Y-83924303D01*
X162954589Y-83924303D01*
X163049828Y-83876684D01*
X163097447Y-83781446D01*
X163097447Y-83686208D01*
X163049828Y-83590970D01*
X162954589Y-83543351D01*
X162716494Y-83543351D01*
X162621256Y-83495732D01*
X161716494Y-83257637D02*
X161716494Y-83924303D01*
X162145066Y-83257637D02*
X162145066Y-83781446D01*
X162097447Y-83876684D01*
X162002208Y-83924303D01*
X161859351Y-83924303D01*
X161764113Y-83876684D01*
X161716494Y-83829065D01*
X161383161Y-83257637D02*
X161002208Y-83257637D01*
X161240304Y-82924303D02*
X161240304Y-83781446D01*
X161192685Y-83876684D01*
X161097447Y-83924303D01*
X161002208Y-83924303D01*
X160668875Y-83924303D02*
X160668875Y-82924303D01*
X160240304Y-83924303D02*
X160240304Y-83400494D01*
X160287923Y-83305256D01*
X160383161Y-83257637D01*
X160526018Y-83257637D01*
X160621256Y-83305256D01*
X160668875Y-83352875D01*
X159764113Y-83924303D02*
X159764113Y-83257637D01*
X159764113Y-82924303D02*
X159811732Y-82971923D01*
X159764113Y-83019542D01*
X159716494Y-82971923D01*
X159764113Y-82924303D01*
X159764113Y-83019542D01*
X158906970Y-83876684D02*
X159002208Y-83924303D01*
X159192685Y-83924303D01*
X159287923Y-83876684D01*
X159335542Y-83781446D01*
X159335542Y-83400494D01*
X159287923Y-83305256D01*
X159192685Y-83257637D01*
X159002208Y-83257637D01*
X158906970Y-83305256D01*
X158859351Y-83400494D01*
X158859351Y-83495732D01*
X159335542Y-83590970D01*
X158430780Y-83924303D02*
X158430780Y-83257637D01*
X158430780Y-83448113D02*
X158383161Y-83352875D01*
X158335542Y-83305256D01*
X158240304Y-83257637D01*
X158145066Y-83257637D01*
X189507032Y-98845714D02*
X189608223Y-99655238D01*
X189667747Y-99750476D01*
X189721318Y-99798095D01*
X189822508Y-99845714D01*
X189965366Y-99845714D01*
X190054651Y-99798095D01*
X189584413Y-99464761D02*
X189685604Y-99512380D01*
X189876080Y-99512380D01*
X189965366Y-99464761D01*
X190007032Y-99417142D01*
X190042747Y-99321904D01*
X190007032Y-99036190D01*
X189947508Y-98940952D01*
X189893937Y-98893333D01*
X189792747Y-98845714D01*
X189602270Y-98845714D01*
X189512985Y-98893333D01*
X189114175Y-99512380D02*
X189030842Y-98845714D01*
X188989175Y-98512380D02*
X189042747Y-98560000D01*
X189001080Y-98607619D01*
X188947508Y-98560000D01*
X188989175Y-98512380D01*
X189001080Y-98607619D01*
X188697508Y-98845714D02*
X188316556Y-98845714D01*
X188512985Y-98512380D02*
X188620127Y-99369523D01*
X188584413Y-99464761D01*
X188495127Y-99512380D01*
X188399889Y-99512380D01*
X188066556Y-99512380D02*
X187941556Y-98512380D01*
X187637985Y-99512380D02*
X187572508Y-98988571D01*
X187608223Y-98893333D01*
X187697508Y-98845714D01*
X187840366Y-98845714D01*
X187941556Y-98893333D01*
X187995127Y-98940952D01*
X186649889Y-98845714D02*
X186733223Y-99512380D01*
X187078461Y-98845714D02*
X187143937Y-99369523D01*
X187108223Y-99464761D01*
X187018937Y-99512380D01*
X186876080Y-99512380D01*
X186774889Y-99464761D01*
X186721318Y-99417142D01*
X186257032Y-99512380D02*
X186132032Y-98512380D01*
X186179651Y-98893333D02*
X186078461Y-98845714D01*
X185887985Y-98845714D01*
X185798699Y-98893333D01*
X185757032Y-98940952D01*
X185721318Y-99036190D01*
X185757032Y-99321904D01*
X185816556Y-99417142D01*
X185870127Y-99464761D01*
X185971318Y-99512380D01*
X186161794Y-99512380D01*
X186251080Y-99464761D01*
X185340366Y-99417142D02*
X185298699Y-99464761D01*
X185352270Y-99512380D01*
X185393937Y-99464761D01*
X185340366Y-99417142D01*
X185352270Y-99512380D01*
X184441556Y-99464761D02*
X184542747Y-99512380D01*
X184733223Y-99512380D01*
X184822508Y-99464761D01*
X184864175Y-99417142D01*
X184899889Y-99321904D01*
X184864175Y-99036190D01*
X184804651Y-98940952D01*
X184751080Y-98893333D01*
X184649889Y-98845714D01*
X184459413Y-98845714D01*
X184370127Y-98893333D01*
X183876080Y-99512380D02*
X183965366Y-99464761D01*
X184007032Y-99417142D01*
X184042747Y-99321904D01*
X184007032Y-99036190D01*
X183947508Y-98940952D01*
X183893937Y-98893333D01*
X183792747Y-98845714D01*
X183649889Y-98845714D01*
X183560604Y-98893333D01*
X183518937Y-98940952D01*
X183483223Y-99036190D01*
X183518937Y-99321904D01*
X183578461Y-99417142D01*
X183632032Y-99464761D01*
X183733223Y-99512380D01*
X183876080Y-99512380D01*
X183114175Y-99512380D02*
X183030842Y-98845714D01*
X183042747Y-98940952D02*
X182989175Y-98893333D01*
X182887985Y-98845714D01*
X182745127Y-98845714D01*
X182655842Y-98893333D01*
X182620127Y-98988571D01*
X182685604Y-99512380D01*
X182620127Y-98988571D02*
X182560604Y-98893333D01*
X182459413Y-98845714D01*
X182316556Y-98845714D01*
X182227270Y-98893333D01*
X182191556Y-98988571D01*
X182257032Y-99512380D01*
X180935604Y-98464761D02*
X181953461Y-99750476D01*
X180745127Y-99226666D02*
X180268937Y-99226666D01*
X180876080Y-99512380D02*
X180417747Y-98512380D01*
X180209413Y-99512380D01*
X179733223Y-99512380D02*
X179822508Y-99464761D01*
X179858223Y-99369523D01*
X179751080Y-98512380D01*
X178965366Y-99464761D02*
X179066556Y-99512380D01*
X179257032Y-99512380D01*
X179346318Y-99464761D01*
X179382032Y-99369523D01*
X179334413Y-98988571D01*
X179274889Y-98893333D01*
X179173699Y-98845714D01*
X178983223Y-98845714D01*
X178893937Y-98893333D01*
X178858223Y-98988571D01*
X178870127Y-99083809D01*
X179358223Y-99179047D01*
X178590366Y-99512380D02*
X177983223Y-98845714D01*
X178507032Y-98845714D02*
X178066556Y-99512380D01*
X177257032Y-99512380D02*
X177191556Y-98988571D01*
X177227270Y-98893333D01*
X177316556Y-98845714D01*
X177507032Y-98845714D01*
X177608223Y-98893333D01*
X177251080Y-99464761D02*
X177352270Y-99512380D01*
X177590366Y-99512380D01*
X177679651Y-99464761D01*
X177715366Y-99369523D01*
X177703461Y-99274285D01*
X177643937Y-99179047D01*
X177542747Y-99131428D01*
X177304651Y-99131428D01*
X177203461Y-99083809D01*
X176697508Y-98845714D02*
X176780842Y-99512380D01*
X176709413Y-98940952D02*
X176655842Y-98893333D01*
X176554651Y-98845714D01*
X176411794Y-98845714D01*
X176322508Y-98893333D01*
X176286794Y-98988571D01*
X176352270Y-99512380D01*
X175447508Y-99512380D02*
X175322508Y-98512380D01*
X175441556Y-99464761D02*
X175542747Y-99512380D01*
X175733223Y-99512380D01*
X175822508Y-99464761D01*
X175864175Y-99417142D01*
X175899889Y-99321904D01*
X175864175Y-99036190D01*
X175804651Y-98940952D01*
X175751080Y-98893333D01*
X175649889Y-98845714D01*
X175459413Y-98845714D01*
X175370127Y-98893333D01*
X174971318Y-99512380D02*
X174887985Y-98845714D01*
X174911794Y-99036190D02*
X174852270Y-98940952D01*
X174798699Y-98893333D01*
X174697508Y-98845714D01*
X174602270Y-98845714D01*
X173965366Y-99464761D02*
X174066556Y-99512380D01*
X174257032Y-99512380D01*
X174346318Y-99464761D01*
X174382032Y-99369523D01*
X174334413Y-98988571D01*
X174274889Y-98893333D01*
X174173699Y-98845714D01*
X173983223Y-98845714D01*
X173893937Y-98893333D01*
X173858223Y-98988571D01*
X173870127Y-99083809D01*
X174358223Y-99179047D01*
X172852270Y-98560000D02*
X172941556Y-98512380D01*
X173084413Y-98512380D01*
X173233223Y-98560000D01*
X173340366Y-98655238D01*
X173399889Y-98750476D01*
X173471318Y-98940952D01*
X173489175Y-99083809D01*
X173465366Y-99274285D01*
X173429651Y-99369523D01*
X173346318Y-99464761D01*
X173209413Y-99512380D01*
X173114175Y-99512380D01*
X172965366Y-99464761D01*
X172911794Y-99417142D01*
X172870127Y-99083809D01*
X173060604Y-99083809D01*
X172066556Y-99512380D02*
X172001080Y-98988571D01*
X172036794Y-98893333D01*
X172126080Y-98845714D01*
X172316556Y-98845714D01*
X172417747Y-98893333D01*
X172060604Y-99464761D02*
X172161794Y-99512380D01*
X172399889Y-99512380D01*
X172489175Y-99464761D01*
X172524889Y-99369523D01*
X172512985Y-99274285D01*
X172453461Y-99179047D01*
X172352270Y-99131428D01*
X172114175Y-99131428D01*
X172012985Y-99083809D01*
X171078461Y-98845714D02*
X171161794Y-99512380D01*
X171507032Y-98845714D02*
X171572508Y-99369523D01*
X171536794Y-99464761D01*
X171447508Y-99512380D01*
X171304651Y-99512380D01*
X171203461Y-99464761D01*
X171149889Y-99417142D01*
X170745127Y-98845714D02*
X170364175Y-98845714D01*
X170560604Y-98512380D02*
X170667747Y-99369523D01*
X170632032Y-99464761D01*
X170542747Y-99512380D01*
X170447508Y-99512380D01*
X170114175Y-99512380D02*
X169989175Y-98512380D01*
X169685604Y-99512380D02*
X169620127Y-98988571D01*
X169655842Y-98893333D01*
X169745127Y-98845714D01*
X169887985Y-98845714D01*
X169989175Y-98893333D01*
X170042747Y-98940952D01*
X169209413Y-99512380D02*
X169126080Y-98845714D01*
X169084413Y-98512380D02*
X169137985Y-98560000D01*
X169096318Y-98607619D01*
X169042747Y-98560000D01*
X169084413Y-98512380D01*
X169096318Y-98607619D01*
X168346318Y-99464761D02*
X168447508Y-99512380D01*
X168637985Y-99512380D01*
X168727270Y-99464761D01*
X168762985Y-99369523D01*
X168715366Y-98988571D01*
X168655842Y-98893333D01*
X168554651Y-98845714D01*
X168364175Y-98845714D01*
X168274889Y-98893333D01*
X168239175Y-98988571D01*
X168251080Y-99083809D01*
X168739175Y-99179047D01*
X167876080Y-99512380D02*
X167792747Y-98845714D01*
X167816556Y-99036190D02*
X167757032Y-98940952D01*
X167703461Y-98893333D01*
X167602270Y-98845714D01*
X167507032Y-98845714D01*
X166411794Y-98464761D02*
X167429651Y-99750476D01*
X166209413Y-99512380D02*
X166126080Y-98845714D01*
X166149889Y-99036190D02*
X166090366Y-98940952D01*
X166036794Y-98893333D01*
X165935604Y-98845714D01*
X165840366Y-98845714D01*
X165078461Y-98845714D02*
X165179651Y-99655238D01*
X165239175Y-99750476D01*
X165292747Y-99798095D01*
X165393937Y-99845714D01*
X165536794Y-99845714D01*
X165626080Y-99798095D01*
X165155842Y-99464761D02*
X165257032Y-99512380D01*
X165447508Y-99512380D01*
X165536794Y-99464761D01*
X165578461Y-99417142D01*
X165614175Y-99321904D01*
X165578461Y-99036190D01*
X165518937Y-98940952D01*
X165465366Y-98893333D01*
X165364175Y-98845714D01*
X165173699Y-98845714D01*
X165084413Y-98893333D01*
X164685604Y-99512380D02*
X164560604Y-98512380D01*
X164608223Y-98893333D02*
X164507032Y-98845714D01*
X164316556Y-98845714D01*
X164227270Y-98893333D01*
X164185604Y-98940952D01*
X164149889Y-99036190D01*
X164185604Y-99321904D01*
X164245127Y-99417142D01*
X164298699Y-99464761D01*
X164399889Y-99512380D01*
X164590366Y-99512380D01*
X164679651Y-99464761D01*
D11*
X173516375Y-78976684D02*
X174183042Y-78024303D01*
X174659232Y-78976684D02*
X174659232Y-76976684D01*
X173897328Y-76976684D01*
X173706851Y-77071923D01*
X173611613Y-77167161D01*
X173516375Y-77357637D01*
X173516375Y-77643351D01*
X173611613Y-77833827D01*
X173706851Y-77929065D01*
X173897328Y-78024303D01*
X174659232Y-78024303D01*
X171611613Y-77071923D02*
X171802089Y-76976684D01*
X172087804Y-76976684D01*
X172373518Y-77071923D01*
X172563994Y-77262399D01*
X172659232Y-77452875D01*
X172754470Y-77833827D01*
X172754470Y-78119542D01*
X172659232Y-78500494D01*
X172563994Y-78690970D01*
X172373518Y-78881446D01*
X172087804Y-78976684D01*
X171897328Y-78976684D01*
X171611613Y-78881446D01*
X171516375Y-78786208D01*
X171516375Y-78119542D01*
X171897328Y-78119542D01*
X169992566Y-77929065D02*
X169706851Y-78024303D01*
X169611613Y-78119542D01*
X169516375Y-78310018D01*
X169516375Y-78595732D01*
X169611613Y-78786208D01*
X169706851Y-78881446D01*
X169897328Y-78976684D01*
X170659232Y-78976684D01*
X170659232Y-76976684D01*
X169992566Y-76976684D01*
X169802089Y-77071923D01*
X169706851Y-77167161D01*
X169611613Y-77357637D01*
X169611613Y-77548113D01*
X169706851Y-77738589D01*
X169802089Y-77833827D01*
X169992566Y-77929065D01*
X170659232Y-77929065D01*
X168849708Y-76976684D02*
X168373518Y-78976684D01*
X167992566Y-77548113D01*
X167611613Y-78976684D01*
X167135423Y-76976684D01*
X164849708Y-78976684D02*
X164849708Y-76976684D01*
X164373518Y-76976684D01*
X164087804Y-77071923D01*
X163897328Y-77262399D01*
X163802089Y-77452875D01*
X163706851Y-77833827D01*
X163706851Y-78119542D01*
X163802089Y-78500494D01*
X163897328Y-78690970D01*
X164087804Y-78881446D01*
X164373518Y-78976684D01*
X164849708Y-78976684D01*
X162849708Y-78976684D02*
X162849708Y-77643351D01*
X162849708Y-78024303D02*
X162754470Y-77833827D01*
X162659232Y-77738589D01*
X162468756Y-77643351D01*
X162278280Y-77643351D01*
X161611613Y-78976684D02*
X161611613Y-77643351D01*
X161611613Y-76976684D02*
X161706851Y-77071923D01*
X161611613Y-77167161D01*
X161516375Y-77071923D01*
X161611613Y-76976684D01*
X161611613Y-77167161D01*
X160849708Y-77643351D02*
X160373518Y-78976684D01*
X159897328Y-77643351D01*
X158373518Y-78881446D02*
X158563994Y-78976684D01*
X158944947Y-78976684D01*
X159135423Y-78881446D01*
X159230661Y-78690970D01*
X159230661Y-77929065D01*
X159135423Y-77738589D01*
X158944947Y-77643351D01*
X158563994Y-77643351D01*
X158373518Y-77738589D01*
X158278280Y-77929065D01*
X158278280Y-78119542D01*
X159230661Y-78310018D01*
X157421137Y-78976684D02*
X157421137Y-77643351D01*
X157421137Y-78024303D02*
X157325899Y-77833827D01*
X157230661Y-77738589D01*
X157040185Y-77643351D01*
X156849708Y-77643351D01*
D12*
%TO.C,C1*%
X186600000Y-84492082D02*
X185350000Y-84492082D01*
X185975000Y-85117082D02*
X185975000Y-83867082D01*
X182717000Y-71939000D02*
X182083000Y-71939000D01*
X183157000Y-71979000D02*
X181643000Y-71979000D01*
X183428000Y-72019000D02*
X181372000Y-72019000D01*
X183641000Y-72059000D02*
X181159000Y-72059000D01*
X183822000Y-72099000D02*
X180978000Y-72099000D01*
X183983000Y-72139000D02*
X180817000Y-72139000D01*
X184128000Y-72179000D02*
X180672000Y-72179000D01*
X184261000Y-72219000D02*
X180539000Y-72219000D01*
X184384000Y-72259000D02*
X180416000Y-72259000D01*
X184500000Y-72299000D02*
X180300000Y-72299000D01*
X184609000Y-72339000D02*
X180191000Y-72339000D01*
X184712000Y-72379000D02*
X180088000Y-72379000D01*
X184810000Y-72419000D02*
X179990000Y-72419000D01*
X184904000Y-72459000D02*
X179896000Y-72459000D01*
X184994000Y-72499000D02*
X179806000Y-72499000D01*
X185081000Y-72539000D02*
X179719000Y-72539000D01*
X185164000Y-72579000D02*
X179636000Y-72579000D01*
X185244000Y-72619000D02*
X179556000Y-72619000D01*
X185321000Y-72659000D02*
X179479000Y-72659000D01*
X185396000Y-72699000D02*
X179404000Y-72699000D01*
X185469000Y-72739000D02*
X179331000Y-72739000D01*
X185540000Y-72779000D02*
X179260000Y-72779000D01*
X185608000Y-72819000D02*
X179192000Y-72819000D01*
X185675000Y-72859000D02*
X179125000Y-72859000D01*
X185739000Y-72899000D02*
X179061000Y-72899000D01*
X185802000Y-72939000D02*
X178998000Y-72939000D01*
X185864000Y-72979000D02*
X178936000Y-72979000D01*
X185924000Y-73019000D02*
X178876000Y-73019000D01*
X185983000Y-73059000D02*
X178817000Y-73059000D01*
X186040000Y-73099000D02*
X178760000Y-73099000D01*
X186096000Y-73139000D02*
X178704000Y-73139000D01*
X186150000Y-73179000D02*
X178650000Y-73179000D01*
X186204000Y-73219000D02*
X178596000Y-73219000D01*
X186256000Y-73259000D02*
X178544000Y-73259000D01*
X186307000Y-73299000D02*
X178493000Y-73299000D01*
X186357000Y-73339000D02*
X178443000Y-73339000D01*
X186407000Y-73379000D02*
X178393000Y-73379000D01*
X186455000Y-73419000D02*
X178345000Y-73419000D01*
X186502000Y-73459000D02*
X178298000Y-73459000D01*
X186548000Y-73499000D02*
X178252000Y-73499000D01*
X186594000Y-73539000D02*
X178206000Y-73539000D01*
X186638000Y-73579000D02*
X178162000Y-73579000D01*
X186682000Y-73619000D02*
X178118000Y-73619000D01*
X186725000Y-73659000D02*
X178075000Y-73659000D01*
X186767000Y-73699000D02*
X178033000Y-73699000D01*
X186808000Y-73739000D02*
X177992000Y-73739000D01*
X186849000Y-73779000D02*
X177951000Y-73779000D01*
X186889000Y-73819000D02*
X177911000Y-73819000D01*
X186928000Y-73859000D02*
X177872000Y-73859000D01*
X186967000Y-73899000D02*
X177833000Y-73899000D01*
X187005000Y-73939000D02*
X177795000Y-73939000D01*
X187042000Y-73979000D02*
X177758000Y-73979000D01*
X187078000Y-74019000D02*
X177722000Y-74019000D01*
X187114000Y-74059000D02*
X177686000Y-74059000D01*
X187150000Y-74099000D02*
X177650000Y-74099000D01*
X187185000Y-74139000D02*
X177615000Y-74139000D01*
X187219000Y-74179000D02*
X177581000Y-74179000D01*
X187252000Y-74219000D02*
X177548000Y-74219000D01*
X187285000Y-74259000D02*
X177515000Y-74259000D01*
X187318000Y-74299000D02*
X177482000Y-74299000D01*
X187350000Y-74339000D02*
X177450000Y-74339000D01*
X180960000Y-74379000D02*
X177418000Y-74379000D01*
X187382000Y-74379000D02*
X183840000Y-74379000D01*
X180960000Y-74419000D02*
X177388000Y-74419000D01*
X187412000Y-74419000D02*
X183840000Y-74419000D01*
X180960000Y-74459000D02*
X177357000Y-74459000D01*
X187443000Y-74459000D02*
X183840000Y-74459000D01*
X180960000Y-74499000D02*
X177327000Y-74499000D01*
X187473000Y-74499000D02*
X183840000Y-74499000D01*
X180960000Y-74539000D02*
X177298000Y-74539000D01*
X187502000Y-74539000D02*
X183840000Y-74539000D01*
X180960000Y-74579000D02*
X177269000Y-74579000D01*
X187531000Y-74579000D02*
X183840000Y-74579000D01*
X180960000Y-74619000D02*
X177240000Y-74619000D01*
X187560000Y-74619000D02*
X183840000Y-74619000D01*
X180960000Y-74659000D02*
X177212000Y-74659000D01*
X187588000Y-74659000D02*
X183840000Y-74659000D01*
X180960000Y-74699000D02*
X177184000Y-74699000D01*
X187616000Y-74699000D02*
X183840000Y-74699000D01*
X180960000Y-74739000D02*
X177157000Y-74739000D01*
X187643000Y-74739000D02*
X183840000Y-74739000D01*
X180960000Y-74779000D02*
X177130000Y-74779000D01*
X187670000Y-74779000D02*
X183840000Y-74779000D01*
X180960000Y-74819000D02*
X177104000Y-74819000D01*
X187696000Y-74819000D02*
X183840000Y-74819000D01*
X180960000Y-74859000D02*
X177078000Y-74859000D01*
X187722000Y-74859000D02*
X183840000Y-74859000D01*
X180960000Y-74899000D02*
X177053000Y-74899000D01*
X187747000Y-74899000D02*
X183840000Y-74899000D01*
X180960000Y-74939000D02*
X177028000Y-74939000D01*
X187772000Y-74939000D02*
X183840000Y-74939000D01*
X180960000Y-74979000D02*
X177003000Y-74979000D01*
X187797000Y-74979000D02*
X183840000Y-74979000D01*
X180960000Y-75019000D02*
X176979000Y-75019000D01*
X187821000Y-75019000D02*
X183840000Y-75019000D01*
X180960000Y-75059000D02*
X176955000Y-75059000D01*
X187845000Y-75059000D02*
X183840000Y-75059000D01*
X180960000Y-75099000D02*
X176932000Y-75099000D01*
X187868000Y-75099000D02*
X183840000Y-75099000D01*
X180960000Y-75139000D02*
X176909000Y-75139000D01*
X187891000Y-75139000D02*
X183840000Y-75139000D01*
X180960000Y-75179000D02*
X176886000Y-75179000D01*
X187914000Y-75179000D02*
X183840000Y-75179000D01*
X180960000Y-75219000D02*
X176864000Y-75219000D01*
X187936000Y-75219000D02*
X183840000Y-75219000D01*
X180960000Y-75259000D02*
X176842000Y-75259000D01*
X187958000Y-75259000D02*
X183840000Y-75259000D01*
X180960000Y-75299000D02*
X176820000Y-75299000D01*
X187980000Y-75299000D02*
X183840000Y-75299000D01*
X180960000Y-75339000D02*
X176799000Y-75339000D01*
X188001000Y-75339000D02*
X183840000Y-75339000D01*
X180960000Y-75379000D02*
X176778000Y-75379000D01*
X188022000Y-75379000D02*
X183840000Y-75379000D01*
X180960000Y-75419000D02*
X176758000Y-75419000D01*
X188042000Y-75419000D02*
X183840000Y-75419000D01*
X180960000Y-75459000D02*
X176738000Y-75459000D01*
X188062000Y-75459000D02*
X183840000Y-75459000D01*
X180960000Y-75499000D02*
X176718000Y-75499000D01*
X188082000Y-75499000D02*
X183840000Y-75499000D01*
X180960000Y-75539000D02*
X176698000Y-75539000D01*
X188102000Y-75539000D02*
X183840000Y-75539000D01*
X180960000Y-75579000D02*
X176679000Y-75579000D01*
X188121000Y-75579000D02*
X183840000Y-75579000D01*
X180960000Y-75619000D02*
X176661000Y-75619000D01*
X188139000Y-75619000D02*
X183840000Y-75619000D01*
X180960000Y-75659000D02*
X176642000Y-75659000D01*
X188158000Y-75659000D02*
X183840000Y-75659000D01*
X180960000Y-75699000D02*
X176624000Y-75699000D01*
X188176000Y-75699000D02*
X183840000Y-75699000D01*
X180960000Y-75739000D02*
X176607000Y-75739000D01*
X188193000Y-75739000D02*
X183840000Y-75739000D01*
X180960000Y-75779000D02*
X176589000Y-75779000D01*
X188211000Y-75779000D02*
X183840000Y-75779000D01*
X180960000Y-75819000D02*
X176572000Y-75819000D01*
X188228000Y-75819000D02*
X183840000Y-75819000D01*
X180960000Y-75859000D02*
X176555000Y-75859000D01*
X188245000Y-75859000D02*
X183840000Y-75859000D01*
X180960000Y-75899000D02*
X176539000Y-75899000D01*
X188261000Y-75899000D02*
X183840000Y-75899000D01*
X180960000Y-75939000D02*
X176523000Y-75939000D01*
X188277000Y-75939000D02*
X183840000Y-75939000D01*
X180960000Y-75979000D02*
X176507000Y-75979000D01*
X188293000Y-75979000D02*
X183840000Y-75979000D01*
X180960000Y-76019000D02*
X176492000Y-76019000D01*
X188308000Y-76019000D02*
X183840000Y-76019000D01*
X180960000Y-76059000D02*
X176476000Y-76059000D01*
X188324000Y-76059000D02*
X183840000Y-76059000D01*
X180960000Y-76099000D02*
X176461000Y-76099000D01*
X188339000Y-76099000D02*
X183840000Y-76099000D01*
X180960000Y-76139000D02*
X176447000Y-76139000D01*
X188353000Y-76139000D02*
X183840000Y-76139000D01*
X180960000Y-76179000D02*
X176433000Y-76179000D01*
X188367000Y-76179000D02*
X183840000Y-76179000D01*
X180960000Y-76219000D02*
X176419000Y-76219000D01*
X188381000Y-76219000D02*
X183840000Y-76219000D01*
X180960000Y-76259000D02*
X176405000Y-76259000D01*
X188395000Y-76259000D02*
X183840000Y-76259000D01*
X180960000Y-76299000D02*
X176392000Y-76299000D01*
X188408000Y-76299000D02*
X183840000Y-76299000D01*
X180960000Y-76339000D02*
X176379000Y-76339000D01*
X188421000Y-76339000D02*
X183840000Y-76339000D01*
X180960000Y-76379000D02*
X176366000Y-76379000D01*
X188434000Y-76379000D02*
X183840000Y-76379000D01*
X180960000Y-76419000D02*
X176353000Y-76419000D01*
X188447000Y-76419000D02*
X183840000Y-76419000D01*
X180960000Y-76459000D02*
X176341000Y-76459000D01*
X188459000Y-76459000D02*
X183840000Y-76459000D01*
X180960000Y-76499000D02*
X176329000Y-76499000D01*
X188471000Y-76499000D02*
X183840000Y-76499000D01*
X180960000Y-76539000D02*
X176317000Y-76539000D01*
X188483000Y-76539000D02*
X183840000Y-76539000D01*
X180960000Y-76579000D02*
X176306000Y-76579000D01*
X188494000Y-76579000D02*
X183840000Y-76579000D01*
X180960000Y-76619000D02*
X176295000Y-76619000D01*
X188505000Y-76619000D02*
X183840000Y-76619000D01*
X180960000Y-76659000D02*
X176284000Y-76659000D01*
X188516000Y-76659000D02*
X183840000Y-76659000D01*
X180960000Y-76699000D02*
X176274000Y-76699000D01*
X188526000Y-76699000D02*
X183840000Y-76699000D01*
X180960000Y-76739000D02*
X176263000Y-76739000D01*
X188537000Y-76739000D02*
X183840000Y-76739000D01*
X180960000Y-76779000D02*
X176254000Y-76779000D01*
X188546000Y-76779000D02*
X183840000Y-76779000D01*
X180960000Y-76819000D02*
X176244000Y-76819000D01*
X188556000Y-76819000D02*
X183840000Y-76819000D01*
X180960000Y-76859000D02*
X176234000Y-76859000D01*
X188566000Y-76859000D02*
X183840000Y-76859000D01*
X180960000Y-76899000D02*
X176225000Y-76899000D01*
X188575000Y-76899000D02*
X183840000Y-76899000D01*
X180960000Y-76939000D02*
X176216000Y-76939000D01*
X188584000Y-76939000D02*
X183840000Y-76939000D01*
X180960000Y-76979000D02*
X176208000Y-76979000D01*
X188592000Y-76979000D02*
X183840000Y-76979000D01*
X180960000Y-77019000D02*
X176199000Y-77019000D01*
X188601000Y-77019000D02*
X183840000Y-77019000D01*
X180960000Y-77059000D02*
X176191000Y-77059000D01*
X188609000Y-77059000D02*
X183840000Y-77059000D01*
X180960000Y-77099000D02*
X176184000Y-77099000D01*
X188616000Y-77099000D02*
X183840000Y-77099000D01*
X180960000Y-77139000D02*
X176176000Y-77139000D01*
X188624000Y-77139000D02*
X183840000Y-77139000D01*
X180960000Y-77179000D02*
X176169000Y-77179000D01*
X188631000Y-77179000D02*
X183840000Y-77179000D01*
X180960000Y-77219000D02*
X176162000Y-77219000D01*
X188638000Y-77219000D02*
X183840000Y-77219000D01*
X188645000Y-77259000D02*
X176155000Y-77259000D01*
X188652000Y-77299000D02*
X176148000Y-77299000D01*
X188658000Y-77339000D02*
X176142000Y-77339000D01*
X188664000Y-77379000D02*
X176136000Y-77379000D01*
X188669000Y-77419000D02*
X176131000Y-77419000D01*
X188675000Y-77459000D02*
X176125000Y-77459000D01*
X188680000Y-77499000D02*
X176120000Y-77499000D01*
X188685000Y-77539000D02*
X176115000Y-77539000D01*
X188690000Y-77579000D02*
X176110000Y-77579000D01*
X188694000Y-77620000D02*
X176106000Y-77620000D01*
X188698000Y-77660000D02*
X176102000Y-77660000D01*
X188702000Y-77700000D02*
X176098000Y-77700000D01*
X188706000Y-77740000D02*
X176094000Y-77740000D01*
X188709000Y-77780000D02*
X176091000Y-77780000D01*
X188712000Y-77820000D02*
X176088000Y-77820000D01*
X188715000Y-77860000D02*
X176085000Y-77860000D01*
X188718000Y-77900000D02*
X176082000Y-77900000D01*
X188720000Y-77940000D02*
X176080000Y-77940000D01*
X188722000Y-77980000D02*
X176078000Y-77980000D01*
X188724000Y-78020000D02*
X176076000Y-78020000D01*
X188726000Y-78060000D02*
X176074000Y-78060000D01*
X188727000Y-78100000D02*
X176073000Y-78100000D01*
X188728000Y-78140000D02*
X176072000Y-78140000D01*
X188729000Y-78180000D02*
X176071000Y-78180000D01*
X188730000Y-78220000D02*
X176070000Y-78220000D01*
X188730000Y-78260000D02*
X176070000Y-78260000D01*
X188730000Y-78300000D02*
X176070000Y-78300000D01*
X188770000Y-78300000D02*
G75*
G03*
X188770000Y-78300000I-6370000J0D01*
G01*
D13*
%TO.C,Q4*%
X171595000Y-70820000D02*
G75*
G03*
X171595000Y-70820000I-90000J0D01*
G01*
D12*
X172160000Y-66950000D02*
X172160000Y-70400000D01*
X167040000Y-66950000D02*
X167040000Y-65000000D01*
X172160000Y-66950000D02*
X172160000Y-65000000D01*
X167040000Y-66950000D02*
X167040000Y-68900000D01*
D13*
%TO.C,Q3*%
X181695000Y-70920000D02*
G75*
G03*
X181695000Y-70920000I-90000J0D01*
G01*
D12*
X182260000Y-67050000D02*
X182260000Y-70500000D01*
X177140000Y-67050000D02*
X177140000Y-65100000D01*
X182260000Y-67050000D02*
X182260000Y-65100000D01*
X177140000Y-67050000D02*
X177140000Y-69000000D01*
D13*
%TO.C,Q2*%
X158385000Y-86430000D02*
G75*
G03*
X158385000Y-86430000I-90000J0D01*
G01*
D12*
X157640000Y-90300000D02*
X157640000Y-86850000D01*
X162760000Y-90300000D02*
X162760000Y-92250000D01*
X157640000Y-90300000D02*
X157640000Y-92250000D01*
X162760000Y-90300000D02*
X162760000Y-88350000D01*
D13*
%TO.C,Q1*%
X168285000Y-86480000D02*
G75*
G03*
X168285000Y-86480000I-90000J0D01*
G01*
D12*
X167540000Y-90350000D02*
X167540000Y-86900000D01*
X172660000Y-90350000D02*
X172660000Y-92300000D01*
X167540000Y-90350000D02*
X167540000Y-92300000D01*
X172660000Y-90350000D02*
X172660000Y-88400000D01*
%TO.C,C4*%
X140110000Y-73853733D02*
X140110000Y-74146267D01*
X139090000Y-73853733D02*
X139090000Y-74146267D01*
D13*
%TO.C,U3*%
X141495000Y-72280000D02*
G75*
G03*
X141495000Y-72280000I-90000J0D01*
G01*
D12*
X153610000Y-82160000D02*
X153375000Y-82160000D01*
X153610000Y-78300000D02*
X153610000Y-74440000D01*
X140590000Y-78300000D02*
X140590000Y-82160000D01*
X140590000Y-78300000D02*
X140590000Y-74440000D01*
X153610000Y-74440000D02*
X153375000Y-74440000D01*
X140590000Y-82160000D02*
X140825000Y-82160000D01*
X140590000Y-74440000D02*
X140825000Y-74440000D01*
X140825000Y-74440000D02*
X140825000Y-72625000D01*
X153610000Y-78300000D02*
X153610000Y-82160000D01*
%TO.C,C1*%
D10*
X190247142Y-78123333D02*
X190294761Y-78075714D01*
X190342380Y-77932857D01*
X190342380Y-77837619D01*
X190294761Y-77694761D01*
X190199523Y-77599523D01*
X190104285Y-77551904D01*
X189913809Y-77504285D01*
X189770952Y-77504285D01*
X189580476Y-77551904D01*
X189485238Y-77599523D01*
X189390000Y-77694761D01*
X189342380Y-77837619D01*
X189342380Y-77932857D01*
X189390000Y-78075714D01*
X189437619Y-78123333D01*
X190342380Y-79075714D02*
X190342380Y-78504285D01*
X190342380Y-78790000D02*
X189342380Y-78790000D01*
X189485238Y-78694761D01*
X189580476Y-78599523D01*
X189628095Y-78504285D01*
%TO.C,Q4*%
X173547619Y-66904761D02*
X173500000Y-66809523D01*
X173404761Y-66714285D01*
X173261904Y-66571428D01*
X173214285Y-66476190D01*
X173214285Y-66380952D01*
X173452380Y-66428571D02*
X173404761Y-66333333D01*
X173309523Y-66238095D01*
X173119047Y-66190476D01*
X172785714Y-66190476D01*
X172595238Y-66238095D01*
X172500000Y-66333333D01*
X172452380Y-66428571D01*
X172452380Y-66619047D01*
X172500000Y-66714285D01*
X172595238Y-66809523D01*
X172785714Y-66857142D01*
X173119047Y-66857142D01*
X173309523Y-66809523D01*
X173404761Y-66714285D01*
X173452380Y-66619047D01*
X173452380Y-66428571D01*
X172785714Y-67714285D02*
X173452380Y-67714285D01*
X172404761Y-67476190D02*
X173119047Y-67238095D01*
X173119047Y-67857142D01*
%TO.C,Q3*%
X183647619Y-67004761D02*
X183600000Y-66909523D01*
X183504761Y-66814285D01*
X183361904Y-66671428D01*
X183314285Y-66576190D01*
X183314285Y-66480952D01*
X183552380Y-66528571D02*
X183504761Y-66433333D01*
X183409523Y-66338095D01*
X183219047Y-66290476D01*
X182885714Y-66290476D01*
X182695238Y-66338095D01*
X182600000Y-66433333D01*
X182552380Y-66528571D01*
X182552380Y-66719047D01*
X182600000Y-66814285D01*
X182695238Y-66909523D01*
X182885714Y-66957142D01*
X183219047Y-66957142D01*
X183409523Y-66909523D01*
X183504761Y-66814285D01*
X183552380Y-66719047D01*
X183552380Y-66528571D01*
X182552380Y-67290476D02*
X182552380Y-67909523D01*
X182933333Y-67576190D01*
X182933333Y-67719047D01*
X182980952Y-67814285D01*
X183028571Y-67861904D01*
X183123809Y-67909523D01*
X183361904Y-67909523D01*
X183457142Y-67861904D01*
X183504761Y-67814285D01*
X183552380Y-67719047D01*
X183552380Y-67433333D01*
X183504761Y-67338095D01*
X183457142Y-67290476D01*
%TO.C,Q2*%
X157347619Y-90154761D02*
X157300000Y-90059523D01*
X157204761Y-89964285D01*
X157061904Y-89821428D01*
X157014285Y-89726190D01*
X157014285Y-89630952D01*
X157252380Y-89678571D02*
X157204761Y-89583333D01*
X157109523Y-89488095D01*
X156919047Y-89440476D01*
X156585714Y-89440476D01*
X156395238Y-89488095D01*
X156300000Y-89583333D01*
X156252380Y-89678571D01*
X156252380Y-89869047D01*
X156300000Y-89964285D01*
X156395238Y-90059523D01*
X156585714Y-90107142D01*
X156919047Y-90107142D01*
X157109523Y-90059523D01*
X157204761Y-89964285D01*
X157252380Y-89869047D01*
X157252380Y-89678571D01*
X156347619Y-90488095D02*
X156300000Y-90535714D01*
X156252380Y-90630952D01*
X156252380Y-90869047D01*
X156300000Y-90964285D01*
X156347619Y-91011904D01*
X156442857Y-91059523D01*
X156538095Y-91059523D01*
X156680952Y-91011904D01*
X157252380Y-90440476D01*
X157252380Y-91059523D01*
%TO.C,Q1*%
X167247619Y-90204761D02*
X167200000Y-90109523D01*
X167104761Y-90014285D01*
X166961904Y-89871428D01*
X166914285Y-89776190D01*
X166914285Y-89680952D01*
X167152380Y-89728571D02*
X167104761Y-89633333D01*
X167009523Y-89538095D01*
X166819047Y-89490476D01*
X166485714Y-89490476D01*
X166295238Y-89538095D01*
X166200000Y-89633333D01*
X166152380Y-89728571D01*
X166152380Y-89919047D01*
X166200000Y-90014285D01*
X166295238Y-90109523D01*
X166485714Y-90157142D01*
X166819047Y-90157142D01*
X167009523Y-90109523D01*
X167104761Y-90014285D01*
X167152380Y-89919047D01*
X167152380Y-89728571D01*
X167152380Y-91109523D02*
X167152380Y-90538095D01*
X167152380Y-90823809D02*
X166152380Y-90823809D01*
X166295238Y-90728571D01*
X166390476Y-90633333D01*
X166438095Y-90538095D01*
%TO.C,C4*%
X138527142Y-73833333D02*
X138574761Y-73785714D01*
X138622380Y-73642857D01*
X138622380Y-73547619D01*
X138574761Y-73404761D01*
X138479523Y-73309523D01*
X138384285Y-73261904D01*
X138193809Y-73214285D01*
X138050952Y-73214285D01*
X137860476Y-73261904D01*
X137765238Y-73309523D01*
X137670000Y-73404761D01*
X137622380Y-73547619D01*
X137622380Y-73642857D01*
X137670000Y-73785714D01*
X137717619Y-73833333D01*
X137955714Y-74690476D02*
X138622380Y-74690476D01*
X137574761Y-74452380D02*
X138289047Y-74214285D01*
X138289047Y-74833333D01*
%TO.C,U3*%
X137892380Y-77748095D02*
X138701904Y-77748095D01*
X138797142Y-77795714D01*
X138844761Y-77843333D01*
X138892380Y-77938571D01*
X138892380Y-78129047D01*
X138844761Y-78224285D01*
X138797142Y-78271904D01*
X138701904Y-78319523D01*
X137892380Y-78319523D01*
X137892380Y-78700476D02*
X137892380Y-79319523D01*
X138273333Y-78986190D01*
X138273333Y-79129047D01*
X138320952Y-79224285D01*
X138368571Y-79271904D01*
X138463809Y-79319523D01*
X138701904Y-79319523D01*
X138797142Y-79271904D01*
X138844761Y-79224285D01*
X138892380Y-79129047D01*
X138892380Y-78843333D01*
X138844761Y-78748095D01*
X138797142Y-78700476D01*
X139856666Y-72736190D02*
X139856666Y-73212380D01*
X140142380Y-72640952D02*
X139142380Y-72974285D01*
X140142380Y-73307619D01*
X139142380Y-73498095D02*
X139142380Y-74069523D01*
X140142380Y-73783809D02*
X139142380Y-73783809D01*
X139475714Y-74260000D02*
X139475714Y-74640952D01*
X139142380Y-74402857D02*
X139999523Y-74402857D01*
X140094761Y-74450476D01*
X140142380Y-74545714D01*
X140142380Y-74640952D01*
X140142380Y-74974285D02*
X139475714Y-74974285D01*
X139142380Y-74974285D02*
X139190000Y-74926666D01*
X139237619Y-74974285D01*
X139190000Y-75021904D01*
X139142380Y-74974285D01*
X139237619Y-74974285D01*
X139475714Y-75450476D02*
X140142380Y-75450476D01*
X139570952Y-75450476D02*
X139523333Y-75498095D01*
X139475714Y-75593333D01*
X139475714Y-75736190D01*
X139523333Y-75831428D01*
X139618571Y-75879047D01*
X140142380Y-75879047D01*
X139475714Y-76260000D02*
X140142380Y-76498095D01*
X139475714Y-76736190D02*
X140142380Y-76498095D01*
X140380476Y-76402857D01*
X140428095Y-76355238D01*
X140475714Y-76260000D01*
X139475714Y-77545714D02*
X140142380Y-77545714D01*
X139094761Y-77307619D02*
X139809047Y-77069523D01*
X139809047Y-77688571D01*
X140142380Y-78593333D02*
X140142380Y-78021904D01*
X140142380Y-78307619D02*
X139142380Y-78307619D01*
X139285238Y-78212380D01*
X139380476Y-78117142D01*
X139428095Y-78021904D01*
X139142380Y-79450476D02*
X139142380Y-79260000D01*
X139190000Y-79164761D01*
X139237619Y-79117142D01*
X139380476Y-79021904D01*
X139570952Y-78974285D01*
X139951904Y-78974285D01*
X140047142Y-79021904D01*
X140094761Y-79069523D01*
X140142380Y-79164761D01*
X140142380Y-79355238D01*
X140094761Y-79450476D01*
X140047142Y-79498095D01*
X139951904Y-79545714D01*
X139713809Y-79545714D01*
X139618571Y-79498095D01*
X139570952Y-79450476D01*
X139523333Y-79355238D01*
X139523333Y-79164761D01*
X139570952Y-79069523D01*
X139618571Y-79021904D01*
X139713809Y-78974285D01*
X139761428Y-79974285D02*
X139761428Y-80736190D01*
X140094761Y-81164761D02*
X140142380Y-81307619D01*
X140142380Y-81545714D01*
X140094761Y-81640952D01*
X140047142Y-81688571D01*
X139951904Y-81736190D01*
X139856666Y-81736190D01*
X139761428Y-81688571D01*
X139713809Y-81640952D01*
X139666190Y-81545714D01*
X139618571Y-81355238D01*
X139570952Y-81260000D01*
X139523333Y-81212380D01*
X139428095Y-81164761D01*
X139332857Y-81164761D01*
X139237619Y-81212380D01*
X139190000Y-81260000D01*
X139142380Y-81355238D01*
X139142380Y-81593333D01*
X139190000Y-81736190D01*
X140142380Y-82164761D02*
X139142380Y-82164761D01*
X140142380Y-82736190D01*
X139142380Y-82736190D01*
X140142380Y-83783809D02*
X139666190Y-83450476D01*
X140142380Y-83212380D02*
X139142380Y-83212380D01*
X139142380Y-83593333D01*
X139190000Y-83688571D01*
X139237619Y-83736190D01*
X139332857Y-83783809D01*
X139475714Y-83783809D01*
X139570952Y-83736190D01*
X139618571Y-83688571D01*
X139666190Y-83593333D01*
X139666190Y-83212380D01*
%TD*%
M02*
