%TF.GenerationSoftware,KiCad,Pcbnew,(5.1.9)-1*%
%TF.CreationDate,2021-01-07T15:51:33-05:00*%
%TF.ProjectId,rgb,7267622e-6b69-4636-9164-5f7063625858,rev?*%
%TF.SameCoordinates,Original*%
%TF.FileFunction,Copper,L1,Top*%
%TF.FilePolarity,Positive*%
%FSLAX46Y46*%
G04 Gerber Fmt 4.6, Leading zero omitted, Abs format (unit mm)*
G04 Created by KiCad (PCBNEW (5.1.9)-1) date 2021-01-07 15:51:33*
%MOMM*%
%LPD*%
G01*
G04 APERTURE LIST*
%TA.AperFunction,SMDPad,CuDef*%
%ADD10R,0.900000X0.800000*%
%TD*%
%TA.AperFunction,ComponentPad*%
%ADD11C,2.400000*%
%TD*%
%TA.AperFunction,ComponentPad*%
%ADD12R,2.400000X2.400000*%
%TD*%
%TA.AperFunction,ComponentPad*%
%ADD13R,2.000000X2.000000*%
%TD*%
%TA.AperFunction,ComponentPad*%
%ADD14R,2.500000X3.000000*%
%TD*%
%TA.AperFunction,ComponentPad*%
%ADD15C,2.000000*%
%TD*%
%TA.AperFunction,ComponentPad*%
%ADD16C,1.950000*%
%TD*%
%TA.AperFunction,ComponentPad*%
%ADD17R,1.950000X1.950000*%
%TD*%
%TA.AperFunction,ComponentPad*%
%ADD18C,2.100000*%
%TD*%
%TA.AperFunction,ComponentPad*%
%ADD19R,2.100000X2.100000*%
%TD*%
%TA.AperFunction,SMDPad,CuDef*%
%ADD20R,1.310000X0.550000*%
%TD*%
%TA.AperFunction,SMDPad,CuDef*%
%ADD21R,1.310000X0.940000*%
%TD*%
%TA.AperFunction,ComponentPad*%
%ADD22O,1.700000X1.700000*%
%TD*%
%TA.AperFunction,ComponentPad*%
%ADD23R,1.700000X1.700000*%
%TD*%
%TA.AperFunction,ViaPad*%
%ADD24C,3.500000*%
%TD*%
%TA.AperFunction,ViaPad*%
%ADD25C,3.540000*%
%TD*%
%TA.AperFunction,ViaPad*%
%ADD26C,0.800000*%
%TD*%
%TA.AperFunction,Conductor*%
%ADD27C,0.250000*%
%TD*%
%TA.AperFunction,Conductor*%
%ADD28C,0.500000*%
%TD*%
%TA.AperFunction,Conductor*%
%ADD29C,0.254000*%
%TD*%
%TA.AperFunction,Conductor*%
%ADD30C,0.100000*%
%TD*%
G04 APERTURE END LIST*
D10*
%TO.P,U1,3*%
%TO.N,/SENSE*%
X185050000Y-79800000D03*
%TO.P,U1,2*%
%TO.N,+12V*%
X187050000Y-78850000D03*
%TO.P,U1,1*%
%TO.N,Net-(F1-Pad1)*%
X187050000Y-80750000D03*
%TD*%
D11*
%TO.P,C1,2*%
%TO.N,GND*%
X182400000Y-75800000D03*
D12*
%TO.P,C1,1*%
%TO.N,+12V*%
X182400000Y-80800000D03*
%TD*%
%TO.P,R1,2*%
%TO.N,+12V*%
%TA.AperFunction,SMDPad,CuDef*%
G36*
G01*
X194850001Y-78850000D02*
X190149999Y-78850000D01*
G75*
G02*
X189900000Y-78600001I0J249999D01*
G01*
X189900000Y-77774999D01*
G75*
G02*
X190149999Y-77525000I249999J0D01*
G01*
X194850001Y-77525000D01*
G75*
G02*
X195100000Y-77774999I0J-249999D01*
G01*
X195100000Y-78600001D01*
G75*
G02*
X194850001Y-78850000I-249999J0D01*
G01*
G37*
%TD.AperFunction*%
%TO.P,R1,1*%
%TO.N,Net-(F1-Pad1)*%
%TA.AperFunction,SMDPad,CuDef*%
G36*
G01*
X194850001Y-81275000D02*
X190149999Y-81275000D01*
G75*
G02*
X189900000Y-81025001I0J249999D01*
G01*
X189900000Y-80199999D01*
G75*
G02*
X190149999Y-79950000I249999J0D01*
G01*
X194850001Y-79950000D01*
G75*
G02*
X195100000Y-80199999I0J-249999D01*
G01*
X195100000Y-81025001D01*
G75*
G02*
X194850001Y-81275000I-249999J0D01*
G01*
G37*
%TD.AperFunction*%
%TD*%
%TO.P,R2,1*%
%TO.N,/SENSE*%
%TA.AperFunction,SMDPad,CuDef*%
G36*
G01*
X161339999Y-78560000D02*
X162240001Y-78560000D01*
G75*
G02*
X162490000Y-78809999I0J-249999D01*
G01*
X162490000Y-79510001D01*
G75*
G02*
X162240001Y-79760000I-249999J0D01*
G01*
X161339999Y-79760000D01*
G75*
G02*
X161090000Y-79510001I0J249999D01*
G01*
X161090000Y-78809999D01*
G75*
G02*
X161339999Y-78560000I249999J0D01*
G01*
G37*
%TD.AperFunction*%
%TO.P,R2,2*%
%TO.N,GND*%
%TA.AperFunction,SMDPad,CuDef*%
G36*
G01*
X161339999Y-80560000D02*
X162240001Y-80560000D01*
G75*
G02*
X162490000Y-80809999I0J-249999D01*
G01*
X162490000Y-81510001D01*
G75*
G02*
X162240001Y-81760000I-249999J0D01*
G01*
X161339999Y-81760000D01*
G75*
G02*
X161090000Y-81510001I0J249999D01*
G01*
X161090000Y-80809999D01*
G75*
G02*
X161339999Y-80560000I249999J0D01*
G01*
G37*
%TD.AperFunction*%
%TD*%
D13*
%TO.P,SW5,A*%
%TO.N,/SW_A2*%
X127360000Y-93750000D03*
D14*
%TO.P,SW5,MP*%
%TO.N,N/C*%
X134960000Y-86250000D03*
X124260000Y-86250000D03*
D15*
%TO.P,SW5,C*%
%TO.N,GND*%
X129860000Y-93750000D03*
%TO.P,SW5,B*%
%TO.N,/SW_B2*%
X132360000Y-93750000D03*
%TD*%
D16*
%TO.P,J1,2*%
%TO.N,GND*%
X188600000Y-86900000D03*
D17*
%TO.P,J1,1*%
%TO.N,Net-(F1-Pad2)*%
X183600000Y-86900000D03*
%TD*%
D18*
%TO.P,J2,5*%
%TO.N,/DRAIN_4*%
X158090000Y-95390000D03*
%TO.P,J2,4*%
%TO.N,/DRAIN_3*%
X163090000Y-95390000D03*
%TO.P,J2,3*%
%TO.N,/DRAIN_2*%
X168090000Y-95390000D03*
%TO.P,J2,2*%
%TO.N,/DRAIN_1*%
X173090000Y-95390000D03*
D19*
%TO.P,J2,1*%
%TO.N,+12V*%
X178090000Y-95390000D03*
%TD*%
D18*
%TO.P,J3,5*%
%TO.N,/DRAIN_8*%
X167100000Y-61980000D03*
%TO.P,J3,4*%
%TO.N,/DRAIN_7*%
X172100000Y-61980000D03*
%TO.P,J3,3*%
%TO.N,/DRAIN_6*%
X177100000Y-61980000D03*
%TO.P,J3,2*%
%TO.N,/DRAIN_5*%
X182100000Y-61980000D03*
D19*
%TO.P,J3,1*%
%TO.N,+12V*%
X187100000Y-61980000D03*
%TD*%
%TO.P,R5,2*%
%TO.N,GND*%
%TA.AperFunction,SMDPad,CuDef*%
G36*
G01*
X138200000Y-59850001D02*
X138200000Y-58949999D01*
G75*
G02*
X138449999Y-58700000I249999J0D01*
G01*
X139150001Y-58700000D01*
G75*
G02*
X139400000Y-58949999I0J-249999D01*
G01*
X139400000Y-59850001D01*
G75*
G02*
X139150001Y-60100000I-249999J0D01*
G01*
X138449999Y-60100000D01*
G75*
G02*
X138200000Y-59850001I0J249999D01*
G01*
G37*
%TD.AperFunction*%
%TO.P,R5,1*%
%TO.N,Net-(D1-Pad1)*%
%TA.AperFunction,SMDPad,CuDef*%
G36*
G01*
X136200000Y-59850001D02*
X136200000Y-58949999D01*
G75*
G02*
X136449999Y-58700000I249999J0D01*
G01*
X137150001Y-58700000D01*
G75*
G02*
X137400000Y-58949999I0J-249999D01*
G01*
X137400000Y-59850001D01*
G75*
G02*
X137150001Y-60100000I-249999J0D01*
G01*
X136449999Y-60100000D01*
G75*
G02*
X136200000Y-59850001I0J249999D01*
G01*
G37*
%TD.AperFunction*%
%TD*%
%TO.P,R4,2*%
%TO.N,GND*%
%TA.AperFunction,SMDPad,CuDef*%
G36*
G01*
X152240000Y-61279999D02*
X152240000Y-62180001D01*
G75*
G02*
X151990001Y-62430000I-249999J0D01*
G01*
X151289999Y-62430000D01*
G75*
G02*
X151040000Y-62180001I0J249999D01*
G01*
X151040000Y-61279999D01*
G75*
G02*
X151289999Y-61030000I249999J0D01*
G01*
X151990001Y-61030000D01*
G75*
G02*
X152240000Y-61279999I0J-249999D01*
G01*
G37*
%TD.AperFunction*%
%TO.P,R4,1*%
%TO.N,/PWR_EN*%
%TA.AperFunction,SMDPad,CuDef*%
G36*
G01*
X154240000Y-61279999D02*
X154240000Y-62180001D01*
G75*
G02*
X153990001Y-62430000I-249999J0D01*
G01*
X153289999Y-62430000D01*
G75*
G02*
X153040000Y-62180001I0J249999D01*
G01*
X153040000Y-61279999D01*
G75*
G02*
X153289999Y-61030000I249999J0D01*
G01*
X153990001Y-61030000D01*
G75*
G02*
X154240000Y-61279999I0J-249999D01*
G01*
G37*
%TD.AperFunction*%
%TD*%
%TO.P,R3,2*%
%TO.N,+12V*%
%TA.AperFunction,SMDPad,CuDef*%
G36*
G01*
X152200000Y-58949999D02*
X152200000Y-59850001D01*
G75*
G02*
X151950001Y-60100000I-249999J0D01*
G01*
X151249999Y-60100000D01*
G75*
G02*
X151000000Y-59850001I0J249999D01*
G01*
X151000000Y-58949999D01*
G75*
G02*
X151249999Y-58700000I249999J0D01*
G01*
X151950001Y-58700000D01*
G75*
G02*
X152200000Y-58949999I0J-249999D01*
G01*
G37*
%TD.AperFunction*%
%TO.P,R3,1*%
%TO.N,Net-(R3-Pad1)*%
%TA.AperFunction,SMDPad,CuDef*%
G36*
G01*
X154200000Y-58949999D02*
X154200000Y-59850001D01*
G75*
G02*
X153950001Y-60100000I-249999J0D01*
G01*
X153249999Y-60100000D01*
G75*
G02*
X153000000Y-59850001I0J249999D01*
G01*
X153000000Y-58949999D01*
G75*
G02*
X153249999Y-58700000I249999J0D01*
G01*
X153950001Y-58700000D01*
G75*
G02*
X154200000Y-58949999I0J-249999D01*
G01*
G37*
%TD.AperFunction*%
%TD*%
D13*
%TO.P,SW3,A*%
%TO.N,/SW_A1*%
X144600000Y-94250000D03*
D14*
%TO.P,SW3,MP*%
%TO.N,N/C*%
X152200000Y-86750000D03*
X141500000Y-86750000D03*
D15*
%TO.P,SW3,C*%
%TO.N,GND*%
X147100000Y-94250000D03*
%TO.P,SW3,B*%
%TO.N,/SW_B2*%
X149600000Y-94250000D03*
%TD*%
%TO.P,C3,2*%
%TO.N,GND*%
%TA.AperFunction,SMDPad,CuDef*%
G36*
G01*
X144537500Y-59975000D02*
X144062500Y-59975000D01*
G75*
G02*
X143825000Y-59737500I0J237500D01*
G01*
X143825000Y-59137500D01*
G75*
G02*
X144062500Y-58900000I237500J0D01*
G01*
X144537500Y-58900000D01*
G75*
G02*
X144775000Y-59137500I0J-237500D01*
G01*
X144775000Y-59737500D01*
G75*
G02*
X144537500Y-59975000I-237500J0D01*
G01*
G37*
%TD.AperFunction*%
%TO.P,C3,1*%
%TO.N,+5V*%
%TA.AperFunction,SMDPad,CuDef*%
G36*
G01*
X144537500Y-61700000D02*
X144062500Y-61700000D01*
G75*
G02*
X143825000Y-61462500I0J237500D01*
G01*
X143825000Y-60862500D01*
G75*
G02*
X144062500Y-60625000I237500J0D01*
G01*
X144537500Y-60625000D01*
G75*
G02*
X144775000Y-60862500I0J-237500D01*
G01*
X144775000Y-61462500D01*
G75*
G02*
X144537500Y-61700000I-237500J0D01*
G01*
G37*
%TD.AperFunction*%
%TD*%
D20*
%TO.P,U2,3*%
%TO.N,+12V*%
X146100000Y-59440000D03*
%TO.P,U2,2*%
%TO.N,/PWR_EN*%
X148100000Y-59440000D03*
D21*
%TO.P,U2,1*%
%TO.N,GND*%
X148100000Y-61160000D03*
D20*
%TO.P,U2,4*%
%TO.N,+5V*%
X146100000Y-61360000D03*
%TD*%
D13*
%TO.P,SW4,A*%
%TO.N,/SW_A2*%
X144440000Y-77540000D03*
D14*
%TO.P,SW4,MP*%
%TO.N,N/C*%
X152040000Y-70040000D03*
X141340000Y-70040000D03*
D15*
%TO.P,SW4,C*%
%TO.N,GND*%
X146940000Y-77540000D03*
%TO.P,SW4,B*%
%TO.N,/SW_B1*%
X149440000Y-77540000D03*
%TD*%
D13*
%TO.P,SW2,A*%
%TO.N,/SW_A1*%
X127410000Y-78000000D03*
D14*
%TO.P,SW2,MP*%
%TO.N,N/C*%
X135010000Y-70500000D03*
X124310000Y-70500000D03*
D15*
%TO.P,SW2,C*%
%TO.N,GND*%
X129910000Y-78000000D03*
%TO.P,SW2,B*%
%TO.N,/SW_B1*%
X132410000Y-78000000D03*
%TD*%
%TO.P,D1,1*%
%TO.N,Net-(D1-Pad1)*%
%TA.AperFunction,SMDPad,CuDef*%
G36*
G01*
X136200000Y-62000001D02*
X136200000Y-61099999D01*
G75*
G02*
X136449999Y-60850000I249999J0D01*
G01*
X137100001Y-60850000D01*
G75*
G02*
X137350000Y-61099999I0J-249999D01*
G01*
X137350000Y-62000001D01*
G75*
G02*
X137100001Y-62250000I-249999J0D01*
G01*
X136449999Y-62250000D01*
G75*
G02*
X136200000Y-62000001I0J249999D01*
G01*
G37*
%TD.AperFunction*%
%TO.P,D1,2*%
%TO.N,+5V*%
%TA.AperFunction,SMDPad,CuDef*%
G36*
G01*
X138250000Y-62000001D02*
X138250000Y-61099999D01*
G75*
G02*
X138499999Y-60850000I249999J0D01*
G01*
X139150001Y-60850000D01*
G75*
G02*
X139400000Y-61099999I0J-249999D01*
G01*
X139400000Y-62000001D01*
G75*
G02*
X139150001Y-62250000I-249999J0D01*
G01*
X138499999Y-62250000D01*
G75*
G02*
X138250000Y-62000001I0J249999D01*
G01*
G37*
%TD.AperFunction*%
%TD*%
%TO.P,SW6,1*%
%TO.N,/SW6*%
X162640000Y-69610000D03*
%TO.P,SW6,2*%
%TO.N,GND*%
X162640000Y-74110000D03*
%TO.P,SW6,1*%
%TO.N,/SW6*%
X156140000Y-69610000D03*
%TO.P,SW6,2*%
%TO.N,GND*%
X156140000Y-74110000D03*
%TD*%
%TO.P,SW1,1*%
%TO.N,/PWR_EN*%
X156140000Y-65980000D03*
%TO.P,SW1,2*%
%TO.N,Net-(R3-Pad1)*%
X156140000Y-61480000D03*
%TO.P,SW1,1*%
%TO.N,/PWR_EN*%
X162640000Y-65980000D03*
%TO.P,SW1,2*%
%TO.N,Net-(R3-Pad1)*%
X162640000Y-61480000D03*
%TD*%
D22*
%TO.P,J5,4*%
%TO.N,+5V*%
X146690000Y-97570000D03*
%TO.P,J5,3*%
%TO.N,/TWI_SDA*%
X144150000Y-97570000D03*
%TO.P,J5,2*%
%TO.N,/TWI_SCL*%
X141610000Y-97570000D03*
D23*
%TO.P,J5,1*%
%TO.N,GND*%
X139070000Y-97570000D03*
%TD*%
D22*
%TO.P,J4,3*%
%TO.N,+5V*%
X135350000Y-97570000D03*
%TO.P,J4,2*%
%TO.N,/RESET*%
X132810000Y-97570000D03*
D23*
%TO.P,J4,1*%
%TO.N,GND*%
X130270000Y-97570000D03*
%TD*%
%TO.P,F1,2*%
%TO.N,Net-(F1-Pad2)*%
%TA.AperFunction,SMDPad,CuDef*%
G36*
G01*
X192015000Y-85065000D02*
X193265000Y-85065000D01*
G75*
G02*
X193515000Y-85315000I0J-250000D01*
G01*
X193515000Y-86240000D01*
G75*
G02*
X193265000Y-86490000I-250000J0D01*
G01*
X192015000Y-86490000D01*
G75*
G02*
X191765000Y-86240000I0J250000D01*
G01*
X191765000Y-85315000D01*
G75*
G02*
X192015000Y-85065000I250000J0D01*
G01*
G37*
%TD.AperFunction*%
%TO.P,F1,1*%
%TO.N,Net-(F1-Pad1)*%
%TA.AperFunction,SMDPad,CuDef*%
G36*
G01*
X192015000Y-82090000D02*
X193265000Y-82090000D01*
G75*
G02*
X193515000Y-82340000I0J-250000D01*
G01*
X193515000Y-83265000D01*
G75*
G02*
X193265000Y-83515000I-250000J0D01*
G01*
X192015000Y-83515000D01*
G75*
G02*
X191765000Y-83265000I0J250000D01*
G01*
X191765000Y-82340000D01*
G75*
G02*
X192015000Y-82090000I250000J0D01*
G01*
G37*
%TD.AperFunction*%
%TD*%
D24*
%TO.N,*%
X125500000Y-60500000D03*
X192500000Y-60500000D03*
D25*
X192500000Y-97500000D03*
D24*
X125000000Y-98000000D03*
D26*
%TO.N,GND*%
X148500000Y-62600000D03*
X147600000Y-62600000D03*
X147600000Y-63500000D03*
X148500000Y-63500000D03*
X147600000Y-64400000D03*
X148500000Y-64400000D03*
X146700000Y-62600000D03*
X146700000Y-63500000D03*
X146700000Y-64400000D03*
X144400000Y-58200000D03*
X140200000Y-59300000D03*
X151640000Y-63190000D03*
X163210000Y-81150000D03*
%TO.N,/PWM_2*%
X154000000Y-82400000D03*
X169400000Y-90025010D03*
%TO.N,/PWM_1*%
X171905000Y-89300000D03*
X151500000Y-81300000D03*
%TO.N,/PWM_4*%
X143000000Y-84700000D03*
X159500000Y-89100000D03*
%TO.N,/PWM_3*%
X150275000Y-81225000D03*
X162000000Y-89100000D03*
%TO.N,/PWM_8*%
X152800000Y-75500000D03*
X167700000Y-71200000D03*
%TO.N,/PWM_7*%
X151545000Y-75455000D03*
X170235000Y-71200000D03*
%TO.N,/PWM_6*%
X143300000Y-75200000D03*
X177810000Y-67850000D03*
%TO.N,/PWM_5*%
X143300000Y-71800000D03*
X180360000Y-66720000D03*
%TO.N,+5V*%
X138300000Y-73100000D03*
%TO.N,/TWI_SCL*%
X144000000Y-85000000D03*
%TO.N,/TWI_SDA*%
X145250000Y-85000000D03*
%TO.N,/RESET*%
X146450000Y-81200000D03*
%TO.N,/SW6*%
X150200000Y-71900000D03*
%TO.N,/PWR_EN*%
X147700000Y-70900000D03*
%TO.N,/SW_A1*%
X145200000Y-75300000D03*
X140800000Y-94250000D03*
X138000000Y-93500000D03*
X135600000Y-93500000D03*
%TO.N,/SW_B1*%
X149100000Y-85000000D03*
X149000000Y-81200000D03*
X134500000Y-84100000D03*
X132400000Y-84100000D03*
%TO.N,/SW_B2*%
X137175000Y-94280000D03*
X140862500Y-95637500D03*
X143287500Y-95887500D03*
X147600000Y-85000000D03*
%TO.N,/SW_A2*%
X146550000Y-75250000D03*
%TO.N,/SENSE*%
X149000000Y-75300000D03*
X170300000Y-78700000D03*
X184300000Y-80950000D03*
%TD*%
D27*
%TO.N,GND*%
X147040000Y-78130000D02*
X146640001Y-77730001D01*
X148115000Y-61175000D02*
X148100000Y-61160000D01*
X148240000Y-61300000D02*
X148100000Y-61160000D01*
X144300000Y-59437500D02*
X144300000Y-58300000D01*
X144300000Y-58300000D02*
X144400000Y-58200000D01*
X144400000Y-58200000D02*
X144400000Y-58200000D01*
D28*
X138862500Y-59350000D02*
X140150000Y-59350000D01*
D27*
X151115000Y-61830000D02*
X151115000Y-61815000D01*
X151640000Y-61730000D02*
X151640000Y-63190000D01*
X163210000Y-81150000D02*
X161910000Y-81150000D01*
%TO.N,/PWM_2*%
X157200000Y-82400000D02*
X154000000Y-82400000D01*
X164825010Y-90025010D02*
X157200000Y-82400000D01*
X169400000Y-90025010D02*
X164825010Y-90025010D01*
%TO.N,/PWM_1*%
X157800000Y-81300000D02*
X151500000Y-81300000D01*
X165800000Y-89300000D02*
X157800000Y-81300000D01*
X171905000Y-89300000D02*
X165800000Y-89300000D01*
%TO.N,/PWM_4*%
X159500000Y-89100000D02*
X159500000Y-89100000D01*
X159500000Y-89100000D02*
X155324999Y-84924999D01*
X150600000Y-83600000D02*
X143800000Y-83600000D01*
X155324999Y-84924999D02*
X151900000Y-84900000D01*
X151900000Y-84900000D02*
X150600000Y-83600000D01*
X143800000Y-83600000D02*
X143000000Y-84700000D01*
%TO.N,/PWM_3*%
X162100000Y-89100000D02*
X162100000Y-89100000D01*
X150275000Y-81225000D02*
X150275000Y-81875000D01*
X151800000Y-83400000D02*
X154000000Y-83400000D01*
X150275000Y-81875000D02*
X151800000Y-83400000D01*
X156400000Y-83400000D02*
X157550000Y-84550000D01*
X154000000Y-83400000D02*
X156400000Y-83400000D01*
X157100000Y-84100000D02*
X157550000Y-84550000D01*
X157550000Y-84550000D02*
X160121111Y-87178889D01*
X160318889Y-87381111D02*
X162000000Y-89100000D01*
X160121111Y-87178889D02*
X160318889Y-87381111D01*
%TO.N,/PWM_8*%
X163400000Y-75500000D02*
X167700000Y-71200000D01*
X152800000Y-75500000D02*
X163400000Y-75500000D01*
%TO.N,/PWM_7*%
X169100000Y-71200000D02*
X170235000Y-71200000D01*
X163098059Y-77201941D02*
X169100000Y-71200000D01*
X162501941Y-77201941D02*
X163098059Y-77201941D01*
X151545000Y-76355000D02*
X152400000Y-77200000D01*
X152400000Y-77200000D02*
X162501941Y-77201941D01*
X151545000Y-75455000D02*
X151545000Y-76355000D01*
%TO.N,/PWM_6*%
X145715001Y-72784999D02*
X143300000Y-75200000D01*
X156800000Y-72700000D02*
X145715001Y-72784999D01*
X156800000Y-72700000D02*
X156700000Y-72700000D01*
X167400000Y-67500000D02*
X177460000Y-67500000D01*
X163600000Y-71300000D02*
X167400000Y-67500000D01*
X158200000Y-71300000D02*
X163600000Y-71300000D01*
X177460000Y-67500000D02*
X177810000Y-67850000D01*
X156800000Y-72700000D02*
X158200000Y-71300000D01*
%TO.N,/PWM_5*%
X147900000Y-71800000D02*
X143300000Y-71800000D01*
X149400000Y-69200000D02*
X149400000Y-70300000D01*
X149400000Y-70300000D02*
X147900000Y-71800000D01*
X150900000Y-67700000D02*
X149400000Y-69200000D01*
X163900000Y-67700000D02*
X150900000Y-67700000D01*
X165200000Y-66700000D02*
X163900000Y-67700000D01*
X179000000Y-66700000D02*
X165200000Y-66700000D01*
X180360000Y-66720000D02*
X179000000Y-66700000D01*
D28*
%TO.N,+12V*%
X146100000Y-59440000D02*
X146260000Y-59440000D01*
X146100000Y-58500000D02*
X146100000Y-59440000D01*
D27*
X151550010Y-59350010D02*
X151600000Y-59400000D01*
X151550010Y-58249990D02*
X151550010Y-59350010D01*
D28*
X187100000Y-61980000D02*
X186980000Y-61980000D01*
X146350010Y-58249990D02*
X146100000Y-58500000D01*
X183249990Y-58249990D02*
X146350010Y-58249990D01*
X186980000Y-61980000D02*
X183249990Y-58249990D01*
D27*
X192500000Y-78187500D02*
X192162500Y-77850000D01*
X192500000Y-78187500D02*
X192500000Y-79100000D01*
X192500000Y-79100000D02*
X192350000Y-79250000D01*
X187450000Y-79250000D02*
X187050000Y-78850000D01*
X192350000Y-79250000D02*
X187450000Y-79250000D01*
D28*
%TO.N,+5V*%
X135350000Y-97570000D02*
X135220000Y-97570000D01*
X135350000Y-97570000D02*
X137380000Y-99600000D01*
X144660000Y-99600000D02*
X146690000Y-97570000D01*
X137380000Y-99600000D02*
X144660000Y-99600000D01*
D27*
X138987500Y-61162500D02*
X138825000Y-61000000D01*
D28*
X144497500Y-61360000D02*
X144300000Y-61162500D01*
X146100000Y-61360000D02*
X144497500Y-61360000D01*
X139212500Y-61162500D02*
X138825000Y-61550000D01*
X144300000Y-61162500D02*
X139212500Y-61162500D01*
X138825000Y-72575000D02*
X138300000Y-73100000D01*
X138825000Y-61550000D02*
X138825000Y-72575000D01*
X124000000Y-79500000D02*
X126834989Y-82334989D01*
X138300000Y-73100000D02*
X127800000Y-73100000D01*
X125459988Y-95248178D02*
X130131810Y-99920000D01*
X127800000Y-73100000D02*
X124000000Y-76900000D01*
X124000000Y-76900000D02*
X124000000Y-79500000D01*
X130131810Y-99920000D02*
X133000000Y-99920000D01*
X133000000Y-99920000D02*
X135350000Y-97570000D01*
X126834989Y-82334989D02*
X126834989Y-90251823D01*
X126834989Y-90251823D02*
X125459988Y-91626824D01*
X125459988Y-91626824D02*
X125459988Y-95248178D01*
D27*
%TO.N,/TWI_SCL*%
X141610000Y-97570000D02*
X141610000Y-90890000D01*
X141610000Y-90890000D02*
X144000000Y-88500000D01*
X144000000Y-88500000D02*
X144000000Y-85000000D01*
X144000000Y-85000000D02*
X144000000Y-85000000D01*
%TO.N,/TWI_SDA*%
X145250000Y-85000000D02*
X145250000Y-85000000D01*
X145000000Y-90600000D02*
X145250000Y-85000000D01*
X142325000Y-94250000D02*
X145000000Y-90600000D01*
X142350000Y-96050000D02*
X142325000Y-94250000D01*
X144150000Y-97570000D02*
X142350000Y-96050000D01*
%TO.N,/RESET*%
X143714998Y-81200000D02*
X138000000Y-86914998D01*
X146450000Y-81200000D02*
X143714998Y-81200000D01*
X138000000Y-92380000D02*
X132810000Y-97570000D01*
X138000000Y-86914998D02*
X138000000Y-92380000D01*
%TO.N,/SW6*%
X156140000Y-69610000D02*
X153884999Y-71915001D01*
X162640000Y-69610000D02*
X156140000Y-69610000D01*
X153884999Y-71915001D02*
X153800000Y-72000000D01*
X153884999Y-71915001D02*
X153700000Y-72100000D01*
X150400000Y-72100000D02*
X150200000Y-71900000D01*
X153700000Y-72100000D02*
X150400000Y-72100000D01*
%TO.N,/PWR_EN*%
X160080000Y-65980000D02*
X162640000Y-65980000D01*
X160080000Y-65980000D02*
X156140000Y-65980000D01*
X156140000Y-65980000D02*
X156140000Y-65340000D01*
X147700000Y-70900000D02*
X147700000Y-67900000D01*
X149180000Y-59440000D02*
X148100000Y-59440000D01*
X149820000Y-60080000D02*
X149180000Y-59440000D01*
X149660000Y-65940000D02*
X147700000Y-67900000D01*
X149820000Y-65940000D02*
X149660000Y-65940000D01*
X153640000Y-65890000D02*
X153714649Y-65964649D01*
X153714649Y-65964649D02*
X156140000Y-65980000D01*
X149820000Y-65940000D02*
X153714649Y-65964649D01*
X153640000Y-61730000D02*
X153640000Y-61090000D01*
X153180000Y-60630000D02*
X149820000Y-60630000D01*
X153640000Y-61090000D02*
X153180000Y-60630000D01*
X149820000Y-60630000D02*
X149820000Y-65940000D01*
X149820000Y-60080000D02*
X149820000Y-60630000D01*
%TO.N,Net-(D1-Pad1)*%
X136775000Y-59512500D02*
X137087500Y-59200000D01*
X136775000Y-61000000D02*
X136775000Y-59512500D01*
%TO.N,Net-(F1-Pad1)*%
X187050000Y-79950000D02*
X187050000Y-80750000D01*
X187300000Y-79700000D02*
X187050000Y-79950000D01*
X192400000Y-79700000D02*
X187300000Y-79700000D01*
X192500000Y-79800000D02*
X192400000Y-79700000D01*
X192500000Y-80612500D02*
X192500000Y-79800000D01*
%TO.N,Net-(R3-Pad1)*%
X162640000Y-61480000D02*
X156140000Y-61480000D01*
X155875000Y-61215000D02*
X156140000Y-61480000D01*
X155945000Y-61675000D02*
X155750000Y-61480000D01*
X155835000Y-61175000D02*
X156140000Y-61480000D01*
X153800000Y-59400000D02*
X154060000Y-59400000D01*
X156140000Y-61480000D02*
X156140000Y-59590000D01*
X155950000Y-59400000D02*
X153800000Y-59400000D01*
X156140000Y-59590000D02*
X155950000Y-59400000D01*
%TO.N,/SW_A1*%
X144600000Y-94250000D02*
X144600000Y-94100000D01*
X144600000Y-94250000D02*
X144650000Y-94250000D01*
X127948998Y-77490000D02*
X127410000Y-77490000D01*
X127410000Y-78000000D02*
X127410000Y-76310000D01*
X127410000Y-76310000D02*
X127620000Y-76100000D01*
X127620000Y-76100000D02*
X144400000Y-76100000D01*
X144400000Y-76100000D02*
X145200000Y-75300000D01*
X145200000Y-75300000D02*
X145200000Y-75300000D01*
X138200000Y-93500000D02*
X138200000Y-93500000D01*
X140050000Y-93500000D02*
X140800000Y-94250000D01*
X138000000Y-93500000D02*
X140050000Y-93500000D01*
X135600000Y-93500000D02*
X133300000Y-95800000D01*
X126034999Y-95010001D02*
X126034999Y-91865001D01*
X133300000Y-95800000D02*
X126824998Y-95800000D01*
X126824998Y-95800000D02*
X126034999Y-95010001D01*
X127410000Y-90490000D02*
X127410000Y-78000000D01*
X126034999Y-91865001D02*
X127410000Y-90490000D01*
%TO.N,/SW_B1*%
X149100000Y-85000000D02*
X149100000Y-85000000D01*
X132410000Y-77490000D02*
X132490000Y-77490000D01*
X149440000Y-77540000D02*
X149440000Y-80760000D01*
X149440000Y-80760000D02*
X149000000Y-81200000D01*
X149000000Y-81200000D02*
X149000000Y-81200000D01*
X149000000Y-81200000D02*
X147900000Y-81200000D01*
X147900000Y-81200000D02*
X147000000Y-80300000D01*
X147000000Y-80300000D02*
X141900000Y-80300000D01*
X141900000Y-80300000D02*
X138100000Y-84100000D01*
X138100000Y-84100000D02*
X134500000Y-84100000D01*
X134500000Y-84100000D02*
X134500000Y-84100000D01*
X132400000Y-78010000D02*
X132410000Y-78000000D01*
X132400000Y-84100000D02*
X132400000Y-78010000D01*
%TO.N,/SW_B2*%
X132410000Y-94230000D02*
X132360000Y-94280000D01*
X137175000Y-94280000D02*
X139505000Y-94280000D01*
X139505000Y-94280000D02*
X140862500Y-95637500D01*
X140862500Y-95637500D02*
X140900000Y-95675000D01*
X147962500Y-95887500D02*
X149600000Y-94250000D01*
X143287500Y-95887500D02*
X147962500Y-95887500D01*
X149600000Y-94250000D02*
X149600000Y-89300000D01*
X149600000Y-89300000D02*
X147600000Y-87300000D01*
X147600000Y-87300000D02*
X147600000Y-85000000D01*
X147600000Y-85000000D02*
X147600000Y-85000000D01*
%TO.N,/SW_A2*%
X146550000Y-75250000D02*
X146600000Y-75200000D01*
X144440000Y-77360000D02*
X144440000Y-77540000D01*
X146550000Y-75250000D02*
X144440000Y-77360000D01*
X133200000Y-84000000D02*
X140334998Y-77540000D01*
X133200000Y-85700000D02*
X133200000Y-84000000D01*
X140334998Y-77540000D02*
X144440000Y-77540000D01*
X127360000Y-91540000D02*
X133200000Y-85700000D01*
X127360000Y-93750000D02*
X127360000Y-91540000D01*
%TO.N,/SENSE*%
X149000000Y-75300000D02*
X149000000Y-75300000D01*
X149730000Y-75300000D02*
X149000000Y-75300000D01*
X153150000Y-78720000D02*
X149730000Y-75300000D01*
X161790000Y-78750000D02*
X161820000Y-78720000D01*
X161790000Y-79160000D02*
X161790000Y-78750000D01*
X161820000Y-78720000D02*
X153150000Y-78720000D01*
X165280000Y-78720000D02*
X161820000Y-78720000D01*
X170300000Y-78700000D02*
X165280000Y-78720000D01*
X184800000Y-79800000D02*
X185050000Y-79800000D01*
X185050000Y-79800000D02*
X185050000Y-80450000D01*
X184550000Y-80950000D02*
X184300000Y-80950000D01*
X185050000Y-80450000D02*
X184550000Y-80950000D01*
%TD*%
D29*
%TO.N,+12V*%
X195340001Y-78850005D02*
X188242623Y-78913005D01*
X188239930Y-78913057D01*
X188138072Y-78916122D01*
X188138072Y-78450000D01*
X188125812Y-78325518D01*
X188089502Y-78205820D01*
X188030537Y-78095506D01*
X187951185Y-77998815D01*
X187854494Y-77919463D01*
X187744180Y-77860498D01*
X187624482Y-77824188D01*
X187500000Y-77811928D01*
X186600000Y-77811928D01*
X186475518Y-77824188D01*
X186355820Y-77860498D01*
X186245506Y-77919463D01*
X186148815Y-77998815D01*
X186069463Y-78095506D01*
X186010498Y-78205820D01*
X185974188Y-78325518D01*
X185961928Y-78450000D01*
X185961928Y-78961905D01*
X185951185Y-78948815D01*
X185854494Y-78869463D01*
X185744180Y-78810498D01*
X185624482Y-78774188D01*
X185500000Y-78761928D01*
X184600000Y-78761928D01*
X184475518Y-78774188D01*
X184355820Y-78810498D01*
X184245506Y-78869463D01*
X184148815Y-78948815D01*
X184069463Y-79045506D01*
X184010498Y-79155820D01*
X183974188Y-79275518D01*
X183961928Y-79400000D01*
X183961928Y-79969758D01*
X183809744Y-80032795D01*
X183640226Y-80146063D01*
X183496063Y-80290226D01*
X183382795Y-80459744D01*
X183304774Y-80648102D01*
X183265000Y-80848061D01*
X183265000Y-81051939D01*
X183304774Y-81251898D01*
X183382795Y-81440256D01*
X183496063Y-81609774D01*
X183549207Y-81662918D01*
X181610126Y-81661000D01*
X181585347Y-81663416D01*
X181561515Y-81670619D01*
X181539547Y-81682334D01*
X181520286Y-81698109D01*
X181504473Y-81717338D01*
X181492715Y-81739283D01*
X181485465Y-81763100D01*
X181483018Y-81790126D01*
X181497988Y-82684356D01*
X181468007Y-85462630D01*
X181468041Y-85467216D01*
X181487998Y-86255007D01*
X181478000Y-93578327D01*
X181480407Y-93603106D01*
X181487601Y-93626941D01*
X181499307Y-93648913D01*
X181515075Y-93668180D01*
X181534298Y-93684000D01*
X181556239Y-93695766D01*
X181580054Y-93703026D01*
X181606035Y-93705496D01*
X195340001Y-93593604D01*
X195340001Y-100340000D01*
X172579775Y-100340000D01*
X172628388Y-97263128D01*
X190095000Y-97263128D01*
X190095000Y-97736872D01*
X190187423Y-98201513D01*
X190368716Y-98639195D01*
X190631914Y-99033098D01*
X190966902Y-99368086D01*
X191360805Y-99631284D01*
X191798487Y-99812577D01*
X192263128Y-99905000D01*
X192736872Y-99905000D01*
X193201513Y-99812577D01*
X193639195Y-99631284D01*
X194033098Y-99368086D01*
X194368086Y-99033098D01*
X194631284Y-98639195D01*
X194812577Y-98201513D01*
X194905000Y-97736872D01*
X194905000Y-97263128D01*
X194812577Y-96798487D01*
X194631284Y-96360805D01*
X194368086Y-95966902D01*
X194033098Y-95631914D01*
X193639195Y-95368716D01*
X193201513Y-95187423D01*
X192736872Y-95095000D01*
X192263128Y-95095000D01*
X191798487Y-95187423D01*
X191360805Y-95368716D01*
X190966902Y-95631914D01*
X190631914Y-95966902D01*
X190368716Y-96360805D01*
X190187423Y-96798487D01*
X190095000Y-97263128D01*
X172628388Y-97263128D01*
X172632278Y-97016964D01*
X172924042Y-97075000D01*
X173255958Y-97075000D01*
X173581496Y-97010246D01*
X173888147Y-96883228D01*
X174164125Y-96698825D01*
X174398825Y-96464125D01*
X174583228Y-96188147D01*
X174710246Y-95881496D01*
X174775000Y-95555958D01*
X174775000Y-95224042D01*
X174710246Y-94898504D01*
X174583228Y-94591853D01*
X174398825Y-94315875D01*
X174164125Y-94081175D01*
X173888147Y-93896772D01*
X173581496Y-93769754D01*
X173255958Y-93705000D01*
X172924042Y-93705000D01*
X172683850Y-93752777D01*
X172729484Y-90864506D01*
X172727436Y-90839694D01*
X172727000Y-90838171D01*
X172727000Y-89932741D01*
X172822205Y-89790256D01*
X172900226Y-89601898D01*
X172940000Y-89401939D01*
X172940000Y-89198061D01*
X172900226Y-88998102D01*
X172822205Y-88809744D01*
X172727000Y-88667259D01*
X172727000Y-87000000D01*
X172725855Y-86982985D01*
X171251811Y-76080057D01*
X171241617Y-75619268D01*
X180565000Y-75619268D01*
X180565000Y-75980732D01*
X180635518Y-76335250D01*
X180773844Y-76669199D01*
X180974662Y-76969744D01*
X181230256Y-77225338D01*
X181530801Y-77426156D01*
X181864750Y-77564482D01*
X182219268Y-77635000D01*
X182580732Y-77635000D01*
X182935250Y-77564482D01*
X183269199Y-77426156D01*
X183569744Y-77225338D01*
X183825338Y-76969744D01*
X184026156Y-76669199D01*
X184164482Y-76335250D01*
X184235000Y-75980732D01*
X184235000Y-75619268D01*
X184164482Y-75264750D01*
X184026156Y-74930801D01*
X183825338Y-74630256D01*
X183569744Y-74374662D01*
X183269199Y-74173844D01*
X182935250Y-74035518D01*
X182580732Y-73965000D01*
X182219268Y-73965000D01*
X181864750Y-74035518D01*
X181530801Y-74173844D01*
X181230256Y-74374662D01*
X180974662Y-74630256D01*
X180773844Y-74930801D01*
X180635518Y-75264750D01*
X180565000Y-75619268D01*
X171241617Y-75619268D01*
X171177140Y-72704934D01*
X171226370Y-72212637D01*
X171226997Y-72200920D01*
X171232132Y-71492317D01*
X171270000Y-71301939D01*
X171270000Y-71098061D01*
X171236219Y-70928233D01*
X171251074Y-68878299D01*
X180873698Y-68976993D01*
X180898498Y-68974807D01*
X180922395Y-68967825D01*
X180944471Y-68956315D01*
X180963877Y-68940719D01*
X180979867Y-68921637D01*
X180991828Y-68899802D01*
X180999299Y-68876053D01*
X181001981Y-68852173D01*
X181024793Y-67518918D01*
X181163937Y-67379774D01*
X181277205Y-67210256D01*
X181355226Y-67021898D01*
X181395000Y-66821939D01*
X181395000Y-66618061D01*
X181355226Y-66418102D01*
X181277205Y-66229744D01*
X181163937Y-66060226D01*
X181051673Y-65947962D01*
X181096365Y-63335925D01*
X181301853Y-63473228D01*
X181608504Y-63600246D01*
X181934042Y-63665000D01*
X182265958Y-63665000D01*
X182591496Y-63600246D01*
X182898147Y-63473228D01*
X183174125Y-63288825D01*
X183408825Y-63054125D01*
X183593228Y-62778147D01*
X183720246Y-62471496D01*
X183785000Y-62145958D01*
X183785000Y-61814042D01*
X183720246Y-61488504D01*
X183593228Y-61181853D01*
X183408825Y-60905875D01*
X183174125Y-60671175D01*
X182898147Y-60486772D01*
X182591496Y-60359754D01*
X182265958Y-60295000D01*
X181934042Y-60295000D01*
X181608504Y-60359754D01*
X181301853Y-60486772D01*
X181143303Y-60592712D01*
X181148908Y-60265098D01*
X190115000Y-60265098D01*
X190115000Y-60734902D01*
X190206654Y-61195679D01*
X190386440Y-61629721D01*
X190647450Y-62020349D01*
X190979651Y-62352550D01*
X191370279Y-62613560D01*
X191804321Y-62793346D01*
X192265098Y-62885000D01*
X192734902Y-62885000D01*
X193195679Y-62793346D01*
X193629721Y-62613560D01*
X194020349Y-62352550D01*
X194352550Y-62020349D01*
X194613560Y-61629721D01*
X194793346Y-61195679D01*
X194885000Y-60734902D01*
X194885000Y-60265098D01*
X194793346Y-59804321D01*
X194613560Y-59370279D01*
X194352550Y-58979651D01*
X194020349Y-58647450D01*
X193629721Y-58386440D01*
X193195679Y-58206654D01*
X192734902Y-58115000D01*
X192265098Y-58115000D01*
X191804321Y-58206654D01*
X191370279Y-58386440D01*
X190979651Y-58647450D01*
X190647450Y-58979651D01*
X190386440Y-59370279D01*
X190206654Y-59804321D01*
X190115000Y-60265098D01*
X181148908Y-60265098D01*
X181193482Y-57660000D01*
X195340000Y-57660000D01*
X195340001Y-78850005D01*
%TA.AperFunction,Conductor*%
D30*
G36*
X195340001Y-78850005D02*
G01*
X188242623Y-78913005D01*
X188239930Y-78913057D01*
X188138072Y-78916122D01*
X188138072Y-78450000D01*
X188125812Y-78325518D01*
X188089502Y-78205820D01*
X188030537Y-78095506D01*
X187951185Y-77998815D01*
X187854494Y-77919463D01*
X187744180Y-77860498D01*
X187624482Y-77824188D01*
X187500000Y-77811928D01*
X186600000Y-77811928D01*
X186475518Y-77824188D01*
X186355820Y-77860498D01*
X186245506Y-77919463D01*
X186148815Y-77998815D01*
X186069463Y-78095506D01*
X186010498Y-78205820D01*
X185974188Y-78325518D01*
X185961928Y-78450000D01*
X185961928Y-78961905D01*
X185951185Y-78948815D01*
X185854494Y-78869463D01*
X185744180Y-78810498D01*
X185624482Y-78774188D01*
X185500000Y-78761928D01*
X184600000Y-78761928D01*
X184475518Y-78774188D01*
X184355820Y-78810498D01*
X184245506Y-78869463D01*
X184148815Y-78948815D01*
X184069463Y-79045506D01*
X184010498Y-79155820D01*
X183974188Y-79275518D01*
X183961928Y-79400000D01*
X183961928Y-79969758D01*
X183809744Y-80032795D01*
X183640226Y-80146063D01*
X183496063Y-80290226D01*
X183382795Y-80459744D01*
X183304774Y-80648102D01*
X183265000Y-80848061D01*
X183265000Y-81051939D01*
X183304774Y-81251898D01*
X183382795Y-81440256D01*
X183496063Y-81609774D01*
X183549207Y-81662918D01*
X181610126Y-81661000D01*
X181585347Y-81663416D01*
X181561515Y-81670619D01*
X181539547Y-81682334D01*
X181520286Y-81698109D01*
X181504473Y-81717338D01*
X181492715Y-81739283D01*
X181485465Y-81763100D01*
X181483018Y-81790126D01*
X181497988Y-82684356D01*
X181468007Y-85462630D01*
X181468041Y-85467216D01*
X181487998Y-86255007D01*
X181478000Y-93578327D01*
X181480407Y-93603106D01*
X181487601Y-93626941D01*
X181499307Y-93648913D01*
X181515075Y-93668180D01*
X181534298Y-93684000D01*
X181556239Y-93695766D01*
X181580054Y-93703026D01*
X181606035Y-93705496D01*
X195340001Y-93593604D01*
X195340001Y-100340000D01*
X172579775Y-100340000D01*
X172628388Y-97263128D01*
X190095000Y-97263128D01*
X190095000Y-97736872D01*
X190187423Y-98201513D01*
X190368716Y-98639195D01*
X190631914Y-99033098D01*
X190966902Y-99368086D01*
X191360805Y-99631284D01*
X191798487Y-99812577D01*
X192263128Y-99905000D01*
X192736872Y-99905000D01*
X193201513Y-99812577D01*
X193639195Y-99631284D01*
X194033098Y-99368086D01*
X194368086Y-99033098D01*
X194631284Y-98639195D01*
X194812577Y-98201513D01*
X194905000Y-97736872D01*
X194905000Y-97263128D01*
X194812577Y-96798487D01*
X194631284Y-96360805D01*
X194368086Y-95966902D01*
X194033098Y-95631914D01*
X193639195Y-95368716D01*
X193201513Y-95187423D01*
X192736872Y-95095000D01*
X192263128Y-95095000D01*
X191798487Y-95187423D01*
X191360805Y-95368716D01*
X190966902Y-95631914D01*
X190631914Y-95966902D01*
X190368716Y-96360805D01*
X190187423Y-96798487D01*
X190095000Y-97263128D01*
X172628388Y-97263128D01*
X172632278Y-97016964D01*
X172924042Y-97075000D01*
X173255958Y-97075000D01*
X173581496Y-97010246D01*
X173888147Y-96883228D01*
X174164125Y-96698825D01*
X174398825Y-96464125D01*
X174583228Y-96188147D01*
X174710246Y-95881496D01*
X174775000Y-95555958D01*
X174775000Y-95224042D01*
X174710246Y-94898504D01*
X174583228Y-94591853D01*
X174398825Y-94315875D01*
X174164125Y-94081175D01*
X173888147Y-93896772D01*
X173581496Y-93769754D01*
X173255958Y-93705000D01*
X172924042Y-93705000D01*
X172683850Y-93752777D01*
X172729484Y-90864506D01*
X172727436Y-90839694D01*
X172727000Y-90838171D01*
X172727000Y-89932741D01*
X172822205Y-89790256D01*
X172900226Y-89601898D01*
X172940000Y-89401939D01*
X172940000Y-89198061D01*
X172900226Y-88998102D01*
X172822205Y-88809744D01*
X172727000Y-88667259D01*
X172727000Y-87000000D01*
X172725855Y-86982985D01*
X171251811Y-76080057D01*
X171241617Y-75619268D01*
X180565000Y-75619268D01*
X180565000Y-75980732D01*
X180635518Y-76335250D01*
X180773844Y-76669199D01*
X180974662Y-76969744D01*
X181230256Y-77225338D01*
X181530801Y-77426156D01*
X181864750Y-77564482D01*
X182219268Y-77635000D01*
X182580732Y-77635000D01*
X182935250Y-77564482D01*
X183269199Y-77426156D01*
X183569744Y-77225338D01*
X183825338Y-76969744D01*
X184026156Y-76669199D01*
X184164482Y-76335250D01*
X184235000Y-75980732D01*
X184235000Y-75619268D01*
X184164482Y-75264750D01*
X184026156Y-74930801D01*
X183825338Y-74630256D01*
X183569744Y-74374662D01*
X183269199Y-74173844D01*
X182935250Y-74035518D01*
X182580732Y-73965000D01*
X182219268Y-73965000D01*
X181864750Y-74035518D01*
X181530801Y-74173844D01*
X181230256Y-74374662D01*
X180974662Y-74630256D01*
X180773844Y-74930801D01*
X180635518Y-75264750D01*
X180565000Y-75619268D01*
X171241617Y-75619268D01*
X171177140Y-72704934D01*
X171226370Y-72212637D01*
X171226997Y-72200920D01*
X171232132Y-71492317D01*
X171270000Y-71301939D01*
X171270000Y-71098061D01*
X171236219Y-70928233D01*
X171251074Y-68878299D01*
X180873698Y-68976993D01*
X180898498Y-68974807D01*
X180922395Y-68967825D01*
X180944471Y-68956315D01*
X180963877Y-68940719D01*
X180979867Y-68921637D01*
X180991828Y-68899802D01*
X180999299Y-68876053D01*
X181001981Y-68852173D01*
X181024793Y-67518918D01*
X181163937Y-67379774D01*
X181277205Y-67210256D01*
X181355226Y-67021898D01*
X181395000Y-66821939D01*
X181395000Y-66618061D01*
X181355226Y-66418102D01*
X181277205Y-66229744D01*
X181163937Y-66060226D01*
X181051673Y-65947962D01*
X181096365Y-63335925D01*
X181301853Y-63473228D01*
X181608504Y-63600246D01*
X181934042Y-63665000D01*
X182265958Y-63665000D01*
X182591496Y-63600246D01*
X182898147Y-63473228D01*
X183174125Y-63288825D01*
X183408825Y-63054125D01*
X183593228Y-62778147D01*
X183720246Y-62471496D01*
X183785000Y-62145958D01*
X183785000Y-61814042D01*
X183720246Y-61488504D01*
X183593228Y-61181853D01*
X183408825Y-60905875D01*
X183174125Y-60671175D01*
X182898147Y-60486772D01*
X182591496Y-60359754D01*
X182265958Y-60295000D01*
X181934042Y-60295000D01*
X181608504Y-60359754D01*
X181301853Y-60486772D01*
X181143303Y-60592712D01*
X181148908Y-60265098D01*
X190115000Y-60265098D01*
X190115000Y-60734902D01*
X190206654Y-61195679D01*
X190386440Y-61629721D01*
X190647450Y-62020349D01*
X190979651Y-62352550D01*
X191370279Y-62613560D01*
X191804321Y-62793346D01*
X192265098Y-62885000D01*
X192734902Y-62885000D01*
X193195679Y-62793346D01*
X193629721Y-62613560D01*
X194020349Y-62352550D01*
X194352550Y-62020349D01*
X194613560Y-61629721D01*
X194793346Y-61195679D01*
X194885000Y-60734902D01*
X194885000Y-60265098D01*
X194793346Y-59804321D01*
X194613560Y-59370279D01*
X194352550Y-58979651D01*
X194020349Y-58647450D01*
X193629721Y-58386440D01*
X193195679Y-58206654D01*
X192734902Y-58115000D01*
X192265098Y-58115000D01*
X191804321Y-58206654D01*
X191370279Y-58386440D01*
X190979651Y-58647450D01*
X190647450Y-58979651D01*
X190386440Y-59370279D01*
X190206654Y-59804321D01*
X190115000Y-60265098D01*
X181148908Y-60265098D01*
X181193482Y-57660000D01*
X195340000Y-57660000D01*
X195340001Y-78850005D01*
G37*
%TD.AperFunction*%
%TD*%
D29*
%TO.N,GND*%
X149060000Y-60574758D02*
X149060000Y-60592667D01*
X149056323Y-60630000D01*
X149060000Y-60667333D01*
X149060001Y-64820726D01*
X146227000Y-64775032D01*
X146227000Y-62273072D01*
X146755000Y-62273072D01*
X146879482Y-62260812D01*
X146999180Y-62224502D01*
X147109494Y-62165537D01*
X147206185Y-62086185D01*
X147285537Y-61989494D01*
X147344502Y-61879180D01*
X147380812Y-61759482D01*
X147393072Y-61635000D01*
X147393072Y-61085000D01*
X147380812Y-60960518D01*
X147344502Y-60840820D01*
X147285537Y-60730506D01*
X147206185Y-60633815D01*
X147109494Y-60554463D01*
X147087956Y-60542951D01*
X149060000Y-60574758D01*
%TA.AperFunction,Conductor*%
D30*
G36*
X149060000Y-60574758D02*
G01*
X149060000Y-60592667D01*
X149056323Y-60630000D01*
X149060000Y-60667333D01*
X149060001Y-64820726D01*
X146227000Y-64775032D01*
X146227000Y-62273072D01*
X146755000Y-62273072D01*
X146879482Y-62260812D01*
X146999180Y-62224502D01*
X147109494Y-62165537D01*
X147206185Y-62086185D01*
X147285537Y-61989494D01*
X147344502Y-61879180D01*
X147380812Y-61759482D01*
X147393072Y-61635000D01*
X147393072Y-61085000D01*
X147380812Y-60960518D01*
X147344502Y-60840820D01*
X147285537Y-60730506D01*
X147206185Y-60633815D01*
X147109494Y-60554463D01*
X147087956Y-60542951D01*
X149060000Y-60574758D01*
G37*
%TD.AperFunction*%
%TD*%
D29*
%TO.N,Net-(F1-Pad2)*%
X191395797Y-84469059D02*
X191419874Y-84475395D01*
X191439864Y-84477000D01*
X195340001Y-84481173D01*
X195340001Y-92560806D01*
X182502307Y-92606548D01*
X182495500Y-88114088D01*
X182496450Y-86741429D01*
X186990000Y-86741429D01*
X186990000Y-87058571D01*
X187051871Y-87369620D01*
X187173237Y-87662621D01*
X187349431Y-87926315D01*
X187573685Y-88150569D01*
X187837379Y-88326763D01*
X188130380Y-88448129D01*
X188441429Y-88510000D01*
X188758571Y-88510000D01*
X189069620Y-88448129D01*
X189362621Y-88326763D01*
X189626315Y-88150569D01*
X189850569Y-87926315D01*
X190026763Y-87662621D01*
X190148129Y-87369620D01*
X190210000Y-87058571D01*
X190210000Y-86741429D01*
X190148129Y-86430380D01*
X190026763Y-86137379D01*
X189850569Y-85873685D01*
X189626315Y-85649431D01*
X189362621Y-85473237D01*
X189069620Y-85351871D01*
X188758571Y-85290000D01*
X188441429Y-85290000D01*
X188130380Y-85351871D01*
X187837379Y-85473237D01*
X187573685Y-85649431D01*
X187349431Y-85873685D01*
X187173237Y-86137379D01*
X187051871Y-86430380D01*
X186990000Y-86741429D01*
X182496450Y-86741429D01*
X182498912Y-83185000D01*
X187937186Y-83185000D01*
X191395797Y-84469059D01*
%TA.AperFunction,Conductor*%
D30*
G36*
X191395797Y-84469059D02*
G01*
X191419874Y-84475395D01*
X191439864Y-84477000D01*
X195340001Y-84481173D01*
X195340001Y-92560806D01*
X182502307Y-92606548D01*
X182495500Y-88114088D01*
X182496450Y-86741429D01*
X186990000Y-86741429D01*
X186990000Y-87058571D01*
X187051871Y-87369620D01*
X187173237Y-87662621D01*
X187349431Y-87926315D01*
X187573685Y-88150569D01*
X187837379Y-88326763D01*
X188130380Y-88448129D01*
X188441429Y-88510000D01*
X188758571Y-88510000D01*
X189069620Y-88448129D01*
X189362621Y-88326763D01*
X189626315Y-88150569D01*
X189850569Y-87926315D01*
X190026763Y-87662621D01*
X190148129Y-87369620D01*
X190210000Y-87058571D01*
X190210000Y-86741429D01*
X190148129Y-86430380D01*
X190026763Y-86137379D01*
X189850569Y-85873685D01*
X189626315Y-85649431D01*
X189362621Y-85473237D01*
X189069620Y-85351871D01*
X188758571Y-85290000D01*
X188441429Y-85290000D01*
X188130380Y-85351871D01*
X187837379Y-85473237D01*
X187573685Y-85649431D01*
X187349431Y-85873685D01*
X187173237Y-86137379D01*
X187051871Y-86430380D01*
X186990000Y-86741429D01*
X182496450Y-86741429D01*
X182498912Y-83185000D01*
X187937186Y-83185000D01*
X191395797Y-84469059D01*
G37*
%TD.AperFunction*%
%TD*%
D29*
%TO.N,Net-(F1-Pad1)*%
X195340001Y-83665690D02*
X193018105Y-83648020D01*
X191925215Y-83603107D01*
X191920000Y-83603000D01*
X191465142Y-83603000D01*
X188086660Y-82210832D01*
X188083433Y-81405533D01*
X188089502Y-81394180D01*
X188125812Y-81274482D01*
X188138072Y-81150000D01*
X188138072Y-80350000D01*
X188125812Y-80225518D01*
X188089502Y-80105820D01*
X188078141Y-80084565D01*
X188077842Y-80010000D01*
X192312678Y-80010000D01*
X192350000Y-80013676D01*
X192387322Y-80010000D01*
X192387333Y-80010000D01*
X192498986Y-79999003D01*
X192603851Y-79967193D01*
X193738903Y-79976995D01*
X193742433Y-79976977D01*
X195340001Y-79946372D01*
X195340001Y-83665690D01*
%TA.AperFunction,Conductor*%
D30*
G36*
X195340001Y-83665690D02*
G01*
X193018105Y-83648020D01*
X191925215Y-83603107D01*
X191920000Y-83603000D01*
X191465142Y-83603000D01*
X188086660Y-82210832D01*
X188083433Y-81405533D01*
X188089502Y-81394180D01*
X188125812Y-81274482D01*
X188138072Y-81150000D01*
X188138072Y-80350000D01*
X188125812Y-80225518D01*
X188089502Y-80105820D01*
X188078141Y-80084565D01*
X188077842Y-80010000D01*
X192312678Y-80010000D01*
X192350000Y-80013676D01*
X192387322Y-80010000D01*
X192387333Y-80010000D01*
X192498986Y-79999003D01*
X192603851Y-79967193D01*
X193738903Y-79976995D01*
X193742433Y-79976977D01*
X195340001Y-79946372D01*
X195340001Y-83665690D01*
G37*
%TD.AperFunction*%
%TD*%
M02*
