M48
; DRILL file {KiCad (5.1.9)-1} date 01/08/21 22:51:27
; FORMAT={-:-/ absolute / inch / decimal}
; #@! TF.CreationDate,2021-01-08T22:51:27-05:00
; #@! TF.GenerationSoftware,Kicad,Pcbnew,(5.1.9)-1
; #@! TF.FileFunction,Plated,1,2,PTH
FMAT,2
INCH
T1C0.0157
T2C0.0394
T3C0.0433
T4C0.0472
T5C0.0512
T6C0.0551
T7C0.0827
T8C0.1083
%
G90
G05
T1
X5.2126Y-3.311
X5.2953Y-3.311
X5.3386Y-3.6811
X5.4006Y-3.7118
X5.4331Y-3.6811
X5.4449Y-2.878
X5.5197Y-2.3346
X5.5433Y-3.7106
X5.5458Y-3.7653
X5.6299Y-3.3346
X5.6412Y-3.7751
X5.6417Y-2.8268
X5.6417Y-2.9606
X5.6693Y-3.3465
X5.685Y-2.2913
X5.7165Y-2.9646
X5.7185Y-3.3465
X5.7657Y-3.1969
X5.7697Y-2.9626
X5.7756Y-2.4646
X5.7756Y-2.5
X5.7756Y-2.5354
X5.811Y-2.4646
X5.811Y-2.5
X5.811Y-2.5354
X5.811Y-3.3465
X5.815Y-2.7913
X5.8465Y-2.4646
X5.8465Y-2.5
X5.8465Y-2.5354
X5.8661Y-2.9646
X5.8661Y-3.1969
X5.8701Y-3.3465
X5.9134Y-2.8307
X5.9163Y-3.1978
X5.9646Y-3.2008
X5.9663Y-2.9707
X5.9701Y-2.4878
X6.0157Y-2.9724
X6.063Y-3.2441
X6.2795Y-3.5079
X6.378Y-3.5079
X6.4256Y-3.1949
X6.6024Y-2.8031
X6.6693Y-3.5443
X6.7022Y-2.8031
X6.7047Y-3.0984
X6.7679Y-3.5157
X7.0004Y-2.6713
X7.1008Y-2.6268
X7.2559Y-3.187
T2
X5.0142Y-3.6909
X5.0161Y-3.0709
X5.1126Y-3.6909
X5.1146Y-3.0709
X5.1287Y-3.8413
X5.211Y-3.6909
X5.213Y-3.0709
X5.2287Y-3.8413
X5.3287Y-3.8413
X5.4752Y-3.8413
X5.5752Y-3.8413
X5.6752Y-3.8413
X5.6866Y-3.0528
X5.6929Y-3.7106
X5.7752Y-3.8413
X5.785Y-3.0528
X5.7913Y-3.7106
X5.8835Y-3.0528
X5.8898Y-3.7106
T3
X6.1472Y-2.4205
X6.1472Y-2.5976
X6.1472Y-2.7406
X6.1472Y-2.9177
X6.4031Y-2.4205
X6.4031Y-2.5976
X6.4031Y-2.7406
X6.4031Y-2.9177
T4
X7.1811Y-2.9843
X7.1811Y-3.1811
T5
X7.2283Y-3.4213
X7.4252Y-3.4213
T6
X6.224Y-3.7555
X6.4209Y-3.7555
X6.5787Y-2.4402
X6.6177Y-3.7555
X6.7756Y-2.4402
X6.8146Y-3.7555
X6.9724Y-2.4402
X7.0114Y-3.7555
X7.1693Y-2.4402
X7.3661Y-2.4402
T8
X4.9213Y-3.8583
X4.9409Y-2.3819
X7.5787Y-2.3819
X7.5787Y-3.8386
T7
G00X4.8921Y-3.4035
M15
G01X4.8921Y-3.3878
M16
G05
G00X4.8941Y-2.7835
M15
G01X4.8941Y-2.7677
M16
G05
G00X5.3134Y-3.4035
M15
G01X5.3134Y-3.3878
M16
G05
G00X5.3154Y-2.7835
M15
G01X5.3154Y-2.7677
M16
G05
G00X5.5646Y-2.7654
M15
G01X5.5646Y-2.7496
M16
G05
G00X5.5709Y-3.4232
M15
G01X5.5709Y-3.4075
M16
G05
G00X5.9858Y-2.7654
M15
G01X5.9858Y-2.7496
M16
G05
G00X5.9921Y-3.4232
M15
G01X5.9921Y-3.4075
M16
G05
T0
M30
