%TF.GenerationSoftware,KiCad,Pcbnew,(5.1.9)-1*%
%TF.CreationDate,2021-01-08T22:51:15-05:00*%
%TF.ProjectId,rgb,7267622e-6b69-4636-9164-5f7063625858,rev?*%
%TF.SameCoordinates,Original*%
%TF.FileFunction,Copper,L2,Bot*%
%TF.FilePolarity,Positive*%
%FSLAX46Y46*%
G04 Gerber Fmt 4.6, Leading zero omitted, Abs format (unit mm)*
G04 Created by KiCad (PCBNEW (5.1.9)-1) date 2021-01-08 22:51:15*
%MOMM*%
%LPD*%
G01*
G04 APERTURE LIST*
%TA.AperFunction,ComponentPad*%
%ADD10C,2.400000*%
%TD*%
%TA.AperFunction,ComponentPad*%
%ADD11R,2.400000X2.400000*%
%TD*%
%TA.AperFunction,ComponentPad*%
%ADD12R,2.000000X2.000000*%
%TD*%
%TA.AperFunction,ComponentPad*%
%ADD13R,2.500000X3.000000*%
%TD*%
%TA.AperFunction,ComponentPad*%
%ADD14C,2.000000*%
%TD*%
%TA.AperFunction,SMDPad,CuDef*%
%ADD15R,0.800000X1.750000*%
%TD*%
%TA.AperFunction,ComponentPad*%
%ADD16C,1.950000*%
%TD*%
%TA.AperFunction,ComponentPad*%
%ADD17R,1.950000X1.950000*%
%TD*%
%TA.AperFunction,ComponentPad*%
%ADD18C,2.100000*%
%TD*%
%TA.AperFunction,ComponentPad*%
%ADD19R,2.100000X2.100000*%
%TD*%
%TA.AperFunction,ComponentPad*%
%ADD20O,1.700000X1.700000*%
%TD*%
%TA.AperFunction,ComponentPad*%
%ADD21R,1.700000X1.700000*%
%TD*%
%TA.AperFunction,SMDPad,CuDef*%
%ADD22R,0.600000X2.050000*%
%TD*%
%TA.AperFunction,ViaPad*%
%ADD23C,3.500000*%
%TD*%
%TA.AperFunction,ViaPad*%
%ADD24C,3.540000*%
%TD*%
%TA.AperFunction,ViaPad*%
%ADD25C,0.800000*%
%TD*%
%TA.AperFunction,Conductor*%
%ADD26C,0.250000*%
%TD*%
%TA.AperFunction,Conductor*%
%ADD27C,0.500000*%
%TD*%
%TA.AperFunction,Conductor*%
%ADD28C,0.254000*%
%TD*%
%TA.AperFunction,Conductor*%
%ADD29C,0.100000*%
%TD*%
G04 APERTURE END LIST*
D10*
%TO.P,C1,2*%
%TO.N,GND*%
X182400000Y-75800000D03*
D11*
%TO.P,C1,1*%
%TO.N,+12V*%
X182400000Y-80800000D03*
%TD*%
D12*
%TO.P,SW5,A*%
%TO.N,/SW_A2*%
X127360000Y-93750000D03*
D13*
%TO.P,SW5,MP*%
%TO.N,N/C*%
X134960000Y-86250000D03*
X124260000Y-86250000D03*
D14*
%TO.P,SW5,C*%
%TO.N,GND*%
X129860000Y-93750000D03*
%TO.P,SW5,B*%
%TO.N,/SW_B2*%
X132360000Y-93750000D03*
%TD*%
%TO.P,Q4,G2*%
%TO.N,/PWM_8*%
%TA.AperFunction,SMDPad,CuDef*%
G36*
G01*
X167895000Y-70475000D02*
X167495000Y-70475000D01*
G75*
G02*
X167295000Y-70275000I0J200000D01*
G01*
X167295000Y-68925000D01*
G75*
G02*
X167495000Y-68725000I200000J0D01*
G01*
X167895000Y-68725000D01*
G75*
G02*
X168095000Y-68925000I0J-200000D01*
G01*
X168095000Y-70275000D01*
G75*
G02*
X167895000Y-70475000I-200000J0D01*
G01*
G37*
%TD.AperFunction*%
%TO.P,Q4,S2*%
%TO.N,GND*%
%TA.AperFunction,SMDPad,CuDef*%
G36*
G01*
X169165000Y-70435000D02*
X168765000Y-70435000D01*
G75*
G02*
X168565000Y-70235000I0J200000D01*
G01*
X168565000Y-68885000D01*
G75*
G02*
X168765000Y-68685000I200000J0D01*
G01*
X169165000Y-68685000D01*
G75*
G02*
X169365000Y-68885000I0J-200000D01*
G01*
X169365000Y-70235000D01*
G75*
G02*
X169165000Y-70435000I-200000J0D01*
G01*
G37*
%TD.AperFunction*%
%TO.P,Q4,G1*%
%TO.N,/PWM_7*%
%TA.AperFunction,SMDPad,CuDef*%
G36*
G01*
X170435000Y-70475000D02*
X170035000Y-70475000D01*
G75*
G02*
X169835000Y-70275000I0J200000D01*
G01*
X169835000Y-68925000D01*
G75*
G02*
X170035000Y-68725000I200000J0D01*
G01*
X170435000Y-68725000D01*
G75*
G02*
X170635000Y-68925000I0J-200000D01*
G01*
X170635000Y-70275000D01*
G75*
G02*
X170435000Y-70475000I-200000J0D01*
G01*
G37*
%TD.AperFunction*%
D15*
%TO.P,Q4,S1*%
%TO.N,GND*%
X171505000Y-69600000D03*
%TO.P,Q4,D1*%
%TO.N,/DRAIN_7*%
%TA.AperFunction,SMDPad,CuDef*%
G36*
G01*
X171705000Y-65275000D02*
X171305000Y-65275000D01*
G75*
G02*
X171105000Y-65075000I0J200000D01*
G01*
X171105000Y-63725000D01*
G75*
G02*
X171305000Y-63525000I200000J0D01*
G01*
X171705000Y-63525000D01*
G75*
G02*
X171905000Y-63725000I0J-200000D01*
G01*
X171905000Y-65075000D01*
G75*
G02*
X171705000Y-65275000I-200000J0D01*
G01*
G37*
%TD.AperFunction*%
%TO.P,Q4,D2*%
%TO.N,/DRAIN_8*%
%TA.AperFunction,SMDPad,CuDef*%
G36*
G01*
X169165000Y-65275000D02*
X168765000Y-65275000D01*
G75*
G02*
X168565000Y-65075000I0J200000D01*
G01*
X168565000Y-63725000D01*
G75*
G02*
X168765000Y-63525000I200000J0D01*
G01*
X169165000Y-63525000D01*
G75*
G02*
X169365000Y-63725000I0J-200000D01*
G01*
X169365000Y-65075000D01*
G75*
G02*
X169165000Y-65275000I-200000J0D01*
G01*
G37*
%TD.AperFunction*%
%TA.AperFunction,SMDPad,CuDef*%
G36*
G01*
X167895000Y-65275000D02*
X167495000Y-65275000D01*
G75*
G02*
X167295000Y-65075000I0J200000D01*
G01*
X167295000Y-63725000D01*
G75*
G02*
X167495000Y-63525000I200000J0D01*
G01*
X167895000Y-63525000D01*
G75*
G02*
X168095000Y-63725000I0J-200000D01*
G01*
X168095000Y-65075000D01*
G75*
G02*
X167895000Y-65275000I-200000J0D01*
G01*
G37*
%TD.AperFunction*%
%TO.P,Q4,D1*%
%TO.N,/DRAIN_7*%
%TA.AperFunction,SMDPad,CuDef*%
G36*
G01*
X170435000Y-65275000D02*
X170035000Y-65275000D01*
G75*
G02*
X169835000Y-65075000I0J200000D01*
G01*
X169835000Y-63725000D01*
G75*
G02*
X170035000Y-63525000I200000J0D01*
G01*
X170435000Y-63525000D01*
G75*
G02*
X170635000Y-63725000I0J-200000D01*
G01*
X170635000Y-65075000D01*
G75*
G02*
X170435000Y-65275000I-200000J0D01*
G01*
G37*
%TD.AperFunction*%
%TD*%
%TO.P,Q3,G2*%
%TO.N,/PWM_6*%
%TA.AperFunction,SMDPad,CuDef*%
G36*
G01*
X177995000Y-70575000D02*
X177595000Y-70575000D01*
G75*
G02*
X177395000Y-70375000I0J200000D01*
G01*
X177395000Y-69025000D01*
G75*
G02*
X177595000Y-68825000I200000J0D01*
G01*
X177995000Y-68825000D01*
G75*
G02*
X178195000Y-69025000I0J-200000D01*
G01*
X178195000Y-70375000D01*
G75*
G02*
X177995000Y-70575000I-200000J0D01*
G01*
G37*
%TD.AperFunction*%
%TO.P,Q3,S2*%
%TO.N,GND*%
%TA.AperFunction,SMDPad,CuDef*%
G36*
G01*
X179265000Y-70535000D02*
X178865000Y-70535000D01*
G75*
G02*
X178665000Y-70335000I0J200000D01*
G01*
X178665000Y-68985000D01*
G75*
G02*
X178865000Y-68785000I200000J0D01*
G01*
X179265000Y-68785000D01*
G75*
G02*
X179465000Y-68985000I0J-200000D01*
G01*
X179465000Y-70335000D01*
G75*
G02*
X179265000Y-70535000I-200000J0D01*
G01*
G37*
%TD.AperFunction*%
%TO.P,Q3,G1*%
%TO.N,/PWM_5*%
%TA.AperFunction,SMDPad,CuDef*%
G36*
G01*
X180535000Y-70575000D02*
X180135000Y-70575000D01*
G75*
G02*
X179935000Y-70375000I0J200000D01*
G01*
X179935000Y-69025000D01*
G75*
G02*
X180135000Y-68825000I200000J0D01*
G01*
X180535000Y-68825000D01*
G75*
G02*
X180735000Y-69025000I0J-200000D01*
G01*
X180735000Y-70375000D01*
G75*
G02*
X180535000Y-70575000I-200000J0D01*
G01*
G37*
%TD.AperFunction*%
%TO.P,Q3,S1*%
%TO.N,GND*%
X181605000Y-69700000D03*
%TO.P,Q3,D1*%
%TO.N,/DRAIN_5*%
%TA.AperFunction,SMDPad,CuDef*%
G36*
G01*
X181805000Y-65375000D02*
X181405000Y-65375000D01*
G75*
G02*
X181205000Y-65175000I0J200000D01*
G01*
X181205000Y-63825000D01*
G75*
G02*
X181405000Y-63625000I200000J0D01*
G01*
X181805000Y-63625000D01*
G75*
G02*
X182005000Y-63825000I0J-200000D01*
G01*
X182005000Y-65175000D01*
G75*
G02*
X181805000Y-65375000I-200000J0D01*
G01*
G37*
%TD.AperFunction*%
%TO.P,Q3,D2*%
%TO.N,/DRAIN_6*%
%TA.AperFunction,SMDPad,CuDef*%
G36*
G01*
X179265000Y-65375000D02*
X178865000Y-65375000D01*
G75*
G02*
X178665000Y-65175000I0J200000D01*
G01*
X178665000Y-63825000D01*
G75*
G02*
X178865000Y-63625000I200000J0D01*
G01*
X179265000Y-63625000D01*
G75*
G02*
X179465000Y-63825000I0J-200000D01*
G01*
X179465000Y-65175000D01*
G75*
G02*
X179265000Y-65375000I-200000J0D01*
G01*
G37*
%TD.AperFunction*%
%TA.AperFunction,SMDPad,CuDef*%
G36*
G01*
X177995000Y-65375000D02*
X177595000Y-65375000D01*
G75*
G02*
X177395000Y-65175000I0J200000D01*
G01*
X177395000Y-63825000D01*
G75*
G02*
X177595000Y-63625000I200000J0D01*
G01*
X177995000Y-63625000D01*
G75*
G02*
X178195000Y-63825000I0J-200000D01*
G01*
X178195000Y-65175000D01*
G75*
G02*
X177995000Y-65375000I-200000J0D01*
G01*
G37*
%TD.AperFunction*%
%TO.P,Q3,D1*%
%TO.N,/DRAIN_5*%
%TA.AperFunction,SMDPad,CuDef*%
G36*
G01*
X180535000Y-65375000D02*
X180135000Y-65375000D01*
G75*
G02*
X179935000Y-65175000I0J200000D01*
G01*
X179935000Y-63825000D01*
G75*
G02*
X180135000Y-63625000I200000J0D01*
G01*
X180535000Y-63625000D01*
G75*
G02*
X180735000Y-63825000I0J-200000D01*
G01*
X180735000Y-65175000D01*
G75*
G02*
X180535000Y-65375000I-200000J0D01*
G01*
G37*
%TD.AperFunction*%
%TD*%
%TO.P,Q2,G2*%
%TO.N,/PWM_3*%
%TA.AperFunction,SMDPad,CuDef*%
G36*
G01*
X161905000Y-86775000D02*
X162305000Y-86775000D01*
G75*
G02*
X162505000Y-86975000I0J-200000D01*
G01*
X162505000Y-88325000D01*
G75*
G02*
X162305000Y-88525000I-200000J0D01*
G01*
X161905000Y-88525000D01*
G75*
G02*
X161705000Y-88325000I0J200000D01*
G01*
X161705000Y-86975000D01*
G75*
G02*
X161905000Y-86775000I200000J0D01*
G01*
G37*
%TD.AperFunction*%
%TO.P,Q2,S2*%
%TO.N,GND*%
%TA.AperFunction,SMDPad,CuDef*%
G36*
G01*
X160635000Y-86815000D02*
X161035000Y-86815000D01*
G75*
G02*
X161235000Y-87015000I0J-200000D01*
G01*
X161235000Y-88365000D01*
G75*
G02*
X161035000Y-88565000I-200000J0D01*
G01*
X160635000Y-88565000D01*
G75*
G02*
X160435000Y-88365000I0J200000D01*
G01*
X160435000Y-87015000D01*
G75*
G02*
X160635000Y-86815000I200000J0D01*
G01*
G37*
%TD.AperFunction*%
%TO.P,Q2,G1*%
%TO.N,/PWM_4*%
%TA.AperFunction,SMDPad,CuDef*%
G36*
G01*
X159365000Y-86775000D02*
X159765000Y-86775000D01*
G75*
G02*
X159965000Y-86975000I0J-200000D01*
G01*
X159965000Y-88325000D01*
G75*
G02*
X159765000Y-88525000I-200000J0D01*
G01*
X159365000Y-88525000D01*
G75*
G02*
X159165000Y-88325000I0J200000D01*
G01*
X159165000Y-86975000D01*
G75*
G02*
X159365000Y-86775000I200000J0D01*
G01*
G37*
%TD.AperFunction*%
%TO.P,Q2,S1*%
%TO.N,GND*%
X158295000Y-87650000D03*
%TO.P,Q2,D1*%
%TO.N,/DRAIN_4*%
%TA.AperFunction,SMDPad,CuDef*%
G36*
G01*
X158095000Y-91975000D02*
X158495000Y-91975000D01*
G75*
G02*
X158695000Y-92175000I0J-200000D01*
G01*
X158695000Y-93525000D01*
G75*
G02*
X158495000Y-93725000I-200000J0D01*
G01*
X158095000Y-93725000D01*
G75*
G02*
X157895000Y-93525000I0J200000D01*
G01*
X157895000Y-92175000D01*
G75*
G02*
X158095000Y-91975000I200000J0D01*
G01*
G37*
%TD.AperFunction*%
%TO.P,Q2,D2*%
%TO.N,/DRAIN_3*%
%TA.AperFunction,SMDPad,CuDef*%
G36*
G01*
X160635000Y-91975000D02*
X161035000Y-91975000D01*
G75*
G02*
X161235000Y-92175000I0J-200000D01*
G01*
X161235000Y-93525000D01*
G75*
G02*
X161035000Y-93725000I-200000J0D01*
G01*
X160635000Y-93725000D01*
G75*
G02*
X160435000Y-93525000I0J200000D01*
G01*
X160435000Y-92175000D01*
G75*
G02*
X160635000Y-91975000I200000J0D01*
G01*
G37*
%TD.AperFunction*%
%TA.AperFunction,SMDPad,CuDef*%
G36*
G01*
X161905000Y-91975000D02*
X162305000Y-91975000D01*
G75*
G02*
X162505000Y-92175000I0J-200000D01*
G01*
X162505000Y-93525000D01*
G75*
G02*
X162305000Y-93725000I-200000J0D01*
G01*
X161905000Y-93725000D01*
G75*
G02*
X161705000Y-93525000I0J200000D01*
G01*
X161705000Y-92175000D01*
G75*
G02*
X161905000Y-91975000I200000J0D01*
G01*
G37*
%TD.AperFunction*%
%TO.P,Q2,D1*%
%TO.N,/DRAIN_4*%
%TA.AperFunction,SMDPad,CuDef*%
G36*
G01*
X159365000Y-91975000D02*
X159765000Y-91975000D01*
G75*
G02*
X159965000Y-92175000I0J-200000D01*
G01*
X159965000Y-93525000D01*
G75*
G02*
X159765000Y-93725000I-200000J0D01*
G01*
X159365000Y-93725000D01*
G75*
G02*
X159165000Y-93525000I0J200000D01*
G01*
X159165000Y-92175000D01*
G75*
G02*
X159365000Y-91975000I200000J0D01*
G01*
G37*
%TD.AperFunction*%
%TD*%
%TO.P,Q1,G2*%
%TO.N,/PWM_1*%
%TA.AperFunction,SMDPad,CuDef*%
G36*
G01*
X171805000Y-86825000D02*
X172205000Y-86825000D01*
G75*
G02*
X172405000Y-87025000I0J-200000D01*
G01*
X172405000Y-88375000D01*
G75*
G02*
X172205000Y-88575000I-200000J0D01*
G01*
X171805000Y-88575000D01*
G75*
G02*
X171605000Y-88375000I0J200000D01*
G01*
X171605000Y-87025000D01*
G75*
G02*
X171805000Y-86825000I200000J0D01*
G01*
G37*
%TD.AperFunction*%
%TO.P,Q1,S2*%
%TO.N,GND*%
%TA.AperFunction,SMDPad,CuDef*%
G36*
G01*
X170535000Y-86865000D02*
X170935000Y-86865000D01*
G75*
G02*
X171135000Y-87065000I0J-200000D01*
G01*
X171135000Y-88415000D01*
G75*
G02*
X170935000Y-88615000I-200000J0D01*
G01*
X170535000Y-88615000D01*
G75*
G02*
X170335000Y-88415000I0J200000D01*
G01*
X170335000Y-87065000D01*
G75*
G02*
X170535000Y-86865000I200000J0D01*
G01*
G37*
%TD.AperFunction*%
%TO.P,Q1,G1*%
%TO.N,/PWM_2*%
%TA.AperFunction,SMDPad,CuDef*%
G36*
G01*
X169265000Y-86825000D02*
X169665000Y-86825000D01*
G75*
G02*
X169865000Y-87025000I0J-200000D01*
G01*
X169865000Y-88375000D01*
G75*
G02*
X169665000Y-88575000I-200000J0D01*
G01*
X169265000Y-88575000D01*
G75*
G02*
X169065000Y-88375000I0J200000D01*
G01*
X169065000Y-87025000D01*
G75*
G02*
X169265000Y-86825000I200000J0D01*
G01*
G37*
%TD.AperFunction*%
%TO.P,Q1,S1*%
%TO.N,GND*%
X168195000Y-87700000D03*
%TO.P,Q1,D1*%
%TO.N,/DRAIN_2*%
%TA.AperFunction,SMDPad,CuDef*%
G36*
G01*
X167995000Y-92025000D02*
X168395000Y-92025000D01*
G75*
G02*
X168595000Y-92225000I0J-200000D01*
G01*
X168595000Y-93575000D01*
G75*
G02*
X168395000Y-93775000I-200000J0D01*
G01*
X167995000Y-93775000D01*
G75*
G02*
X167795000Y-93575000I0J200000D01*
G01*
X167795000Y-92225000D01*
G75*
G02*
X167995000Y-92025000I200000J0D01*
G01*
G37*
%TD.AperFunction*%
%TO.P,Q1,D2*%
%TO.N,/DRAIN_1*%
%TA.AperFunction,SMDPad,CuDef*%
G36*
G01*
X170535000Y-92025000D02*
X170935000Y-92025000D01*
G75*
G02*
X171135000Y-92225000I0J-200000D01*
G01*
X171135000Y-93575000D01*
G75*
G02*
X170935000Y-93775000I-200000J0D01*
G01*
X170535000Y-93775000D01*
G75*
G02*
X170335000Y-93575000I0J200000D01*
G01*
X170335000Y-92225000D01*
G75*
G02*
X170535000Y-92025000I200000J0D01*
G01*
G37*
%TD.AperFunction*%
%TA.AperFunction,SMDPad,CuDef*%
G36*
G01*
X171805000Y-92025000D02*
X172205000Y-92025000D01*
G75*
G02*
X172405000Y-92225000I0J-200000D01*
G01*
X172405000Y-93575000D01*
G75*
G02*
X172205000Y-93775000I-200000J0D01*
G01*
X171805000Y-93775000D01*
G75*
G02*
X171605000Y-93575000I0J200000D01*
G01*
X171605000Y-92225000D01*
G75*
G02*
X171805000Y-92025000I200000J0D01*
G01*
G37*
%TD.AperFunction*%
%TO.P,Q1,D1*%
%TO.N,/DRAIN_2*%
%TA.AperFunction,SMDPad,CuDef*%
G36*
G01*
X169265000Y-92025000D02*
X169665000Y-92025000D01*
G75*
G02*
X169865000Y-92225000I0J-200000D01*
G01*
X169865000Y-93575000D01*
G75*
G02*
X169665000Y-93775000I-200000J0D01*
G01*
X169265000Y-93775000D01*
G75*
G02*
X169065000Y-93575000I0J200000D01*
G01*
X169065000Y-92225000D01*
G75*
G02*
X169265000Y-92025000I200000J0D01*
G01*
G37*
%TD.AperFunction*%
%TD*%
D16*
%TO.P,J1,2*%
%TO.N,GND*%
X188600000Y-86900000D03*
D17*
%TO.P,J1,1*%
%TO.N,Net-(F1-Pad2)*%
X183600000Y-86900000D03*
%TD*%
D18*
%TO.P,J2,5*%
%TO.N,/DRAIN_4*%
X158090000Y-95390000D03*
%TO.P,J2,4*%
%TO.N,/DRAIN_3*%
X163090000Y-95390000D03*
%TO.P,J2,3*%
%TO.N,/DRAIN_2*%
X168090000Y-95390000D03*
%TO.P,J2,2*%
%TO.N,/DRAIN_1*%
X173090000Y-95390000D03*
D19*
%TO.P,J2,1*%
%TO.N,+12V*%
X178090000Y-95390000D03*
%TD*%
D18*
%TO.P,J3,5*%
%TO.N,/DRAIN_8*%
X167100000Y-61980000D03*
%TO.P,J3,4*%
%TO.N,/DRAIN_7*%
X172100000Y-61980000D03*
%TO.P,J3,3*%
%TO.N,/DRAIN_6*%
X177100000Y-61980000D03*
%TO.P,J3,2*%
%TO.N,/DRAIN_5*%
X182100000Y-61980000D03*
D19*
%TO.P,J3,1*%
%TO.N,+12V*%
X187100000Y-61980000D03*
%TD*%
D12*
%TO.P,SW3,A*%
%TO.N,/SW_A1*%
X144600000Y-94250000D03*
D13*
%TO.P,SW3,MP*%
%TO.N,N/C*%
X152200000Y-86750000D03*
X141500000Y-86750000D03*
D14*
%TO.P,SW3,C*%
%TO.N,GND*%
X147100000Y-94250000D03*
%TO.P,SW3,B*%
%TO.N,/SW_B2*%
X149600000Y-94250000D03*
%TD*%
%TO.P,C4,2*%
%TO.N,GND*%
%TA.AperFunction,SMDPad,CuDef*%
G36*
G01*
X139362500Y-74325000D02*
X139837500Y-74325000D01*
G75*
G02*
X140075000Y-74562500I0J-237500D01*
G01*
X140075000Y-75162500D01*
G75*
G02*
X139837500Y-75400000I-237500J0D01*
G01*
X139362500Y-75400000D01*
G75*
G02*
X139125000Y-75162500I0J237500D01*
G01*
X139125000Y-74562500D01*
G75*
G02*
X139362500Y-74325000I237500J0D01*
G01*
G37*
%TD.AperFunction*%
%TO.P,C4,1*%
%TO.N,+5V*%
%TA.AperFunction,SMDPad,CuDef*%
G36*
G01*
X139362500Y-72600000D02*
X139837500Y-72600000D01*
G75*
G02*
X140075000Y-72837500I0J-237500D01*
G01*
X140075000Y-73437500D01*
G75*
G02*
X139837500Y-73675000I-237500J0D01*
G01*
X139362500Y-73675000D01*
G75*
G02*
X139125000Y-73437500I0J237500D01*
G01*
X139125000Y-72837500D01*
G75*
G02*
X139362500Y-72600000I237500J0D01*
G01*
G37*
%TD.AperFunction*%
%TD*%
D12*
%TO.P,SW4,A*%
%TO.N,/SW_A2*%
X144440000Y-77540000D03*
D13*
%TO.P,SW4,MP*%
%TO.N,N/C*%
X152040000Y-70040000D03*
X141340000Y-70040000D03*
D14*
%TO.P,SW4,C*%
%TO.N,GND*%
X146940000Y-77540000D03*
%TO.P,SW4,B*%
%TO.N,/SW_B1*%
X149440000Y-77540000D03*
%TD*%
D12*
%TO.P,SW2,A*%
%TO.N,/SW_A1*%
X127410000Y-78000000D03*
D13*
%TO.P,SW2,MP*%
%TO.N,N/C*%
X135010000Y-70500000D03*
X124310000Y-70500000D03*
D14*
%TO.P,SW2,C*%
%TO.N,GND*%
X129910000Y-78000000D03*
%TO.P,SW2,B*%
%TO.N,/SW_B1*%
X132410000Y-78000000D03*
%TD*%
%TO.P,SW6,1*%
%TO.N,/SW6*%
X162640000Y-69610000D03*
%TO.P,SW6,2*%
%TO.N,GND*%
X162640000Y-74110000D03*
%TO.P,SW6,1*%
%TO.N,/SW6*%
X156140000Y-69610000D03*
%TO.P,SW6,2*%
%TO.N,GND*%
X156140000Y-74110000D03*
%TD*%
%TO.P,SW1,1*%
%TO.N,/PWR_EN*%
X156140000Y-65980000D03*
%TO.P,SW1,2*%
%TO.N,Net-(R3-Pad1)*%
X156140000Y-61480000D03*
%TO.P,SW1,1*%
%TO.N,/PWR_EN*%
X162640000Y-65980000D03*
%TO.P,SW1,2*%
%TO.N,Net-(R3-Pad1)*%
X162640000Y-61480000D03*
%TD*%
D20*
%TO.P,J5,4*%
%TO.N,+5V*%
X146690000Y-97570000D03*
%TO.P,J5,3*%
%TO.N,/TWI_SDA*%
X144150000Y-97570000D03*
%TO.P,J5,2*%
%TO.N,/TWI_SCL*%
X141610000Y-97570000D03*
D21*
%TO.P,J5,1*%
%TO.N,GND*%
X139070000Y-97570000D03*
%TD*%
D20*
%TO.P,J4,3*%
%TO.N,+5V*%
X135350000Y-97570000D03*
%TO.P,J4,2*%
%TO.N,/RESET*%
X132810000Y-97570000D03*
D21*
%TO.P,J4,1*%
%TO.N,GND*%
X130270000Y-97570000D03*
%TD*%
%TO.P,U3,10*%
%TO.N,/PWM_8*%
%TA.AperFunction,SMDPad,CuDef*%
G36*
G01*
X152665000Y-72625000D02*
X152965000Y-72625000D01*
G75*
G02*
X153115000Y-72775000I0J-150000D01*
G01*
X153115000Y-74525000D01*
G75*
G02*
X152965000Y-74675000I-150000J0D01*
G01*
X152665000Y-74675000D01*
G75*
G02*
X152515000Y-74525000I0J150000D01*
G01*
X152515000Y-72775000D01*
G75*
G02*
X152665000Y-72625000I150000J0D01*
G01*
G37*
%TD.AperFunction*%
%TO.P,U3,4*%
%TO.N,/SW_A1*%
%TA.AperFunction,SMDPad,CuDef*%
G36*
G01*
X145045000Y-72625000D02*
X145345000Y-72625000D01*
G75*
G02*
X145495000Y-72775000I0J-150000D01*
G01*
X145495000Y-74525000D01*
G75*
G02*
X145345000Y-74675000I-150000J0D01*
G01*
X145045000Y-74675000D01*
G75*
G02*
X144895000Y-74525000I0J150000D01*
G01*
X144895000Y-72775000D01*
G75*
G02*
X145045000Y-72625000I150000J0D01*
G01*
G37*
%TD.AperFunction*%
%TO.P,U3,12*%
%TO.N,/PWM_1*%
%TA.AperFunction,SMDPad,CuDef*%
G36*
G01*
X151395000Y-81925000D02*
X151695000Y-81925000D01*
G75*
G02*
X151845000Y-82075000I0J-150000D01*
G01*
X151845000Y-83825000D01*
G75*
G02*
X151695000Y-83975000I-150000J0D01*
G01*
X151395000Y-83975000D01*
G75*
G02*
X151245000Y-83825000I0J150000D01*
G01*
X151245000Y-82075000D01*
G75*
G02*
X151395000Y-81925000I150000J0D01*
G01*
G37*
%TD.AperFunction*%
%TO.P,U3,14*%
%TO.N,/SW_B1*%
%TA.AperFunction,SMDPad,CuDef*%
G36*
G01*
X148855000Y-81925000D02*
X149155000Y-81925000D01*
G75*
G02*
X149305000Y-82075000I0J-150000D01*
G01*
X149305000Y-83825000D01*
G75*
G02*
X149155000Y-83975000I-150000J0D01*
G01*
X148855000Y-83975000D01*
G75*
G02*
X148705000Y-83825000I0J150000D01*
G01*
X148705000Y-82075000D01*
G75*
G02*
X148855000Y-81925000I150000J0D01*
G01*
G37*
%TD.AperFunction*%
D22*
%TO.P,U3,1*%
%TO.N,+5V*%
X141385000Y-73650000D03*
%TO.P,U3,13*%
%TO.N,/PWM_3*%
%TA.AperFunction,SMDPad,CuDef*%
G36*
G01*
X150125000Y-81925000D02*
X150425000Y-81925000D01*
G75*
G02*
X150575000Y-82075000I0J-150000D01*
G01*
X150575000Y-83825000D01*
G75*
G02*
X150425000Y-83975000I-150000J0D01*
G01*
X150125000Y-83975000D01*
G75*
G02*
X149975000Y-83825000I0J150000D01*
G01*
X149975000Y-82075000D01*
G75*
G02*
X150125000Y-81925000I150000J0D01*
G01*
G37*
%TD.AperFunction*%
%TO.P,U3,3*%
%TO.N,/PWM_6*%
%TA.AperFunction,SMDPad,CuDef*%
G36*
G01*
X143775000Y-72625000D02*
X144075000Y-72625000D01*
G75*
G02*
X144225000Y-72775000I0J-150000D01*
G01*
X144225000Y-74525000D01*
G75*
G02*
X144075000Y-74675000I-150000J0D01*
G01*
X143775000Y-74675000D01*
G75*
G02*
X143625000Y-74525000I0J150000D01*
G01*
X143625000Y-72775000D01*
G75*
G02*
X143775000Y-72625000I150000J0D01*
G01*
G37*
%TD.AperFunction*%
%TO.P,U3,9*%
%TO.N,/PWM_7*%
%TA.AperFunction,SMDPad,CuDef*%
G36*
G01*
X151395000Y-72625000D02*
X151695000Y-72625000D01*
G75*
G02*
X151845000Y-72775000I0J-150000D01*
G01*
X151845000Y-74525000D01*
G75*
G02*
X151695000Y-74675000I-150000J0D01*
G01*
X151395000Y-74675000D01*
G75*
G02*
X151245000Y-74525000I0J150000D01*
G01*
X151245000Y-72775000D01*
G75*
G02*
X151395000Y-72625000I150000J0D01*
G01*
G37*
%TD.AperFunction*%
%TO.P,U3,11*%
%TO.N,/PWM_2*%
%TA.AperFunction,SMDPad,CuDef*%
G36*
G01*
X152665000Y-81925000D02*
X152965000Y-81925000D01*
G75*
G02*
X153115000Y-82075000I0J-150000D01*
G01*
X153115000Y-83825000D01*
G75*
G02*
X152965000Y-83975000I-150000J0D01*
G01*
X152665000Y-83975000D01*
G75*
G02*
X152515000Y-83825000I0J150000D01*
G01*
X152515000Y-82075000D01*
G75*
G02*
X152665000Y-81925000I150000J0D01*
G01*
G37*
%TD.AperFunction*%
%TO.P,U3,5*%
%TO.N,/SW_A2*%
%TA.AperFunction,SMDPad,CuDef*%
G36*
G01*
X146315000Y-72625000D02*
X146615000Y-72625000D01*
G75*
G02*
X146765000Y-72775000I0J-150000D01*
G01*
X146765000Y-74525000D01*
G75*
G02*
X146615000Y-74675000I-150000J0D01*
G01*
X146315000Y-74675000D01*
G75*
G02*
X146165000Y-74525000I0J150000D01*
G01*
X146165000Y-72775000D01*
G75*
G02*
X146315000Y-72625000I150000J0D01*
G01*
G37*
%TD.AperFunction*%
%TO.P,U3,6*%
%TO.N,/PWR_EN*%
%TA.AperFunction,SMDPad,CuDef*%
G36*
G01*
X147585000Y-72625000D02*
X147885000Y-72625000D01*
G75*
G02*
X148035000Y-72775000I0J-150000D01*
G01*
X148035000Y-74525000D01*
G75*
G02*
X147885000Y-74675000I-150000J0D01*
G01*
X147585000Y-74675000D01*
G75*
G02*
X147435000Y-74525000I0J150000D01*
G01*
X147435000Y-72775000D01*
G75*
G02*
X147585000Y-72625000I150000J0D01*
G01*
G37*
%TD.AperFunction*%
%TO.P,U3,8*%
%TO.N,/SW6*%
%TA.AperFunction,SMDPad,CuDef*%
G36*
G01*
X150125000Y-72625000D02*
X150425000Y-72625000D01*
G75*
G02*
X150575000Y-72775000I0J-150000D01*
G01*
X150575000Y-74525000D01*
G75*
G02*
X150425000Y-74675000I-150000J0D01*
G01*
X150125000Y-74675000D01*
G75*
G02*
X149975000Y-74525000I0J150000D01*
G01*
X149975000Y-72775000D01*
G75*
G02*
X150125000Y-72625000I150000J0D01*
G01*
G37*
%TD.AperFunction*%
%TO.P,U3,2*%
%TO.N,/PWM_5*%
%TA.AperFunction,SMDPad,CuDef*%
G36*
G01*
X142505000Y-72625000D02*
X142805000Y-72625000D01*
G75*
G02*
X142955000Y-72775000I0J-150000D01*
G01*
X142955000Y-74525000D01*
G75*
G02*
X142805000Y-74675000I-150000J0D01*
G01*
X142505000Y-74675000D01*
G75*
G02*
X142355000Y-74525000I0J150000D01*
G01*
X142355000Y-72775000D01*
G75*
G02*
X142505000Y-72625000I150000J0D01*
G01*
G37*
%TD.AperFunction*%
%TO.P,U3,7*%
%TO.N,/SENSE*%
%TA.AperFunction,SMDPad,CuDef*%
G36*
G01*
X148855000Y-72625000D02*
X149155000Y-72625000D01*
G75*
G02*
X149305000Y-72775000I0J-150000D01*
G01*
X149305000Y-74525000D01*
G75*
G02*
X149155000Y-74675000I-150000J0D01*
G01*
X148855000Y-74675000D01*
G75*
G02*
X148705000Y-74525000I0J150000D01*
G01*
X148705000Y-72775000D01*
G75*
G02*
X148855000Y-72625000I150000J0D01*
G01*
G37*
%TD.AperFunction*%
%TO.P,U3,16*%
%TO.N,/RESET*%
%TA.AperFunction,SMDPad,CuDef*%
G36*
G01*
X146315000Y-81925000D02*
X146615000Y-81925000D01*
G75*
G02*
X146765000Y-82075000I0J-150000D01*
G01*
X146765000Y-83825000D01*
G75*
G02*
X146615000Y-83975000I-150000J0D01*
G01*
X146315000Y-83975000D01*
G75*
G02*
X146165000Y-83825000I0J150000D01*
G01*
X146165000Y-82075000D01*
G75*
G02*
X146315000Y-81925000I150000J0D01*
G01*
G37*
%TD.AperFunction*%
%TO.P,U3,19*%
%TO.N,/PWM_4*%
%TA.AperFunction,SMDPad,CuDef*%
G36*
G01*
X142505000Y-81925000D02*
X142805000Y-81925000D01*
G75*
G02*
X142955000Y-82075000I0J-150000D01*
G01*
X142955000Y-83825000D01*
G75*
G02*
X142805000Y-83975000I-150000J0D01*
G01*
X142505000Y-83975000D01*
G75*
G02*
X142355000Y-83825000I0J150000D01*
G01*
X142355000Y-82075000D01*
G75*
G02*
X142505000Y-81925000I150000J0D01*
G01*
G37*
%TD.AperFunction*%
%TO.P,U3,17*%
%TO.N,/TWI_SDA*%
%TA.AperFunction,SMDPad,CuDef*%
G36*
G01*
X145045000Y-81925000D02*
X145345000Y-81925000D01*
G75*
G02*
X145495000Y-82075000I0J-150000D01*
G01*
X145495000Y-83825000D01*
G75*
G02*
X145345000Y-83975000I-150000J0D01*
G01*
X145045000Y-83975000D01*
G75*
G02*
X144895000Y-83825000I0J150000D01*
G01*
X144895000Y-82075000D01*
G75*
G02*
X145045000Y-81925000I150000J0D01*
G01*
G37*
%TD.AperFunction*%
%TO.P,U3,20*%
%TO.N,GND*%
%TA.AperFunction,SMDPad,CuDef*%
G36*
G01*
X141235000Y-81925000D02*
X141535000Y-81925000D01*
G75*
G02*
X141685000Y-82075000I0J-150000D01*
G01*
X141685000Y-83825000D01*
G75*
G02*
X141535000Y-83975000I-150000J0D01*
G01*
X141235000Y-83975000D01*
G75*
G02*
X141085000Y-83825000I0J150000D01*
G01*
X141085000Y-82075000D01*
G75*
G02*
X141235000Y-81925000I150000J0D01*
G01*
G37*
%TD.AperFunction*%
%TO.P,U3,18*%
%TO.N,/TWI_SCL*%
%TA.AperFunction,SMDPad,CuDef*%
G36*
G01*
X143775000Y-81925000D02*
X144075000Y-81925000D01*
G75*
G02*
X144225000Y-82075000I0J-150000D01*
G01*
X144225000Y-83825000D01*
G75*
G02*
X144075000Y-83975000I-150000J0D01*
G01*
X143775000Y-83975000D01*
G75*
G02*
X143625000Y-83825000I0J150000D01*
G01*
X143625000Y-82075000D01*
G75*
G02*
X143775000Y-81925000I150000J0D01*
G01*
G37*
%TD.AperFunction*%
%TO.P,U3,15*%
%TO.N,/SW_B2*%
%TA.AperFunction,SMDPad,CuDef*%
G36*
G01*
X147585000Y-81925000D02*
X147885000Y-81925000D01*
G75*
G02*
X148035000Y-82075000I0J-150000D01*
G01*
X148035000Y-83825000D01*
G75*
G02*
X147885000Y-83975000I-150000J0D01*
G01*
X147585000Y-83975000D01*
G75*
G02*
X147435000Y-83825000I0J150000D01*
G01*
X147435000Y-82075000D01*
G75*
G02*
X147585000Y-81925000I150000J0D01*
G01*
G37*
%TD.AperFunction*%
%TD*%
D23*
%TO.N,*%
X125500000Y-60500000D03*
X192500000Y-60500000D03*
D24*
X192500000Y-97500000D03*
D23*
X125000000Y-98000000D03*
D25*
%TO.N,GND*%
X148500000Y-62600000D03*
X147600000Y-62600000D03*
X147600000Y-63500000D03*
X148500000Y-63500000D03*
X147600000Y-64400000D03*
X148500000Y-64400000D03*
X146700000Y-62600000D03*
X146700000Y-63500000D03*
X146700000Y-64400000D03*
X144400000Y-58200000D03*
X140200000Y-59300000D03*
X151640000Y-63190000D03*
X163210000Y-81150000D03*
%TO.N,/PWM_2*%
X154000000Y-82400000D03*
X169400000Y-90025010D03*
%TO.N,/PWM_1*%
X171905000Y-89300000D03*
X151500000Y-81300000D03*
%TO.N,/PWM_4*%
X143000000Y-84700000D03*
X159500000Y-89100000D03*
%TO.N,/PWM_3*%
X150275000Y-81225000D03*
X162000000Y-89100000D03*
%TO.N,/PWM_8*%
X152800000Y-75500000D03*
X167700000Y-71200000D03*
%TO.N,/PWM_7*%
X151545000Y-75455000D03*
X170235000Y-71200000D03*
%TO.N,/PWM_6*%
X143300000Y-75200000D03*
X177810000Y-67850000D03*
%TO.N,/PWM_5*%
X143300000Y-71800000D03*
X180360000Y-66720000D03*
%TO.N,+5V*%
X138300000Y-73100000D03*
%TO.N,/TWI_SCL*%
X144000000Y-85000000D03*
%TO.N,/TWI_SDA*%
X145250000Y-85000000D03*
%TO.N,/RESET*%
X146450000Y-81200000D03*
%TO.N,/SW6*%
X150200000Y-71900000D03*
%TO.N,/PWR_EN*%
X147700000Y-70900000D03*
%TO.N,/SW_A1*%
X145200000Y-75300000D03*
X140800000Y-94250000D03*
X138000000Y-93500000D03*
X135600000Y-93500000D03*
%TO.N,/SW_B1*%
X149100000Y-85000000D03*
X149000000Y-81200000D03*
X134500000Y-84100000D03*
X132400000Y-84100000D03*
%TO.N,/SW_B2*%
X137175000Y-94280000D03*
X140862500Y-95637500D03*
X143287500Y-95887500D03*
X147600000Y-85000000D03*
%TO.N,/SW_A2*%
X146550000Y-75250000D03*
%TO.N,/SENSE*%
X149000000Y-75300000D03*
X170300000Y-78700000D03*
X184300000Y-80950000D03*
%TD*%
D26*
%TO.N,GND*%
X147015000Y-78155000D02*
X147040000Y-78130000D01*
%TO.N,/PWM_2*%
X154000000Y-82400000D02*
X153365000Y-82400000D01*
X153365000Y-82400000D02*
X153100000Y-82400000D01*
X169400000Y-87765000D02*
X169465000Y-87700000D01*
X169400000Y-90025010D02*
X169400000Y-87765000D01*
%TO.N,/PWM_1*%
X171905000Y-89095000D02*
X171905000Y-89095000D01*
X171905000Y-87740000D02*
X171905000Y-89300000D01*
X151545000Y-81355000D02*
X151545000Y-81355000D01*
X151545000Y-82950000D02*
X151500000Y-81300000D01*
%TO.N,/PWM_4*%
X142655000Y-84255000D02*
X142655000Y-82950000D01*
X143000000Y-84700000D02*
X142655000Y-84255000D01*
X143000000Y-84700000D02*
X143100000Y-84700000D01*
X159465000Y-89065000D02*
X159465000Y-87600000D01*
X159500000Y-89100000D02*
X159465000Y-89065000D01*
%TO.N,/PWM_3*%
X150275000Y-82950000D02*
X150275000Y-81225000D01*
X150275000Y-81225000D02*
X150275000Y-81225000D01*
X162005000Y-89195000D02*
X162005000Y-87600000D01*
X162000000Y-89100000D02*
X162005000Y-89195000D01*
%TO.N,/PWM_8*%
X152815000Y-75485000D02*
X152800000Y-75500000D01*
X152815000Y-73650000D02*
X152815000Y-75485000D01*
X167695000Y-71195000D02*
X167695000Y-71195000D01*
X167695000Y-69700000D02*
X167700000Y-71200000D01*
%TO.N,/PWM_7*%
X151545000Y-73650000D02*
X151545000Y-75455000D01*
X151545000Y-75455000D02*
X151545000Y-75455000D01*
X170235000Y-71065000D02*
X170235000Y-71065000D01*
X170235000Y-69700000D02*
X170235000Y-71200000D01*
%TO.N,/PWM_6*%
X143925000Y-73650000D02*
X143925000Y-74575000D01*
X143300000Y-75200000D02*
X143900000Y-75200000D01*
X143900000Y-73675000D02*
X143925000Y-73650000D01*
X143900000Y-75200000D02*
X143900000Y-73675000D01*
X177778688Y-69583688D02*
X177795000Y-69600000D01*
X177810000Y-67850000D02*
X177778688Y-69583688D01*
%TO.N,/PWM_5*%
X142655000Y-72445000D02*
X142655000Y-73650000D01*
X143300000Y-71800000D02*
X142655000Y-72445000D01*
X180300000Y-69565000D02*
X180335000Y-69600000D01*
X180360000Y-66720000D02*
X180300000Y-69565000D01*
D27*
%TO.N,+5V*%
X139600000Y-73137500D02*
X141400000Y-73100000D01*
X139562500Y-73100000D02*
X139600000Y-73137500D01*
X138300000Y-73100000D02*
X139562500Y-73100000D01*
D26*
%TO.N,/TWI_SCL*%
X144000000Y-83025000D02*
X143925000Y-82950000D01*
X144000000Y-85000000D02*
X144000000Y-83025000D01*
%TO.N,/TWI_SDA*%
X145250000Y-83005000D02*
X145195000Y-82950000D01*
X145250000Y-85000000D02*
X145250000Y-83005000D01*
%TO.N,/RESET*%
X146465000Y-81335000D02*
X146465000Y-81335000D01*
X146465000Y-82950000D02*
X146450000Y-81200000D01*
%TO.N,/SW6*%
X150200000Y-71900000D02*
X150200000Y-73074990D01*
%TO.N,/PWR_EN*%
X147735000Y-71735000D02*
X147735000Y-73650000D01*
X147700000Y-70900000D02*
X147735000Y-71735000D01*
%TO.N,/SW_A1*%
X145195000Y-75295000D02*
X145200000Y-75300000D01*
X145195000Y-73650000D02*
X145195000Y-75295000D01*
X140750000Y-94250000D02*
X140750000Y-94250000D01*
X140950000Y-94250000D02*
X144600000Y-94250000D01*
X140800000Y-94250000D02*
X140950000Y-94250000D01*
X138000000Y-93500000D02*
X135600000Y-93500000D01*
X135600000Y-93500000D02*
X135600000Y-93500000D01*
%TO.N,/SW_B1*%
X149005000Y-84905000D02*
X149100000Y-85000000D01*
X149005000Y-82950000D02*
X149005000Y-84905000D01*
X149000000Y-82945000D02*
X149005000Y-82950000D01*
X149000000Y-81200000D02*
X149000000Y-82945000D01*
X134500000Y-84100000D02*
X132400000Y-84100000D01*
X132400000Y-84100000D02*
X132400000Y-84100000D01*
%TO.N,/SW_B2*%
X132360000Y-94280000D02*
X137175000Y-94280000D01*
X137175000Y-94280000D02*
X137175000Y-94280000D01*
X137205000Y-94280000D02*
X137275000Y-94350000D01*
X137175000Y-94280000D02*
X137205000Y-94280000D01*
X143037500Y-95637500D02*
X143287500Y-95887500D01*
X140862500Y-95637500D02*
X143037500Y-95637500D01*
X143287500Y-95887500D02*
X143375000Y-95975000D01*
X147735000Y-84865000D02*
X147600000Y-85000000D01*
X147735000Y-82950000D02*
X147735000Y-84865000D01*
%TO.N,/SW_A2*%
X146465000Y-75165000D02*
X146550000Y-75250000D01*
X146465000Y-73650000D02*
X146465000Y-75165000D01*
D27*
X144440000Y-77540000D02*
X145195000Y-76785000D01*
D26*
%TO.N,/SENSE*%
X149000000Y-73655000D02*
X149005000Y-73650000D01*
X149000000Y-75300000D02*
X149000000Y-73655000D01*
X183528276Y-78821724D02*
X170350000Y-78810000D01*
X183821724Y-78821724D02*
X183528276Y-78821724D01*
X170350000Y-78810000D02*
X170300000Y-78700000D01*
X184300000Y-80950000D02*
X184300000Y-79300000D01*
X184300000Y-79300000D02*
X183821724Y-78821724D01*
%TD*%
D28*
%TO.N,/DRAIN_4*%
X159748639Y-96437660D02*
X155651345Y-96508303D01*
X155627642Y-91838777D01*
X159772344Y-91815227D01*
X159748639Y-96437660D01*
%TA.AperFunction,Conductor*%
D29*
G36*
X159748639Y-96437660D02*
G01*
X155651345Y-96508303D01*
X155627642Y-91838777D01*
X159772344Y-91815227D01*
X159748639Y-96437660D01*
G37*
%TD.AperFunction*%
%TD*%
D28*
%TO.N,/DRAIN_3*%
X164373000Y-91826610D02*
X164373000Y-96484717D01*
X160558250Y-96461278D01*
X160558250Y-93783174D01*
X160586969Y-93688500D01*
X160603072Y-93525000D01*
X160603072Y-92175000D01*
X160586969Y-92011500D01*
X160558250Y-91916826D01*
X160558250Y-91814890D01*
X164373000Y-91826610D01*
%TA.AperFunction,Conductor*%
D29*
G36*
X164373000Y-91826610D02*
G01*
X164373000Y-96484717D01*
X160558250Y-96461278D01*
X160558250Y-93783174D01*
X160586969Y-93688500D01*
X160603072Y-93525000D01*
X160603072Y-92175000D01*
X160586969Y-92011500D01*
X160558250Y-91916826D01*
X160558250Y-91814890D01*
X164373000Y-91826610D01*
G37*
%TD.AperFunction*%
%TD*%
D28*
%TO.N,/DRAIN_2*%
X169673000Y-96473000D02*
X165550710Y-96473000D01*
X165503302Y-91827000D01*
X169673000Y-91827000D01*
X169673000Y-96473000D01*
%TA.AperFunction,Conductor*%
D29*
G36*
X169673000Y-96473000D02*
G01*
X165550710Y-96473000D01*
X165503302Y-91827000D01*
X169673000Y-91827000D01*
X169673000Y-96473000D01*
G37*
%TD.AperFunction*%
%TD*%
D28*
%TO.N,/DRAIN_1*%
X174473000Y-96473264D02*
X170522130Y-96481485D01*
X170526871Y-91827000D01*
X174473000Y-91827000D01*
X174473000Y-96473264D01*
%TA.AperFunction,Conductor*%
D29*
G36*
X174473000Y-96473264D02*
G01*
X170522130Y-96481485D01*
X170526871Y-91827000D01*
X174473000Y-91827000D01*
X174473000Y-96473264D01*
G37*
%TD.AperFunction*%
%TD*%
D28*
%TO.N,/DRAIN_5*%
X183994389Y-60832325D02*
X184003982Y-65404506D01*
X180127000Y-65389491D01*
X180127000Y-60811680D01*
X183994389Y-60832325D01*
%TA.AperFunction,Conductor*%
D29*
G36*
X183994389Y-60832325D02*
G01*
X184003982Y-65404506D01*
X180127000Y-65389491D01*
X180127000Y-60811680D01*
X183994389Y-60832325D01*
G37*
%TD.AperFunction*%
%TD*%
D28*
%TO.N,/DRAIN_6*%
X179273000Y-60826342D02*
X179273000Y-65373661D01*
X174938905Y-65396277D01*
X174915099Y-60803727D01*
X179273000Y-60826342D01*
%TA.AperFunction,Conductor*%
D29*
G36*
X179273000Y-60826342D02*
G01*
X179273000Y-65373661D01*
X174938905Y-65396277D01*
X174915099Y-60803727D01*
X179273000Y-60826342D01*
G37*
%TD.AperFunction*%
%TD*%
D28*
%TO.N,/DRAIN_7*%
X173971519Y-60847973D02*
X173974482Y-65473000D01*
X170027000Y-65473000D01*
X170027000Y-60827656D01*
X173971519Y-60847973D01*
%TA.AperFunction,Conductor*%
D29*
G36*
X173971519Y-60847973D02*
G01*
X173974482Y-65473000D01*
X170027000Y-65473000D01*
X170027000Y-60827656D01*
X173971519Y-60847973D01*
G37*
%TD.AperFunction*%
%TD*%
D28*
%TO.N,/DRAIN_8*%
X169173000Y-60826803D02*
X169173000Y-65479546D01*
X165215147Y-65473204D01*
X165238853Y-60820696D01*
X169173000Y-60826803D01*
%TA.AperFunction,Conductor*%
D29*
G36*
X169173000Y-60826803D02*
G01*
X169173000Y-65479546D01*
X165215147Y-65473204D01*
X165238853Y-60820696D01*
X169173000Y-60826803D01*
G37*
%TD.AperFunction*%
%TD*%
D28*
%TO.N,GND*%
X195340001Y-100340000D02*
X125461133Y-100340000D01*
X125695679Y-100293346D01*
X126129721Y-100113560D01*
X126520349Y-99852550D01*
X126852550Y-99520349D01*
X127113560Y-99129721D01*
X127293346Y-98695679D01*
X127348181Y-98420000D01*
X128781928Y-98420000D01*
X128794188Y-98544482D01*
X128830498Y-98664180D01*
X128889463Y-98774494D01*
X128968815Y-98871185D01*
X129065506Y-98950537D01*
X129175820Y-99009502D01*
X129295518Y-99045812D01*
X129420000Y-99058072D01*
X129984250Y-99055000D01*
X130143000Y-98896250D01*
X130143000Y-97697000D01*
X128943750Y-97697000D01*
X128785000Y-97855750D01*
X128781928Y-98420000D01*
X127348181Y-98420000D01*
X127385000Y-98234902D01*
X127385000Y-97765098D01*
X127293346Y-97304321D01*
X127113560Y-96870279D01*
X127013147Y-96720000D01*
X128781928Y-96720000D01*
X128785000Y-97284250D01*
X128943750Y-97443000D01*
X130143000Y-97443000D01*
X130143000Y-96243750D01*
X130397000Y-96243750D01*
X130397000Y-97443000D01*
X130417000Y-97443000D01*
X130417000Y-97697000D01*
X130397000Y-97697000D01*
X130397000Y-98896250D01*
X130555750Y-99055000D01*
X131120000Y-99058072D01*
X131244482Y-99045812D01*
X131364180Y-99009502D01*
X131474494Y-98950537D01*
X131571185Y-98871185D01*
X131650537Y-98774494D01*
X131709502Y-98664180D01*
X131731513Y-98591620D01*
X131863368Y-98723475D01*
X132106589Y-98885990D01*
X132376842Y-98997932D01*
X132663740Y-99055000D01*
X132956260Y-99055000D01*
X133243158Y-98997932D01*
X133513411Y-98885990D01*
X133756632Y-98723475D01*
X133963475Y-98516632D01*
X134080000Y-98342240D01*
X134196525Y-98516632D01*
X134403368Y-98723475D01*
X134646589Y-98885990D01*
X134916842Y-98997932D01*
X135203740Y-99055000D01*
X135496260Y-99055000D01*
X135783158Y-98997932D01*
X136053411Y-98885990D01*
X136296632Y-98723475D01*
X136503475Y-98516632D01*
X136568042Y-98420000D01*
X137581928Y-98420000D01*
X137594188Y-98544482D01*
X137630498Y-98664180D01*
X137689463Y-98774494D01*
X137768815Y-98871185D01*
X137865506Y-98950537D01*
X137975820Y-99009502D01*
X138095518Y-99045812D01*
X138220000Y-99058072D01*
X138784250Y-99055000D01*
X138943000Y-98896250D01*
X138943000Y-97697000D01*
X137743750Y-97697000D01*
X137585000Y-97855750D01*
X137581928Y-98420000D01*
X136568042Y-98420000D01*
X136665990Y-98273411D01*
X136777932Y-98003158D01*
X136835000Y-97716260D01*
X136835000Y-97423740D01*
X136777932Y-97136842D01*
X136665990Y-96866589D01*
X136568043Y-96720000D01*
X137581928Y-96720000D01*
X137585000Y-97284250D01*
X137743750Y-97443000D01*
X138943000Y-97443000D01*
X138943000Y-96243750D01*
X139197000Y-96243750D01*
X139197000Y-97443000D01*
X139217000Y-97443000D01*
X139217000Y-97697000D01*
X139197000Y-97697000D01*
X139197000Y-98896250D01*
X139355750Y-99055000D01*
X139920000Y-99058072D01*
X140044482Y-99045812D01*
X140164180Y-99009502D01*
X140274494Y-98950537D01*
X140371185Y-98871185D01*
X140450537Y-98774494D01*
X140509502Y-98664180D01*
X140531513Y-98591620D01*
X140663368Y-98723475D01*
X140906589Y-98885990D01*
X141176842Y-98997932D01*
X141463740Y-99055000D01*
X141756260Y-99055000D01*
X142043158Y-98997932D01*
X142313411Y-98885990D01*
X142556632Y-98723475D01*
X142763475Y-98516632D01*
X142880000Y-98342240D01*
X142996525Y-98516632D01*
X143203368Y-98723475D01*
X143446589Y-98885990D01*
X143716842Y-98997932D01*
X144003740Y-99055000D01*
X144296260Y-99055000D01*
X144583158Y-98997932D01*
X144853411Y-98885990D01*
X145096632Y-98723475D01*
X145303475Y-98516632D01*
X145420000Y-98342240D01*
X145536525Y-98516632D01*
X145743368Y-98723475D01*
X145986589Y-98885990D01*
X146256842Y-98997932D01*
X146543740Y-99055000D01*
X146836260Y-99055000D01*
X147123158Y-98997932D01*
X147393411Y-98885990D01*
X147636632Y-98723475D01*
X147843475Y-98516632D01*
X148005990Y-98273411D01*
X148117932Y-98003158D01*
X148175000Y-97716260D01*
X148175000Y-97423740D01*
X148117932Y-97136842D01*
X148005990Y-96866589D01*
X147843475Y-96623368D01*
X147636632Y-96416525D01*
X147393411Y-96254010D01*
X147123158Y-96142068D01*
X146836260Y-96085000D01*
X146543740Y-96085000D01*
X146256842Y-96142068D01*
X145986589Y-96254010D01*
X145743368Y-96416525D01*
X145536525Y-96623368D01*
X145420000Y-96797760D01*
X145303475Y-96623368D01*
X145096632Y-96416525D01*
X144853411Y-96254010D01*
X144583158Y-96142068D01*
X144303217Y-96086384D01*
X144322500Y-95989439D01*
X144322500Y-95888072D01*
X145600000Y-95888072D01*
X145724482Y-95875812D01*
X145844180Y-95839502D01*
X145954494Y-95780537D01*
X146051185Y-95701185D01*
X146130537Y-95604494D01*
X146185976Y-95500777D01*
X146239956Y-95649814D01*
X146529571Y-95790704D01*
X146841108Y-95872384D01*
X147162595Y-95891718D01*
X147481675Y-95847961D01*
X147786088Y-95742795D01*
X147960044Y-95649814D01*
X148055808Y-95385413D01*
X147100000Y-94429605D01*
X147085858Y-94443748D01*
X146906253Y-94264143D01*
X146920395Y-94250000D01*
X147279605Y-94250000D01*
X148235413Y-95205808D01*
X148265075Y-95195065D01*
X148330013Y-95292252D01*
X148557748Y-95519987D01*
X148825537Y-95698918D01*
X149123088Y-95822168D01*
X149438967Y-95885000D01*
X149761033Y-95885000D01*
X150076912Y-95822168D01*
X150374463Y-95698918D01*
X150642252Y-95519987D01*
X150869987Y-95292252D01*
X151048918Y-95024463D01*
X151172168Y-94726912D01*
X151235000Y-94411033D01*
X151235000Y-94088967D01*
X151172168Y-93773088D01*
X151048918Y-93475537D01*
X150869987Y-93207748D01*
X150642252Y-92980013D01*
X150374463Y-92801082D01*
X150076912Y-92677832D01*
X149761033Y-92615000D01*
X149438967Y-92615000D01*
X149123088Y-92677832D01*
X148825537Y-92801082D01*
X148557748Y-92980013D01*
X148330013Y-93207748D01*
X148265075Y-93304935D01*
X148235413Y-93294192D01*
X147279605Y-94250000D01*
X146920395Y-94250000D01*
X146906253Y-94235858D01*
X147085858Y-94056253D01*
X147100000Y-94070395D01*
X148055808Y-93114587D01*
X147960044Y-92850186D01*
X147670429Y-92709296D01*
X147358892Y-92627616D01*
X147037405Y-92608282D01*
X146718325Y-92652039D01*
X146413912Y-92757205D01*
X146239956Y-92850186D01*
X146185976Y-92999223D01*
X146130537Y-92895506D01*
X146051185Y-92798815D01*
X145954494Y-92719463D01*
X145844180Y-92660498D01*
X145724482Y-92624188D01*
X145600000Y-92611928D01*
X143600000Y-92611928D01*
X143475518Y-92624188D01*
X143355820Y-92660498D01*
X143245506Y-92719463D01*
X143148815Y-92798815D01*
X143069463Y-92895506D01*
X143010498Y-93005820D01*
X142974188Y-93125518D01*
X142961928Y-93250000D01*
X142961928Y-93490000D01*
X141503711Y-93490000D01*
X141459774Y-93446063D01*
X141290256Y-93332795D01*
X141101898Y-93254774D01*
X140901939Y-93215000D01*
X140698061Y-93215000D01*
X140498102Y-93254774D01*
X140309744Y-93332795D01*
X140140226Y-93446063D01*
X139996063Y-93590226D01*
X139882795Y-93759744D01*
X139804774Y-93948102D01*
X139765000Y-94148061D01*
X139765000Y-94351939D01*
X139804774Y-94551898D01*
X139882795Y-94740256D01*
X139996063Y-94909774D01*
X140061289Y-94975000D01*
X140058563Y-94977726D01*
X139945295Y-95147244D01*
X139867274Y-95335602D01*
X139827500Y-95535561D01*
X139827500Y-95739439D01*
X139867274Y-95939398D01*
X139926581Y-96082576D01*
X139920000Y-96081928D01*
X139355750Y-96085000D01*
X139197000Y-96243750D01*
X138943000Y-96243750D01*
X138784250Y-96085000D01*
X138220000Y-96081928D01*
X138095518Y-96094188D01*
X137975820Y-96130498D01*
X137865506Y-96189463D01*
X137768815Y-96268815D01*
X137689463Y-96365506D01*
X137630498Y-96475820D01*
X137594188Y-96595518D01*
X137581928Y-96720000D01*
X136568043Y-96720000D01*
X136503475Y-96623368D01*
X136296632Y-96416525D01*
X136053411Y-96254010D01*
X135783158Y-96142068D01*
X135496260Y-96085000D01*
X135203740Y-96085000D01*
X134916842Y-96142068D01*
X134646589Y-96254010D01*
X134403368Y-96416525D01*
X134196525Y-96623368D01*
X134080000Y-96797760D01*
X133963475Y-96623368D01*
X133756632Y-96416525D01*
X133513411Y-96254010D01*
X133243158Y-96142068D01*
X132956260Y-96085000D01*
X132663740Y-96085000D01*
X132376842Y-96142068D01*
X132106589Y-96254010D01*
X131863368Y-96416525D01*
X131731513Y-96548380D01*
X131709502Y-96475820D01*
X131650537Y-96365506D01*
X131571185Y-96268815D01*
X131474494Y-96189463D01*
X131364180Y-96130498D01*
X131244482Y-96094188D01*
X131120000Y-96081928D01*
X130555750Y-96085000D01*
X130397000Y-96243750D01*
X130143000Y-96243750D01*
X129984250Y-96085000D01*
X129420000Y-96081928D01*
X129295518Y-96094188D01*
X129175820Y-96130498D01*
X129065506Y-96189463D01*
X128968815Y-96268815D01*
X128889463Y-96365506D01*
X128830498Y-96475820D01*
X128794188Y-96595518D01*
X128781928Y-96720000D01*
X127013147Y-96720000D01*
X126852550Y-96479651D01*
X126520349Y-96147450D01*
X126129721Y-95886440D01*
X125695679Y-95706654D01*
X125234902Y-95615000D01*
X124765098Y-95615000D01*
X124304321Y-95706654D01*
X123870279Y-95886440D01*
X123479651Y-96147450D01*
X123147450Y-96479651D01*
X122886440Y-96870279D01*
X122706654Y-97304321D01*
X122660000Y-97538867D01*
X122660000Y-92750000D01*
X125721928Y-92750000D01*
X125721928Y-94750000D01*
X125734188Y-94874482D01*
X125770498Y-94994180D01*
X125829463Y-95104494D01*
X125908815Y-95201185D01*
X126005506Y-95280537D01*
X126115820Y-95339502D01*
X126235518Y-95375812D01*
X126360000Y-95388072D01*
X128360000Y-95388072D01*
X128484482Y-95375812D01*
X128604180Y-95339502D01*
X128714494Y-95280537D01*
X128811185Y-95201185D01*
X128890537Y-95104494D01*
X128945976Y-95000777D01*
X128999956Y-95149814D01*
X129289571Y-95290704D01*
X129601108Y-95372384D01*
X129922595Y-95391718D01*
X130241675Y-95347961D01*
X130546088Y-95242795D01*
X130720044Y-95149814D01*
X130815808Y-94885413D01*
X129860000Y-93929605D01*
X129845858Y-93943748D01*
X129666253Y-93764143D01*
X129680395Y-93750000D01*
X130039605Y-93750000D01*
X130995413Y-94705808D01*
X131025075Y-94695065D01*
X131090013Y-94792252D01*
X131317748Y-95019987D01*
X131585537Y-95198918D01*
X131883088Y-95322168D01*
X132198967Y-95385000D01*
X132521033Y-95385000D01*
X132836912Y-95322168D01*
X133134463Y-95198918D01*
X133372300Y-95040000D01*
X136471289Y-95040000D01*
X136515226Y-95083937D01*
X136684744Y-95197205D01*
X136873102Y-95275226D01*
X137073061Y-95315000D01*
X137276939Y-95315000D01*
X137476898Y-95275226D01*
X137665256Y-95197205D01*
X137834774Y-95083937D01*
X137978937Y-94939774D01*
X138092205Y-94770256D01*
X138170226Y-94581898D01*
X138182752Y-94518925D01*
X138301898Y-94495226D01*
X138490256Y-94417205D01*
X138659774Y-94303937D01*
X138803937Y-94159774D01*
X138917205Y-93990256D01*
X138995226Y-93801898D01*
X139035000Y-93601939D01*
X139035000Y-93398061D01*
X138995226Y-93198102D01*
X138917205Y-93009744D01*
X138803937Y-92840226D01*
X138659774Y-92696063D01*
X138490256Y-92582795D01*
X138301898Y-92504774D01*
X138101939Y-92465000D01*
X137898061Y-92465000D01*
X137698102Y-92504774D01*
X137509744Y-92582795D01*
X137340226Y-92696063D01*
X137296289Y-92740000D01*
X136303711Y-92740000D01*
X136259774Y-92696063D01*
X136090256Y-92582795D01*
X135901898Y-92504774D01*
X135701939Y-92465000D01*
X135498061Y-92465000D01*
X135298102Y-92504774D01*
X135109744Y-92582795D01*
X134940226Y-92696063D01*
X134796063Y-92840226D01*
X134682795Y-93009744D01*
X134604774Y-93198102D01*
X134565000Y-93398061D01*
X134565000Y-93520000D01*
X133981282Y-93520000D01*
X133932168Y-93273088D01*
X133808918Y-92975537D01*
X133629987Y-92707748D01*
X133402252Y-92480013D01*
X133134463Y-92301082D01*
X132836912Y-92177832D01*
X132521033Y-92115000D01*
X132198967Y-92115000D01*
X131883088Y-92177832D01*
X131585537Y-92301082D01*
X131317748Y-92480013D01*
X131090013Y-92707748D01*
X131025075Y-92804935D01*
X130995413Y-92794192D01*
X130039605Y-93750000D01*
X129680395Y-93750000D01*
X129666253Y-93735858D01*
X129845858Y-93556253D01*
X129860000Y-93570395D01*
X130815808Y-92614587D01*
X130720044Y-92350186D01*
X130430429Y-92209296D01*
X130118892Y-92127616D01*
X129797405Y-92108282D01*
X129478325Y-92152039D01*
X129173912Y-92257205D01*
X128999956Y-92350186D01*
X128945976Y-92499223D01*
X128890537Y-92395506D01*
X128811185Y-92298815D01*
X128714494Y-92219463D01*
X128604180Y-92160498D01*
X128484482Y-92124188D01*
X128360000Y-92111928D01*
X126360000Y-92111928D01*
X126235518Y-92124188D01*
X126115820Y-92160498D01*
X126005506Y-92219463D01*
X125908815Y-92298815D01*
X125829463Y-92395506D01*
X125770498Y-92505820D01*
X125734188Y-92625518D01*
X125721928Y-92750000D01*
X122660000Y-92750000D01*
X122660000Y-91200000D01*
X154573000Y-91200000D01*
X154573000Y-97200000D01*
X154575440Y-97224776D01*
X154582667Y-97248601D01*
X154594403Y-97270557D01*
X154610197Y-97289803D01*
X154629443Y-97305597D01*
X154651399Y-97317333D01*
X154675224Y-97324560D01*
X154699380Y-97326998D01*
X175199380Y-97426998D01*
X175224169Y-97424679D01*
X175248028Y-97417568D01*
X175270041Y-97405940D01*
X175289363Y-97390240D01*
X175305251Y-97371072D01*
X175317094Y-97349173D01*
X175324437Y-97325384D01*
X175327000Y-97300000D01*
X175327000Y-97263128D01*
X190095000Y-97263128D01*
X190095000Y-97736872D01*
X190187423Y-98201513D01*
X190368716Y-98639195D01*
X190631914Y-99033098D01*
X190966902Y-99368086D01*
X191360805Y-99631284D01*
X191798487Y-99812577D01*
X192263128Y-99905000D01*
X192736872Y-99905000D01*
X193201513Y-99812577D01*
X193639195Y-99631284D01*
X194033098Y-99368086D01*
X194368086Y-99033098D01*
X194631284Y-98639195D01*
X194812577Y-98201513D01*
X194905000Y-97736872D01*
X194905000Y-97263128D01*
X194812577Y-96798487D01*
X194631284Y-96360805D01*
X194368086Y-95966902D01*
X194033098Y-95631914D01*
X193639195Y-95368716D01*
X193201513Y-95187423D01*
X192736872Y-95095000D01*
X192263128Y-95095000D01*
X191798487Y-95187423D01*
X191360805Y-95368716D01*
X190966902Y-95631914D01*
X190631914Y-95966902D01*
X190368716Y-96360805D01*
X190187423Y-96798487D01*
X190095000Y-97263128D01*
X175327000Y-97263128D01*
X175327000Y-94340000D01*
X176401928Y-94340000D01*
X176401928Y-96440000D01*
X176414188Y-96564482D01*
X176450498Y-96684180D01*
X176509463Y-96794494D01*
X176588815Y-96891185D01*
X176685506Y-96970537D01*
X176795820Y-97029502D01*
X176915518Y-97065812D01*
X177040000Y-97078072D01*
X179140000Y-97078072D01*
X179264482Y-97065812D01*
X179384180Y-97029502D01*
X179494494Y-96970537D01*
X179591185Y-96891185D01*
X179670537Y-96794494D01*
X179729502Y-96684180D01*
X179765812Y-96564482D01*
X179778072Y-96440000D01*
X179778072Y-94340000D01*
X179765812Y-94215518D01*
X179729502Y-94095820D01*
X179670537Y-93985506D01*
X179591185Y-93888815D01*
X179494494Y-93809463D01*
X179384180Y-93750498D01*
X179264482Y-93714188D01*
X179140000Y-93701928D01*
X177040000Y-93701928D01*
X176915518Y-93714188D01*
X176795820Y-93750498D01*
X176685506Y-93809463D01*
X176588815Y-93888815D01*
X176509463Y-93985506D01*
X176450498Y-94095820D01*
X176414188Y-94215518D01*
X176401928Y-94340000D01*
X175327000Y-94340000D01*
X175327000Y-91100000D01*
X175324560Y-91075224D01*
X175317333Y-91051399D01*
X175305597Y-91029443D01*
X175289803Y-91010197D01*
X175270557Y-90994403D01*
X175248601Y-90982667D01*
X175224776Y-90975440D01*
X175198573Y-90973008D01*
X174676813Y-90978870D01*
X174663010Y-90970983D01*
X174640287Y-90960809D01*
X174616016Y-90955264D01*
X174599242Y-90954252D01*
X169791941Y-90982939D01*
X169890256Y-90942215D01*
X170059774Y-90828947D01*
X170203937Y-90684784D01*
X170317205Y-90515266D01*
X170395226Y-90326908D01*
X170435000Y-90126949D01*
X170435000Y-89923071D01*
X170395226Y-89723112D01*
X170317205Y-89534754D01*
X170203937Y-89365236D01*
X170160000Y-89321299D01*
X170160000Y-89198061D01*
X170870000Y-89198061D01*
X170870000Y-89401939D01*
X170909774Y-89601898D01*
X170987795Y-89790256D01*
X171101063Y-89959774D01*
X171245226Y-90103937D01*
X171414744Y-90217205D01*
X171603102Y-90295226D01*
X171803061Y-90335000D01*
X172006939Y-90335000D01*
X172206898Y-90295226D01*
X172395256Y-90217205D01*
X172564774Y-90103937D01*
X172708937Y-89959774D01*
X172822205Y-89790256D01*
X172900226Y-89601898D01*
X172940000Y-89401939D01*
X172940000Y-89198061D01*
X172900226Y-88998102D01*
X172857410Y-88894735D01*
X172901831Y-88840608D01*
X172979278Y-88695716D01*
X173026969Y-88538500D01*
X173043072Y-88375000D01*
X173043072Y-87025000D01*
X173026969Y-86861500D01*
X172979278Y-86704284D01*
X172901831Y-86559392D01*
X172797606Y-86432394D01*
X172670608Y-86328169D01*
X172525716Y-86250722D01*
X172368500Y-86203031D01*
X172205000Y-86186928D01*
X171805000Y-86186928D01*
X171641500Y-86203031D01*
X171484284Y-86250722D01*
X171339392Y-86328169D01*
X171212394Y-86432394D01*
X171108169Y-86559392D01*
X171030722Y-86704284D01*
X170983031Y-86861500D01*
X170966928Y-87025000D01*
X170966928Y-88375000D01*
X170983031Y-88538500D01*
X171030722Y-88695716D01*
X171045506Y-88723374D01*
X170987795Y-88809744D01*
X170909774Y-88998102D01*
X170870000Y-89198061D01*
X170160000Y-89198061D01*
X170160000Y-89047710D01*
X170257606Y-88967606D01*
X170361831Y-88840608D01*
X170439278Y-88695716D01*
X170486969Y-88538500D01*
X170503072Y-88375000D01*
X170503072Y-87025000D01*
X170486969Y-86861500D01*
X170439278Y-86704284D01*
X170361831Y-86559392D01*
X170257606Y-86432394D01*
X170130608Y-86328169D01*
X169985716Y-86250722D01*
X169828500Y-86203031D01*
X169665000Y-86186928D01*
X169265000Y-86186928D01*
X169101500Y-86203031D01*
X168944284Y-86250722D01*
X168799392Y-86328169D01*
X168672394Y-86432394D01*
X168568169Y-86559392D01*
X168490722Y-86704284D01*
X168443031Y-86861500D01*
X168426928Y-87025000D01*
X168426928Y-88375000D01*
X168443031Y-88538500D01*
X168490722Y-88695716D01*
X168568169Y-88840608D01*
X168640000Y-88928135D01*
X168640000Y-89321299D01*
X168596063Y-89365236D01*
X168482795Y-89534754D01*
X168404774Y-89723112D01*
X168365000Y-89923071D01*
X168365000Y-90126949D01*
X168404774Y-90326908D01*
X168482795Y-90515266D01*
X168596063Y-90684784D01*
X168740226Y-90828947D01*
X168909744Y-90942215D01*
X169019192Y-90987550D01*
X154699242Y-91073002D01*
X154674481Y-91075590D01*
X154650700Y-91082959D01*
X154628814Y-91094826D01*
X154609663Y-91110735D01*
X154593984Y-91130074D01*
X154582379Y-91152100D01*
X154575295Y-91175967D01*
X154573000Y-91200000D01*
X122660000Y-91200000D01*
X122660000Y-88998061D01*
X158465000Y-88998061D01*
X158465000Y-89201939D01*
X158504774Y-89401898D01*
X158582795Y-89590256D01*
X158696063Y-89759774D01*
X158840226Y-89903937D01*
X159009744Y-90017205D01*
X159198102Y-90095226D01*
X159398061Y-90135000D01*
X159601939Y-90135000D01*
X159801898Y-90095226D01*
X159990256Y-90017205D01*
X160159774Y-89903937D01*
X160303937Y-89759774D01*
X160417205Y-89590256D01*
X160495226Y-89401898D01*
X160535000Y-89201939D01*
X160535000Y-88998061D01*
X160965000Y-88998061D01*
X160965000Y-89201939D01*
X161004774Y-89401898D01*
X161082795Y-89590256D01*
X161196063Y-89759774D01*
X161340226Y-89903937D01*
X161509744Y-90017205D01*
X161698102Y-90095226D01*
X161898061Y-90135000D01*
X162101939Y-90135000D01*
X162301898Y-90095226D01*
X162490256Y-90017205D01*
X162659774Y-89903937D01*
X162803937Y-89759774D01*
X162917205Y-89590256D01*
X162995226Y-89401898D01*
X163035000Y-89201939D01*
X163035000Y-88998061D01*
X162995315Y-88798548D01*
X163001831Y-88790608D01*
X163079278Y-88645716D01*
X163126969Y-88488500D01*
X163143072Y-88325000D01*
X163143072Y-86975000D01*
X163126969Y-86811500D01*
X163079278Y-86654284D01*
X163001831Y-86509392D01*
X162897606Y-86382394D01*
X162770608Y-86278169D01*
X162625716Y-86200722D01*
X162468500Y-86153031D01*
X162305000Y-86136928D01*
X161905000Y-86136928D01*
X161741500Y-86153031D01*
X161584284Y-86200722D01*
X161439392Y-86278169D01*
X161312394Y-86382394D01*
X161208169Y-86509392D01*
X161130722Y-86654284D01*
X161083031Y-86811500D01*
X161066928Y-86975000D01*
X161066928Y-88325000D01*
X161083031Y-88488500D01*
X161108252Y-88571644D01*
X161082795Y-88609744D01*
X161004774Y-88798102D01*
X160965000Y-88998061D01*
X160535000Y-88998061D01*
X160495226Y-88798102D01*
X160478897Y-88758680D01*
X160539278Y-88645716D01*
X160586969Y-88488500D01*
X160603072Y-88325000D01*
X160603072Y-86975000D01*
X160586969Y-86811500D01*
X160539278Y-86654284D01*
X160461831Y-86509392D01*
X160357606Y-86382394D01*
X160230608Y-86278169D01*
X160085716Y-86200722D01*
X159928500Y-86153031D01*
X159765000Y-86136928D01*
X159365000Y-86136928D01*
X159201500Y-86153031D01*
X159044284Y-86200722D01*
X158899392Y-86278169D01*
X158772394Y-86382394D01*
X158668169Y-86509392D01*
X158590722Y-86654284D01*
X158543031Y-86811500D01*
X158526928Y-86975000D01*
X158526928Y-88325000D01*
X158543031Y-88488500D01*
X158581072Y-88613904D01*
X158504774Y-88798102D01*
X158465000Y-88998061D01*
X122660000Y-88998061D01*
X122660000Y-88282939D01*
X122765820Y-88339502D01*
X122885518Y-88375812D01*
X123010000Y-88388072D01*
X125510000Y-88388072D01*
X125634482Y-88375812D01*
X125754180Y-88339502D01*
X125864494Y-88280537D01*
X125961185Y-88201185D01*
X126040537Y-88104494D01*
X126099502Y-87994180D01*
X126135812Y-87874482D01*
X126148072Y-87750000D01*
X126148072Y-84750000D01*
X126135812Y-84625518D01*
X126099502Y-84505820D01*
X126040537Y-84395506D01*
X125961185Y-84298815D01*
X125864494Y-84219463D01*
X125754180Y-84160498D01*
X125634482Y-84124188D01*
X125510000Y-84111928D01*
X123010000Y-84111928D01*
X122885518Y-84124188D01*
X122765820Y-84160498D01*
X122660000Y-84217061D01*
X122660000Y-83998061D01*
X131365000Y-83998061D01*
X131365000Y-84201939D01*
X131404774Y-84401898D01*
X131482795Y-84590256D01*
X131596063Y-84759774D01*
X131740226Y-84903937D01*
X131909744Y-85017205D01*
X132098102Y-85095226D01*
X132298061Y-85135000D01*
X132501939Y-85135000D01*
X132701898Y-85095226D01*
X132890256Y-85017205D01*
X133059774Y-84903937D01*
X133071928Y-84891783D01*
X133071928Y-87750000D01*
X133084188Y-87874482D01*
X133120498Y-87994180D01*
X133179463Y-88104494D01*
X133258815Y-88201185D01*
X133355506Y-88280537D01*
X133465820Y-88339502D01*
X133585518Y-88375812D01*
X133710000Y-88388072D01*
X136210000Y-88388072D01*
X136334482Y-88375812D01*
X136454180Y-88339502D01*
X136564494Y-88280537D01*
X136661185Y-88201185D01*
X136740537Y-88104494D01*
X136799502Y-87994180D01*
X136835812Y-87874482D01*
X136848072Y-87750000D01*
X136848072Y-85250000D01*
X139611928Y-85250000D01*
X139611928Y-88250000D01*
X139624188Y-88374482D01*
X139660498Y-88494180D01*
X139719463Y-88604494D01*
X139798815Y-88701185D01*
X139895506Y-88780537D01*
X140005820Y-88839502D01*
X140125518Y-88875812D01*
X140250000Y-88888072D01*
X142750000Y-88888072D01*
X142874482Y-88875812D01*
X142994180Y-88839502D01*
X143104494Y-88780537D01*
X143201185Y-88701185D01*
X143280537Y-88604494D01*
X143339502Y-88494180D01*
X143375812Y-88374482D01*
X143388072Y-88250000D01*
X143388072Y-85835907D01*
X143509744Y-85917205D01*
X143698102Y-85995226D01*
X143898061Y-86035000D01*
X144101939Y-86035000D01*
X144301898Y-85995226D01*
X144490256Y-85917205D01*
X144625000Y-85827172D01*
X144759744Y-85917205D01*
X144948102Y-85995226D01*
X145148061Y-86035000D01*
X145351939Y-86035000D01*
X145551898Y-85995226D01*
X145740256Y-85917205D01*
X145909774Y-85803937D01*
X146053937Y-85659774D01*
X146167205Y-85490256D01*
X146245226Y-85301898D01*
X146285000Y-85101939D01*
X146285000Y-84898061D01*
X146245226Y-84698102D01*
X146205539Y-84602291D01*
X146315000Y-84613072D01*
X146615000Y-84613072D01*
X146641058Y-84610505D01*
X146604774Y-84698102D01*
X146565000Y-84898061D01*
X146565000Y-85101939D01*
X146604774Y-85301898D01*
X146682795Y-85490256D01*
X146796063Y-85659774D01*
X146940226Y-85803937D01*
X147109744Y-85917205D01*
X147298102Y-85995226D01*
X147498061Y-86035000D01*
X147701939Y-86035000D01*
X147901898Y-85995226D01*
X148090256Y-85917205D01*
X148259774Y-85803937D01*
X148350000Y-85713711D01*
X148440226Y-85803937D01*
X148609744Y-85917205D01*
X148798102Y-85995226D01*
X148998061Y-86035000D01*
X149201939Y-86035000D01*
X149401898Y-85995226D01*
X149590256Y-85917205D01*
X149759774Y-85803937D01*
X149903937Y-85659774D01*
X150017205Y-85490256D01*
X150095226Y-85301898D01*
X150135000Y-85101939D01*
X150135000Y-84898061D01*
X150095226Y-84698102D01*
X150057241Y-84606398D01*
X150125000Y-84613072D01*
X150425000Y-84613072D01*
X150578745Y-84597929D01*
X150726582Y-84553084D01*
X150862829Y-84480258D01*
X150910000Y-84441546D01*
X150957171Y-84480258D01*
X151093418Y-84553084D01*
X151241255Y-84597929D01*
X151383385Y-84611928D01*
X150950000Y-84611928D01*
X150825518Y-84624188D01*
X150705820Y-84660498D01*
X150595506Y-84719463D01*
X150498815Y-84798815D01*
X150419463Y-84895506D01*
X150360498Y-85005820D01*
X150324188Y-85125518D01*
X150311928Y-85250000D01*
X150311928Y-88250000D01*
X150324188Y-88374482D01*
X150360498Y-88494180D01*
X150419463Y-88604494D01*
X150498815Y-88701185D01*
X150595506Y-88780537D01*
X150705820Y-88839502D01*
X150825518Y-88875812D01*
X150950000Y-88888072D01*
X153450000Y-88888072D01*
X153574482Y-88875812D01*
X153694180Y-88839502D01*
X153804494Y-88780537D01*
X153901185Y-88701185D01*
X153980537Y-88604494D01*
X154039502Y-88494180D01*
X154075812Y-88374482D01*
X154088072Y-88250000D01*
X154088072Y-85925000D01*
X181986928Y-85925000D01*
X181986928Y-87875000D01*
X181999188Y-87999482D01*
X182035498Y-88119180D01*
X182094463Y-88229494D01*
X182173815Y-88326185D01*
X182270506Y-88405537D01*
X182380820Y-88464502D01*
X182500518Y-88500812D01*
X182625000Y-88513072D01*
X184575000Y-88513072D01*
X184699482Y-88500812D01*
X184819180Y-88464502D01*
X184929494Y-88405537D01*
X185026185Y-88326185D01*
X185105537Y-88229494D01*
X185164502Y-88119180D01*
X185200812Y-87999482D01*
X185213072Y-87875000D01*
X185213072Y-85925000D01*
X185200812Y-85800518D01*
X185164502Y-85680820D01*
X185105537Y-85570506D01*
X185026185Y-85473815D01*
X184929494Y-85394463D01*
X184819180Y-85335498D01*
X184699482Y-85299188D01*
X184575000Y-85286928D01*
X182625000Y-85286928D01*
X182500518Y-85299188D01*
X182380820Y-85335498D01*
X182270506Y-85394463D01*
X182173815Y-85473815D01*
X182094463Y-85570506D01*
X182035498Y-85680820D01*
X181999188Y-85800518D01*
X181986928Y-85925000D01*
X154088072Y-85925000D01*
X154088072Y-85250000D01*
X154075812Y-85125518D01*
X154039502Y-85005820D01*
X153980537Y-84895506D01*
X153901185Y-84798815D01*
X153804494Y-84719463D01*
X153694180Y-84660498D01*
X153574482Y-84624188D01*
X153450000Y-84611928D01*
X152976615Y-84611928D01*
X153118745Y-84597929D01*
X153266582Y-84553084D01*
X153402829Y-84480258D01*
X153522251Y-84382251D01*
X153620258Y-84262829D01*
X153693084Y-84126582D01*
X153737929Y-83978745D01*
X153753072Y-83825000D01*
X153753072Y-83406160D01*
X153898061Y-83435000D01*
X154101939Y-83435000D01*
X154301898Y-83395226D01*
X154490256Y-83317205D01*
X154659774Y-83203937D01*
X154803937Y-83059774D01*
X154917205Y-82890256D01*
X154995226Y-82701898D01*
X155035000Y-82501939D01*
X155035000Y-82298061D01*
X154995226Y-82098102D01*
X154917205Y-81909744D01*
X154803937Y-81740226D01*
X154659774Y-81596063D01*
X154490256Y-81482795D01*
X154301898Y-81404774D01*
X154101939Y-81365000D01*
X153898061Y-81365000D01*
X153698102Y-81404774D01*
X153509744Y-81482795D01*
X153493161Y-81493875D01*
X153402829Y-81419742D01*
X153266582Y-81346916D01*
X153118745Y-81302071D01*
X152965000Y-81286928D01*
X152665000Y-81286928D01*
X152535000Y-81299732D01*
X152535000Y-81198061D01*
X152495226Y-80998102D01*
X152417205Y-80809744D01*
X152303937Y-80640226D01*
X152159774Y-80496063D01*
X151990256Y-80382795D01*
X151801898Y-80304774D01*
X151601939Y-80265000D01*
X151398061Y-80265000D01*
X151198102Y-80304774D01*
X151009744Y-80382795D01*
X150941863Y-80428152D01*
X150934774Y-80421063D01*
X150765256Y-80307795D01*
X150576898Y-80229774D01*
X150376939Y-80190000D01*
X150173061Y-80190000D01*
X149973102Y-80229774D01*
X149784744Y-80307795D01*
X149656208Y-80393680D01*
X149490256Y-80282795D01*
X149301898Y-80204774D01*
X149101939Y-80165000D01*
X148898061Y-80165000D01*
X148698102Y-80204774D01*
X148509744Y-80282795D01*
X148340226Y-80396063D01*
X148196063Y-80540226D01*
X148082795Y-80709744D01*
X148004774Y-80898102D01*
X147965000Y-81098061D01*
X147965000Y-81294808D01*
X147885000Y-81286928D01*
X147585000Y-81286928D01*
X147485000Y-81296777D01*
X147485000Y-81098061D01*
X147445226Y-80898102D01*
X147367205Y-80709744D01*
X147253937Y-80540226D01*
X147109774Y-80396063D01*
X146940256Y-80282795D01*
X146751898Y-80204774D01*
X146551939Y-80165000D01*
X146348061Y-80165000D01*
X146148102Y-80204774D01*
X145959744Y-80282795D01*
X145790226Y-80396063D01*
X145646063Y-80540226D01*
X145532795Y-80709744D01*
X145454774Y-80898102D01*
X145415000Y-81098061D01*
X145415000Y-81293823D01*
X145345000Y-81286928D01*
X145045000Y-81286928D01*
X144891255Y-81302071D01*
X144743418Y-81346916D01*
X144607171Y-81419742D01*
X144560000Y-81458454D01*
X144512829Y-81419742D01*
X144376582Y-81346916D01*
X144228745Y-81302071D01*
X144075000Y-81286928D01*
X143775000Y-81286928D01*
X143621255Y-81302071D01*
X143473418Y-81346916D01*
X143337171Y-81419742D01*
X143290000Y-81458454D01*
X143242829Y-81419742D01*
X143106582Y-81346916D01*
X142958745Y-81302071D01*
X142805000Y-81286928D01*
X142505000Y-81286928D01*
X142351255Y-81302071D01*
X142203418Y-81346916D01*
X142069064Y-81418730D01*
X142039494Y-81394463D01*
X141929180Y-81335498D01*
X141809482Y-81299188D01*
X141685000Y-81286928D01*
X141670750Y-81290000D01*
X141512000Y-81448750D01*
X141512000Y-82823000D01*
X141532000Y-82823000D01*
X141532000Y-83077000D01*
X141512000Y-83077000D01*
X141512000Y-84451250D01*
X141670750Y-84610000D01*
X141679693Y-84611928D01*
X141090307Y-84611928D01*
X141099250Y-84610000D01*
X141258000Y-84451250D01*
X141258000Y-83077000D01*
X140608750Y-83077000D01*
X140450000Y-83235750D01*
X140446928Y-83975000D01*
X140459188Y-84099482D01*
X140495498Y-84219180D01*
X140554463Y-84329494D01*
X140633815Y-84426185D01*
X140730506Y-84505537D01*
X140840820Y-84564502D01*
X140960518Y-84600812D01*
X141073384Y-84611928D01*
X140250000Y-84611928D01*
X140125518Y-84624188D01*
X140005820Y-84660498D01*
X139895506Y-84719463D01*
X139798815Y-84798815D01*
X139719463Y-84895506D01*
X139660498Y-85005820D01*
X139624188Y-85125518D01*
X139611928Y-85250000D01*
X136848072Y-85250000D01*
X136848072Y-84750000D01*
X136835812Y-84625518D01*
X136799502Y-84505820D01*
X136740537Y-84395506D01*
X136661185Y-84298815D01*
X136564494Y-84219463D01*
X136454180Y-84160498D01*
X136334482Y-84124188D01*
X136210000Y-84111928D01*
X135535000Y-84111928D01*
X135535000Y-83998061D01*
X135495226Y-83798102D01*
X135417205Y-83609744D01*
X135303937Y-83440226D01*
X135159774Y-83296063D01*
X134990256Y-83182795D01*
X134801898Y-83104774D01*
X134601939Y-83065000D01*
X134398061Y-83065000D01*
X134198102Y-83104774D01*
X134009744Y-83182795D01*
X133840226Y-83296063D01*
X133796289Y-83340000D01*
X133103711Y-83340000D01*
X133059774Y-83296063D01*
X132890256Y-83182795D01*
X132701898Y-83104774D01*
X132501939Y-83065000D01*
X132298061Y-83065000D01*
X132098102Y-83104774D01*
X131909744Y-83182795D01*
X131740226Y-83296063D01*
X131596063Y-83440226D01*
X131482795Y-83609744D01*
X131404774Y-83798102D01*
X131365000Y-83998061D01*
X122660000Y-83998061D01*
X122660000Y-81925000D01*
X140446928Y-81925000D01*
X140450000Y-82664250D01*
X140608750Y-82823000D01*
X141258000Y-82823000D01*
X141258000Y-81448750D01*
X141099250Y-81290000D01*
X141085000Y-81286928D01*
X140960518Y-81299188D01*
X140840820Y-81335498D01*
X140730506Y-81394463D01*
X140633815Y-81473815D01*
X140554463Y-81570506D01*
X140495498Y-81680820D01*
X140459188Y-81800518D01*
X140446928Y-81925000D01*
X122660000Y-81925000D01*
X122660000Y-77000000D01*
X125771928Y-77000000D01*
X125771928Y-79000000D01*
X125784188Y-79124482D01*
X125820498Y-79244180D01*
X125879463Y-79354494D01*
X125958815Y-79451185D01*
X126055506Y-79530537D01*
X126165820Y-79589502D01*
X126285518Y-79625812D01*
X126410000Y-79638072D01*
X128410000Y-79638072D01*
X128534482Y-79625812D01*
X128654180Y-79589502D01*
X128764494Y-79530537D01*
X128861185Y-79451185D01*
X128940537Y-79354494D01*
X128995976Y-79250777D01*
X129049956Y-79399814D01*
X129339571Y-79540704D01*
X129651108Y-79622384D01*
X129972595Y-79641718D01*
X130291675Y-79597961D01*
X130596088Y-79492795D01*
X130770044Y-79399814D01*
X130865808Y-79135413D01*
X129910000Y-78179605D01*
X129895858Y-78193748D01*
X129716253Y-78014143D01*
X129730395Y-78000000D01*
X130089605Y-78000000D01*
X131045413Y-78955808D01*
X131075075Y-78945065D01*
X131140013Y-79042252D01*
X131367748Y-79269987D01*
X131635537Y-79448918D01*
X131933088Y-79572168D01*
X132248967Y-79635000D01*
X132571033Y-79635000D01*
X132886912Y-79572168D01*
X133184463Y-79448918D01*
X133452252Y-79269987D01*
X133679987Y-79042252D01*
X133858918Y-78774463D01*
X133982168Y-78476912D01*
X134045000Y-78161033D01*
X134045000Y-77838967D01*
X133982168Y-77523088D01*
X133858918Y-77225537D01*
X133679987Y-76957748D01*
X133452252Y-76730013D01*
X133184463Y-76551082D01*
X132886912Y-76427832D01*
X132571033Y-76365000D01*
X132248967Y-76365000D01*
X131933088Y-76427832D01*
X131635537Y-76551082D01*
X131367748Y-76730013D01*
X131140013Y-76957748D01*
X131075075Y-77054935D01*
X131045413Y-77044192D01*
X130089605Y-78000000D01*
X129730395Y-78000000D01*
X129716253Y-77985858D01*
X129895858Y-77806253D01*
X129910000Y-77820395D01*
X130865808Y-76864587D01*
X130770044Y-76600186D01*
X130480429Y-76459296D01*
X130168892Y-76377616D01*
X129847405Y-76358282D01*
X129528325Y-76402039D01*
X129223912Y-76507205D01*
X129049956Y-76600186D01*
X128995976Y-76749223D01*
X128940537Y-76645506D01*
X128861185Y-76548815D01*
X128764494Y-76469463D01*
X128654180Y-76410498D01*
X128534482Y-76374188D01*
X128410000Y-76361928D01*
X126410000Y-76361928D01*
X126285518Y-76374188D01*
X126165820Y-76410498D01*
X126055506Y-76469463D01*
X125958815Y-76548815D01*
X125879463Y-76645506D01*
X125820498Y-76755820D01*
X125784188Y-76875518D01*
X125771928Y-77000000D01*
X122660000Y-77000000D01*
X122660000Y-75400000D01*
X138486928Y-75400000D01*
X138499188Y-75524482D01*
X138535498Y-75644180D01*
X138594463Y-75754494D01*
X138673815Y-75851185D01*
X138770506Y-75930537D01*
X138880820Y-75989502D01*
X139000518Y-76025812D01*
X139125000Y-76038072D01*
X139314250Y-76035000D01*
X139473000Y-75876250D01*
X139473000Y-74989500D01*
X138648750Y-74989500D01*
X138490000Y-75148250D01*
X138486928Y-75400000D01*
X122660000Y-75400000D01*
X122660000Y-72998061D01*
X137265000Y-72998061D01*
X137265000Y-73201939D01*
X137304774Y-73401898D01*
X137382795Y-73590256D01*
X137496063Y-73759774D01*
X137640226Y-73903937D01*
X137809744Y-74017205D01*
X137998102Y-74095226D01*
X138198061Y-74135000D01*
X138401939Y-74135000D01*
X138526584Y-74110207D01*
X138499188Y-74200518D01*
X138486928Y-74325000D01*
X138490000Y-74576750D01*
X138648750Y-74735500D01*
X139473000Y-74735500D01*
X139473000Y-74715500D01*
X139727000Y-74715500D01*
X139727000Y-74735500D01*
X139747000Y-74735500D01*
X139747000Y-74989500D01*
X139727000Y-74989500D01*
X139727000Y-75876250D01*
X139885750Y-76035000D01*
X140075000Y-76038072D01*
X140199482Y-76025812D01*
X140319180Y-75989502D01*
X140429494Y-75930537D01*
X140526185Y-75851185D01*
X140605537Y-75754494D01*
X140664502Y-75644180D01*
X140700812Y-75524482D01*
X140713072Y-75400000D01*
X140710499Y-75189117D01*
X140730506Y-75205537D01*
X140840820Y-75264502D01*
X140960518Y-75300812D01*
X141085000Y-75313072D01*
X141685000Y-75313072D01*
X141809482Y-75300812D01*
X141929180Y-75264502D01*
X142039494Y-75205537D01*
X142069064Y-75181270D01*
X142203418Y-75253084D01*
X142265000Y-75271764D01*
X142265000Y-75301939D01*
X142304774Y-75501898D01*
X142382795Y-75690256D01*
X142496063Y-75859774D01*
X142640226Y-76003937D01*
X142809744Y-76117205D01*
X142925997Y-76165359D01*
X142909463Y-76185506D01*
X142850498Y-76295820D01*
X142814188Y-76415518D01*
X142801928Y-76540000D01*
X142801928Y-78540000D01*
X142814188Y-78664482D01*
X142850498Y-78784180D01*
X142909463Y-78894494D01*
X142988815Y-78991185D01*
X143085506Y-79070537D01*
X143195820Y-79129502D01*
X143315518Y-79165812D01*
X143440000Y-79178072D01*
X145440000Y-79178072D01*
X145564482Y-79165812D01*
X145684180Y-79129502D01*
X145794494Y-79070537D01*
X145891185Y-78991185D01*
X145970537Y-78894494D01*
X146025976Y-78790777D01*
X146079956Y-78939814D01*
X146369571Y-79080704D01*
X146681108Y-79162384D01*
X147002595Y-79181718D01*
X147321675Y-79137961D01*
X147626088Y-79032795D01*
X147800044Y-78939814D01*
X147895808Y-78675413D01*
X146940000Y-77719605D01*
X146925858Y-77733748D01*
X146746253Y-77554143D01*
X146760395Y-77540000D01*
X146746253Y-77525858D01*
X146925858Y-77346253D01*
X146940000Y-77360395D01*
X147895808Y-76404587D01*
X147800044Y-76140186D01*
X147510429Y-75999296D01*
X147315518Y-75948193D01*
X147353937Y-75909774D01*
X147467205Y-75740256D01*
X147545226Y-75551898D01*
X147585000Y-75351939D01*
X147585000Y-75313072D01*
X147885000Y-75313072D01*
X147965000Y-75305192D01*
X147965000Y-75401939D01*
X148004774Y-75601898D01*
X148082795Y-75790256D01*
X148196063Y-75959774D01*
X148340226Y-76103937D01*
X148493262Y-76206192D01*
X148397748Y-76270013D01*
X148170013Y-76497748D01*
X148105075Y-76594935D01*
X148075413Y-76584192D01*
X147119605Y-77540000D01*
X148075413Y-78495808D01*
X148105075Y-78485065D01*
X148170013Y-78582252D01*
X148397748Y-78809987D01*
X148665537Y-78988918D01*
X148963088Y-79112168D01*
X149278967Y-79175000D01*
X149601033Y-79175000D01*
X149916912Y-79112168D01*
X150214463Y-78988918D01*
X150482252Y-78809987D01*
X150694178Y-78598061D01*
X169265000Y-78598061D01*
X169265000Y-78801939D01*
X169304774Y-79001898D01*
X169382795Y-79190256D01*
X169496063Y-79359774D01*
X169640226Y-79503937D01*
X169809744Y-79617205D01*
X169998102Y-79695226D01*
X170198061Y-79735000D01*
X170401939Y-79735000D01*
X170601898Y-79695226D01*
X170790256Y-79617205D01*
X170860224Y-79570454D01*
X180563988Y-79579086D01*
X180561928Y-79600000D01*
X180561928Y-82000000D01*
X180574188Y-82124482D01*
X180610498Y-82244180D01*
X180669463Y-82354494D01*
X180748815Y-82451185D01*
X180845506Y-82530537D01*
X180955820Y-82589502D01*
X181075518Y-82625812D01*
X181200000Y-82638072D01*
X183600000Y-82638072D01*
X183724482Y-82625812D01*
X183844180Y-82589502D01*
X183954494Y-82530537D01*
X184051185Y-82451185D01*
X184130537Y-82354494D01*
X184189502Y-82244180D01*
X184225812Y-82124482D01*
X184238072Y-82000000D01*
X184238072Y-81985000D01*
X184401939Y-81985000D01*
X184601898Y-81945226D01*
X184790256Y-81867205D01*
X184959774Y-81753937D01*
X185103937Y-81609774D01*
X185217205Y-81440256D01*
X185295226Y-81251898D01*
X185335000Y-81051939D01*
X185335000Y-80848061D01*
X185295226Y-80648102D01*
X185217205Y-80459744D01*
X185103937Y-80290226D01*
X185060000Y-80246289D01*
X185060000Y-79337322D01*
X185063676Y-79299999D01*
X185060000Y-79262676D01*
X185060000Y-79262667D01*
X185049003Y-79151014D01*
X185005546Y-79007753D01*
X184934974Y-78875724D01*
X184840001Y-78759999D01*
X184811002Y-78736200D01*
X184385527Y-78310726D01*
X184361725Y-78281723D01*
X184246000Y-78186750D01*
X184113971Y-78116178D01*
X183970710Y-78072721D01*
X183859057Y-78061724D01*
X183859046Y-78061724D01*
X183821724Y-78058048D01*
X183784402Y-78061724D01*
X183528065Y-78061724D01*
X171110920Y-78050678D01*
X171103937Y-78040226D01*
X170959774Y-77896063D01*
X170790256Y-77782795D01*
X170601898Y-77704774D01*
X170401939Y-77665000D01*
X170198061Y-77665000D01*
X169998102Y-77704774D01*
X169809744Y-77782795D01*
X169640226Y-77896063D01*
X169496063Y-78040226D01*
X169382795Y-78209744D01*
X169304774Y-78398102D01*
X169265000Y-78598061D01*
X150694178Y-78598061D01*
X150709987Y-78582252D01*
X150888918Y-78314463D01*
X151012168Y-78016912D01*
X151075000Y-77701033D01*
X151075000Y-77378967D01*
X151015131Y-77077980D01*
X181301626Y-77077980D01*
X181421514Y-77362836D01*
X181745210Y-77523699D01*
X182094069Y-77618322D01*
X182454684Y-77643067D01*
X182813198Y-77596985D01*
X183155833Y-77481846D01*
X183378486Y-77362836D01*
X183498374Y-77077980D01*
X182400000Y-75979605D01*
X181301626Y-77077980D01*
X151015131Y-77077980D01*
X151012168Y-77063088D01*
X150888918Y-76765537D01*
X150709987Y-76497748D01*
X150482252Y-76270013D01*
X150214463Y-76091082D01*
X149916912Y-75967832D01*
X149812438Y-75947051D01*
X149917205Y-75790256D01*
X149995226Y-75601898D01*
X150035000Y-75401939D01*
X150035000Y-75304208D01*
X150125000Y-75313072D01*
X150425000Y-75313072D01*
X150519812Y-75303734D01*
X150510000Y-75353061D01*
X150510000Y-75556939D01*
X150549774Y-75756898D01*
X150627795Y-75945256D01*
X150741063Y-76114774D01*
X150885226Y-76258937D01*
X151054744Y-76372205D01*
X151243102Y-76450226D01*
X151443061Y-76490000D01*
X151646939Y-76490000D01*
X151846898Y-76450226D01*
X152035256Y-76372205D01*
X152139105Y-76302816D01*
X152140226Y-76303937D01*
X152309744Y-76417205D01*
X152498102Y-76495226D01*
X152698061Y-76535000D01*
X152901939Y-76535000D01*
X153101898Y-76495226D01*
X153290256Y-76417205D01*
X153459774Y-76303937D01*
X153603937Y-76159774D01*
X153717205Y-75990256D01*
X153773361Y-75854684D01*
X180556933Y-75854684D01*
X180603015Y-76213198D01*
X180718154Y-76555833D01*
X180837164Y-76778486D01*
X181122020Y-76898374D01*
X182220395Y-75800000D01*
X182579605Y-75800000D01*
X183677980Y-76898374D01*
X183962836Y-76778486D01*
X184123699Y-76454790D01*
X184218322Y-76105931D01*
X184243067Y-75745316D01*
X184196985Y-75386802D01*
X184081846Y-75044167D01*
X183962836Y-74821514D01*
X183677980Y-74701626D01*
X182579605Y-75800000D01*
X182220395Y-75800000D01*
X181122020Y-74701626D01*
X180837164Y-74821514D01*
X180676301Y-75145210D01*
X180581678Y-75494069D01*
X180556933Y-75854684D01*
X153773361Y-75854684D01*
X153795226Y-75801898D01*
X153835000Y-75601939D01*
X153835000Y-75398061D01*
X153804637Y-75245413D01*
X155184192Y-75245413D01*
X155279956Y-75509814D01*
X155569571Y-75650704D01*
X155881108Y-75732384D01*
X156202595Y-75751718D01*
X156521675Y-75707961D01*
X156826088Y-75602795D01*
X157000044Y-75509814D01*
X157095808Y-75245413D01*
X161684192Y-75245413D01*
X161779956Y-75509814D01*
X162069571Y-75650704D01*
X162381108Y-75732384D01*
X162702595Y-75751718D01*
X163021675Y-75707961D01*
X163326088Y-75602795D01*
X163500044Y-75509814D01*
X163595808Y-75245413D01*
X162640000Y-74289605D01*
X161684192Y-75245413D01*
X157095808Y-75245413D01*
X156140000Y-74289605D01*
X155184192Y-75245413D01*
X153804637Y-75245413D01*
X153795226Y-75198102D01*
X153717205Y-75009744D01*
X153649413Y-74908285D01*
X153693084Y-74826582D01*
X153737929Y-74678745D01*
X153753072Y-74525000D01*
X153753072Y-74172595D01*
X154498282Y-74172595D01*
X154542039Y-74491675D01*
X154647205Y-74796088D01*
X154740186Y-74970044D01*
X155004587Y-75065808D01*
X155960395Y-74110000D01*
X156319605Y-74110000D01*
X157275413Y-75065808D01*
X157539814Y-74970044D01*
X157680704Y-74680429D01*
X157762384Y-74368892D01*
X157774189Y-74172595D01*
X160998282Y-74172595D01*
X161042039Y-74491675D01*
X161147205Y-74796088D01*
X161240186Y-74970044D01*
X161504587Y-75065808D01*
X162460395Y-74110000D01*
X162819605Y-74110000D01*
X163775413Y-75065808D01*
X164039814Y-74970044D01*
X164180704Y-74680429D01*
X164222236Y-74522020D01*
X181301626Y-74522020D01*
X182400000Y-75620395D01*
X183498374Y-74522020D01*
X183378486Y-74237164D01*
X183054790Y-74076301D01*
X182705931Y-73981678D01*
X182345316Y-73956933D01*
X181986802Y-74003015D01*
X181644167Y-74118154D01*
X181421514Y-74237164D01*
X181301626Y-74522020D01*
X164222236Y-74522020D01*
X164262384Y-74368892D01*
X164281718Y-74047405D01*
X164237961Y-73728325D01*
X164132795Y-73423912D01*
X164039814Y-73249956D01*
X163775413Y-73154192D01*
X162819605Y-74110000D01*
X162460395Y-74110000D01*
X161504587Y-73154192D01*
X161240186Y-73249956D01*
X161099296Y-73539571D01*
X161017616Y-73851108D01*
X160998282Y-74172595D01*
X157774189Y-74172595D01*
X157781718Y-74047405D01*
X157737961Y-73728325D01*
X157632795Y-73423912D01*
X157539814Y-73249956D01*
X157275413Y-73154192D01*
X156319605Y-74110000D01*
X155960395Y-74110000D01*
X155004587Y-73154192D01*
X154740186Y-73249956D01*
X154599296Y-73539571D01*
X154517616Y-73851108D01*
X154498282Y-74172595D01*
X153753072Y-74172595D01*
X153753072Y-72974587D01*
X155184192Y-72974587D01*
X156140000Y-73930395D01*
X157095808Y-72974587D01*
X161684192Y-72974587D01*
X162640000Y-73930395D01*
X163595808Y-72974587D01*
X163500044Y-72710186D01*
X163210429Y-72569296D01*
X162898892Y-72487616D01*
X162577405Y-72468282D01*
X162258325Y-72512039D01*
X161953912Y-72617205D01*
X161779956Y-72710186D01*
X161684192Y-72974587D01*
X157095808Y-72974587D01*
X157000044Y-72710186D01*
X156710429Y-72569296D01*
X156398892Y-72487616D01*
X156077405Y-72468282D01*
X155758325Y-72512039D01*
X155453912Y-72617205D01*
X155279956Y-72710186D01*
X155184192Y-72974587D01*
X153753072Y-72974587D01*
X153753072Y-72775000D01*
X153737929Y-72621255D01*
X153693084Y-72473418D01*
X153620258Y-72337171D01*
X153522251Y-72217749D01*
X153446961Y-72155960D01*
X153534180Y-72129502D01*
X153644494Y-72070537D01*
X153741185Y-71991185D01*
X153820537Y-71894494D01*
X153879502Y-71784180D01*
X153915812Y-71664482D01*
X153928072Y-71540000D01*
X153928072Y-69448967D01*
X154505000Y-69448967D01*
X154505000Y-69771033D01*
X154567832Y-70086912D01*
X154691082Y-70384463D01*
X154870013Y-70652252D01*
X155097748Y-70879987D01*
X155365537Y-71058918D01*
X155663088Y-71182168D01*
X155978967Y-71245000D01*
X156301033Y-71245000D01*
X156616912Y-71182168D01*
X156914463Y-71058918D01*
X157182252Y-70879987D01*
X157409987Y-70652252D01*
X157588918Y-70384463D01*
X157712168Y-70086912D01*
X157775000Y-69771033D01*
X157775000Y-69448967D01*
X161005000Y-69448967D01*
X161005000Y-69771033D01*
X161067832Y-70086912D01*
X161191082Y-70384463D01*
X161370013Y-70652252D01*
X161597748Y-70879987D01*
X161865537Y-71058918D01*
X162163088Y-71182168D01*
X162478967Y-71245000D01*
X162801033Y-71245000D01*
X163116912Y-71182168D01*
X163414463Y-71058918D01*
X163682252Y-70879987D01*
X163909987Y-70652252D01*
X164088918Y-70384463D01*
X164212168Y-70086912D01*
X164275000Y-69771033D01*
X164275000Y-69448967D01*
X164212168Y-69133088D01*
X164125975Y-68925000D01*
X166656928Y-68925000D01*
X166656928Y-70275000D01*
X166673031Y-70438500D01*
X166720722Y-70595716D01*
X166782305Y-70710928D01*
X166704774Y-70898102D01*
X166665000Y-71098061D01*
X166665000Y-71301939D01*
X166704774Y-71501898D01*
X166782795Y-71690256D01*
X166896063Y-71859774D01*
X167040226Y-72003937D01*
X167209744Y-72117205D01*
X167398102Y-72195226D01*
X167598061Y-72235000D01*
X167801939Y-72235000D01*
X168001898Y-72195226D01*
X168190256Y-72117205D01*
X168359774Y-72003937D01*
X168503937Y-71859774D01*
X168617205Y-71690256D01*
X168695226Y-71501898D01*
X168735000Y-71301939D01*
X168735000Y-71098061D01*
X168695226Y-70898102D01*
X168617205Y-70709744D01*
X168612273Y-70702363D01*
X168669278Y-70595716D01*
X168716969Y-70438500D01*
X168733072Y-70275000D01*
X168733072Y-68925000D01*
X169196928Y-68925000D01*
X169196928Y-70275000D01*
X169213031Y-70438500D01*
X169260722Y-70595716D01*
X169319949Y-70706521D01*
X169317795Y-70709744D01*
X169239774Y-70898102D01*
X169200000Y-71098061D01*
X169200000Y-71301939D01*
X169239774Y-71501898D01*
X169317795Y-71690256D01*
X169431063Y-71859774D01*
X169575226Y-72003937D01*
X169744744Y-72117205D01*
X169933102Y-72195226D01*
X170133061Y-72235000D01*
X170336939Y-72235000D01*
X170536898Y-72195226D01*
X170725256Y-72117205D01*
X170894774Y-72003937D01*
X171038937Y-71859774D01*
X171152205Y-71690256D01*
X171230226Y-71501898D01*
X171270000Y-71301939D01*
X171270000Y-71098061D01*
X171230226Y-70898102D01*
X171152205Y-70709744D01*
X171150051Y-70706521D01*
X171209278Y-70595716D01*
X171256969Y-70438500D01*
X171273072Y-70275000D01*
X171273072Y-69025000D01*
X176756928Y-69025000D01*
X176756928Y-70375000D01*
X176773031Y-70538500D01*
X176820722Y-70695716D01*
X176898169Y-70840608D01*
X177002394Y-70967606D01*
X177129392Y-71071831D01*
X177274284Y-71149278D01*
X177431500Y-71196969D01*
X177595000Y-71213072D01*
X177995000Y-71213072D01*
X178158500Y-71196969D01*
X178315716Y-71149278D01*
X178460608Y-71071831D01*
X178587606Y-70967606D01*
X178691831Y-70840608D01*
X178769278Y-70695716D01*
X178816969Y-70538500D01*
X178833072Y-70375000D01*
X178833072Y-69025000D01*
X178816969Y-68861500D01*
X178769278Y-68704284D01*
X178691831Y-68559392D01*
X178630620Y-68484806D01*
X178727205Y-68340256D01*
X178805226Y-68151898D01*
X178845000Y-67951939D01*
X178845000Y-67748061D01*
X178805226Y-67548102D01*
X178727205Y-67359744D01*
X178613937Y-67190226D01*
X178469774Y-67046063D01*
X178300256Y-66932795D01*
X178111898Y-66854774D01*
X177911939Y-66815000D01*
X177708061Y-66815000D01*
X177508102Y-66854774D01*
X177319744Y-66932795D01*
X177150226Y-67046063D01*
X177006063Y-67190226D01*
X176892795Y-67359744D01*
X176814774Y-67548102D01*
X176775000Y-67748061D01*
X176775000Y-67951939D01*
X176814774Y-68151898D01*
X176892795Y-68340256D01*
X176975917Y-68464657D01*
X176898169Y-68559392D01*
X176820722Y-68704284D01*
X176773031Y-68861500D01*
X176756928Y-69025000D01*
X171273072Y-69025000D01*
X171273072Y-68925000D01*
X171256969Y-68761500D01*
X171209278Y-68604284D01*
X171131831Y-68459392D01*
X171027606Y-68332394D01*
X170900608Y-68228169D01*
X170755716Y-68150722D01*
X170598500Y-68103031D01*
X170435000Y-68086928D01*
X170035000Y-68086928D01*
X169871500Y-68103031D01*
X169714284Y-68150722D01*
X169569392Y-68228169D01*
X169442394Y-68332394D01*
X169338169Y-68459392D01*
X169260722Y-68604284D01*
X169213031Y-68761500D01*
X169196928Y-68925000D01*
X168733072Y-68925000D01*
X168716969Y-68761500D01*
X168669278Y-68604284D01*
X168591831Y-68459392D01*
X168487606Y-68332394D01*
X168360608Y-68228169D01*
X168215716Y-68150722D01*
X168058500Y-68103031D01*
X167895000Y-68086928D01*
X167495000Y-68086928D01*
X167331500Y-68103031D01*
X167174284Y-68150722D01*
X167029392Y-68228169D01*
X166902394Y-68332394D01*
X166798169Y-68459392D01*
X166720722Y-68604284D01*
X166673031Y-68761500D01*
X166656928Y-68925000D01*
X164125975Y-68925000D01*
X164088918Y-68835537D01*
X163909987Y-68567748D01*
X163682252Y-68340013D01*
X163414463Y-68161082D01*
X163116912Y-68037832D01*
X162801033Y-67975000D01*
X162478967Y-67975000D01*
X162163088Y-68037832D01*
X161865537Y-68161082D01*
X161597748Y-68340013D01*
X161370013Y-68567748D01*
X161191082Y-68835537D01*
X161067832Y-69133088D01*
X161005000Y-69448967D01*
X157775000Y-69448967D01*
X157712168Y-69133088D01*
X157588918Y-68835537D01*
X157409987Y-68567748D01*
X157182252Y-68340013D01*
X156914463Y-68161082D01*
X156616912Y-68037832D01*
X156301033Y-67975000D01*
X155978967Y-67975000D01*
X155663088Y-68037832D01*
X155365537Y-68161082D01*
X155097748Y-68340013D01*
X154870013Y-68567748D01*
X154691082Y-68835537D01*
X154567832Y-69133088D01*
X154505000Y-69448967D01*
X153928072Y-69448967D01*
X153928072Y-68540000D01*
X153915812Y-68415518D01*
X153879502Y-68295820D01*
X153820537Y-68185506D01*
X153741185Y-68088815D01*
X153644494Y-68009463D01*
X153534180Y-67950498D01*
X153414482Y-67914188D01*
X153290000Y-67901928D01*
X150790000Y-67901928D01*
X150665518Y-67914188D01*
X150545820Y-67950498D01*
X150435506Y-68009463D01*
X150338815Y-68088815D01*
X150259463Y-68185506D01*
X150200498Y-68295820D01*
X150164188Y-68415518D01*
X150151928Y-68540000D01*
X150151928Y-70865000D01*
X150098061Y-70865000D01*
X149898102Y-70904774D01*
X149709744Y-70982795D01*
X149540226Y-71096063D01*
X149396063Y-71240226D01*
X149282795Y-71409744D01*
X149204774Y-71598102D01*
X149165000Y-71798061D01*
X149165000Y-71987913D01*
X149155000Y-71986928D01*
X148855000Y-71986928D01*
X148701255Y-72002071D01*
X148553418Y-72046916D01*
X148495000Y-72078141D01*
X148495000Y-71756374D01*
X148495896Y-71740471D01*
X148495000Y-71719095D01*
X148495000Y-71697667D01*
X148493436Y-71681791D01*
X148488950Y-71574761D01*
X148503937Y-71559774D01*
X148617205Y-71390256D01*
X148695226Y-71201898D01*
X148735000Y-71001939D01*
X148735000Y-70798061D01*
X148695226Y-70598102D01*
X148617205Y-70409744D01*
X148503937Y-70240226D01*
X148359774Y-70096063D01*
X148190256Y-69982795D01*
X148001898Y-69904774D01*
X147801939Y-69865000D01*
X147598061Y-69865000D01*
X147398102Y-69904774D01*
X147209744Y-69982795D01*
X147040226Y-70096063D01*
X146896063Y-70240226D01*
X146782795Y-70409744D01*
X146704774Y-70598102D01*
X146665000Y-70798061D01*
X146665000Y-71001939D01*
X146704774Y-71201898D01*
X146782795Y-71390256D01*
X146896063Y-71559774D01*
X146970092Y-71633803D01*
X146975000Y-71750903D01*
X146975000Y-72078141D01*
X146916582Y-72046916D01*
X146768745Y-72002071D01*
X146615000Y-71986928D01*
X146315000Y-71986928D01*
X146161255Y-72002071D01*
X146013418Y-72046916D01*
X145877171Y-72119742D01*
X145830000Y-72158454D01*
X145782829Y-72119742D01*
X145646582Y-72046916D01*
X145498745Y-72002071D01*
X145345000Y-71986928D01*
X145045000Y-71986928D01*
X144891255Y-72002071D01*
X144743418Y-72046916D01*
X144607171Y-72119742D01*
X144560000Y-72158454D01*
X144512829Y-72119742D01*
X144376582Y-72046916D01*
X144310170Y-72026770D01*
X144335000Y-71901939D01*
X144335000Y-71698061D01*
X144295226Y-71498102D01*
X144217205Y-71309744D01*
X144103937Y-71140226D01*
X143959774Y-70996063D01*
X143790256Y-70882795D01*
X143601898Y-70804774D01*
X143401939Y-70765000D01*
X143228072Y-70765000D01*
X143228072Y-68540000D01*
X143215812Y-68415518D01*
X143179502Y-68295820D01*
X143120537Y-68185506D01*
X143041185Y-68088815D01*
X142944494Y-68009463D01*
X142834180Y-67950498D01*
X142714482Y-67914188D01*
X142590000Y-67901928D01*
X140090000Y-67901928D01*
X139965518Y-67914188D01*
X139845820Y-67950498D01*
X139735506Y-68009463D01*
X139638815Y-68088815D01*
X139559463Y-68185506D01*
X139500498Y-68295820D01*
X139464188Y-68415518D01*
X139451928Y-68540000D01*
X139451928Y-71540000D01*
X139464188Y-71664482D01*
X139500498Y-71784180D01*
X139559463Y-71894494D01*
X139614804Y-71961928D01*
X139362500Y-71961928D01*
X139191684Y-71978752D01*
X139027433Y-72028577D01*
X138876058Y-72109488D01*
X138787915Y-72181825D01*
X138601898Y-72104774D01*
X138401939Y-72065000D01*
X138198061Y-72065000D01*
X137998102Y-72104774D01*
X137809744Y-72182795D01*
X137640226Y-72296063D01*
X137496063Y-72440226D01*
X137382795Y-72609744D01*
X137304774Y-72798102D01*
X137265000Y-72998061D01*
X122660000Y-72998061D01*
X122660000Y-72493191D01*
X122705506Y-72530537D01*
X122815820Y-72589502D01*
X122935518Y-72625812D01*
X123060000Y-72638072D01*
X125560000Y-72638072D01*
X125684482Y-72625812D01*
X125804180Y-72589502D01*
X125914494Y-72530537D01*
X126011185Y-72451185D01*
X126090537Y-72354494D01*
X126149502Y-72244180D01*
X126185812Y-72124482D01*
X126198072Y-72000000D01*
X126198072Y-69000000D01*
X133121928Y-69000000D01*
X133121928Y-72000000D01*
X133134188Y-72124482D01*
X133170498Y-72244180D01*
X133229463Y-72354494D01*
X133308815Y-72451185D01*
X133405506Y-72530537D01*
X133515820Y-72589502D01*
X133635518Y-72625812D01*
X133760000Y-72638072D01*
X136260000Y-72638072D01*
X136384482Y-72625812D01*
X136504180Y-72589502D01*
X136614494Y-72530537D01*
X136711185Y-72451185D01*
X136790537Y-72354494D01*
X136849502Y-72244180D01*
X136885812Y-72124482D01*
X136898072Y-72000000D01*
X136898072Y-69000000D01*
X136885812Y-68875518D01*
X136849502Y-68755820D01*
X136790537Y-68645506D01*
X136711185Y-68548815D01*
X136614494Y-68469463D01*
X136504180Y-68410498D01*
X136384482Y-68374188D01*
X136260000Y-68361928D01*
X133760000Y-68361928D01*
X133635518Y-68374188D01*
X133515820Y-68410498D01*
X133405506Y-68469463D01*
X133308815Y-68548815D01*
X133229463Y-68645506D01*
X133170498Y-68755820D01*
X133134188Y-68875518D01*
X133121928Y-69000000D01*
X126198072Y-69000000D01*
X126185812Y-68875518D01*
X126149502Y-68755820D01*
X126090537Y-68645506D01*
X126011185Y-68548815D01*
X125914494Y-68469463D01*
X125804180Y-68410498D01*
X125684482Y-68374188D01*
X125560000Y-68361928D01*
X123060000Y-68361928D01*
X122935518Y-68374188D01*
X122815820Y-68410498D01*
X122705506Y-68469463D01*
X122660000Y-68506809D01*
X122660000Y-65818967D01*
X154505000Y-65818967D01*
X154505000Y-66141033D01*
X154567832Y-66456912D01*
X154691082Y-66754463D01*
X154870013Y-67022252D01*
X155097748Y-67249987D01*
X155365537Y-67428918D01*
X155663088Y-67552168D01*
X155978967Y-67615000D01*
X156301033Y-67615000D01*
X156616912Y-67552168D01*
X156914463Y-67428918D01*
X157182252Y-67249987D01*
X157409987Y-67022252D01*
X157588918Y-66754463D01*
X157712168Y-66456912D01*
X157775000Y-66141033D01*
X157775000Y-65818967D01*
X157712168Y-65503088D01*
X157588918Y-65205537D01*
X157409987Y-64937748D01*
X157182252Y-64710013D01*
X156914463Y-64531082D01*
X156616912Y-64407832D01*
X156301033Y-64345000D01*
X155978967Y-64345000D01*
X155663088Y-64407832D01*
X155365537Y-64531082D01*
X155097748Y-64710013D01*
X154870013Y-64937748D01*
X154691082Y-65205537D01*
X154567832Y-65503088D01*
X154505000Y-65818967D01*
X122660000Y-65818967D01*
X122660000Y-60265098D01*
X123115000Y-60265098D01*
X123115000Y-60734902D01*
X123206654Y-61195679D01*
X123386440Y-61629721D01*
X123647450Y-62020349D01*
X123979651Y-62352550D01*
X124370279Y-62613560D01*
X124804321Y-62793346D01*
X125265098Y-62885000D01*
X125734902Y-62885000D01*
X126195679Y-62793346D01*
X126629721Y-62613560D01*
X127020349Y-62352550D01*
X127352550Y-62020349D01*
X127613560Y-61629721D01*
X127742278Y-61318967D01*
X154505000Y-61318967D01*
X154505000Y-61641033D01*
X154567832Y-61956912D01*
X154691082Y-62254463D01*
X154870013Y-62522252D01*
X155097748Y-62749987D01*
X155365537Y-62928918D01*
X155663088Y-63052168D01*
X155978967Y-63115000D01*
X156301033Y-63115000D01*
X156616912Y-63052168D01*
X156914463Y-62928918D01*
X157182252Y-62749987D01*
X157409987Y-62522252D01*
X157588918Y-62254463D01*
X157712168Y-61956912D01*
X157775000Y-61641033D01*
X157775000Y-61318967D01*
X161005000Y-61318967D01*
X161005000Y-61641033D01*
X161067832Y-61956912D01*
X161191082Y-62254463D01*
X161370013Y-62522252D01*
X161597748Y-62749987D01*
X161865537Y-62928918D01*
X162163088Y-63052168D01*
X162478967Y-63115000D01*
X162801033Y-63115000D01*
X163116912Y-63052168D01*
X163414463Y-62928918D01*
X163682252Y-62749987D01*
X163909987Y-62522252D01*
X164088918Y-62254463D01*
X164173148Y-62051114D01*
X164028681Y-65115387D01*
X163909987Y-64937748D01*
X163682252Y-64710013D01*
X163414463Y-64531082D01*
X163116912Y-64407832D01*
X162801033Y-64345000D01*
X162478967Y-64345000D01*
X162163088Y-64407832D01*
X161865537Y-64531082D01*
X161597748Y-64710013D01*
X161370013Y-64937748D01*
X161191082Y-65205537D01*
X161067832Y-65503088D01*
X161005000Y-65818967D01*
X161005000Y-66141033D01*
X161067832Y-66456912D01*
X161191082Y-66754463D01*
X161370013Y-67022252D01*
X161597748Y-67249987D01*
X161865537Y-67428918D01*
X162163088Y-67552168D01*
X162478967Y-67615000D01*
X162801033Y-67615000D01*
X163116912Y-67552168D01*
X163414463Y-67428918D01*
X163682252Y-67249987D01*
X163909987Y-67022252D01*
X164088918Y-66754463D01*
X164212168Y-66456912D01*
X164242305Y-66305400D01*
X179430009Y-66260612D01*
X179364774Y-66418102D01*
X179325000Y-66618061D01*
X179325000Y-66821939D01*
X179364774Y-67021898D01*
X179442795Y-67210256D01*
X179556063Y-67379774D01*
X179585301Y-67409012D01*
X179564093Y-68414586D01*
X179542394Y-68432394D01*
X179438169Y-68559392D01*
X179360722Y-68704284D01*
X179313031Y-68861500D01*
X179296928Y-69025000D01*
X179296928Y-70375000D01*
X179313031Y-70538500D01*
X179360722Y-70695716D01*
X179438169Y-70840608D01*
X179542394Y-70967606D01*
X179669392Y-71071831D01*
X179814284Y-71149278D01*
X179971500Y-71196969D01*
X180135000Y-71213072D01*
X180535000Y-71213072D01*
X180698500Y-71196969D01*
X180855716Y-71149278D01*
X181000608Y-71071831D01*
X181127606Y-70967606D01*
X181231831Y-70840608D01*
X181309278Y-70695716D01*
X181356969Y-70538500D01*
X181373072Y-70375000D01*
X181373072Y-69025000D01*
X181356969Y-68861500D01*
X181309278Y-68704284D01*
X181231831Y-68559392D01*
X181127606Y-68432394D01*
X181084796Y-68397260D01*
X181105012Y-67438699D01*
X181163937Y-67379774D01*
X181277205Y-67210256D01*
X181355226Y-67021898D01*
X181395000Y-66821939D01*
X181395000Y-66618061D01*
X181355226Y-66418102D01*
X181287722Y-66255133D01*
X184658375Y-66245193D01*
X184683144Y-66242680D01*
X184706947Y-66235383D01*
X184728869Y-66223582D01*
X184748067Y-66207731D01*
X184763804Y-66188440D01*
X184775476Y-66166449D01*
X184782632Y-66142603D01*
X184785000Y-66118194D01*
X184785000Y-60930000D01*
X185411928Y-60930000D01*
X185411928Y-63030000D01*
X185424188Y-63154482D01*
X185460498Y-63274180D01*
X185519463Y-63384494D01*
X185598815Y-63481185D01*
X185695506Y-63560537D01*
X185805820Y-63619502D01*
X185925518Y-63655812D01*
X186050000Y-63668072D01*
X188150000Y-63668072D01*
X188274482Y-63655812D01*
X188394180Y-63619502D01*
X188504494Y-63560537D01*
X188601185Y-63481185D01*
X188680537Y-63384494D01*
X188739502Y-63274180D01*
X188775812Y-63154482D01*
X188788072Y-63030000D01*
X188788072Y-60930000D01*
X188775812Y-60805518D01*
X188739502Y-60685820D01*
X188680537Y-60575506D01*
X188601185Y-60478815D01*
X188504494Y-60399463D01*
X188394180Y-60340498D01*
X188274482Y-60304188D01*
X188150000Y-60291928D01*
X186050000Y-60291928D01*
X185925518Y-60304188D01*
X185805820Y-60340498D01*
X185695506Y-60399463D01*
X185598815Y-60478815D01*
X185519463Y-60575506D01*
X185460498Y-60685820D01*
X185424188Y-60805518D01*
X185411928Y-60930000D01*
X184785000Y-60930000D01*
X184785000Y-60265098D01*
X190115000Y-60265098D01*
X190115000Y-60734902D01*
X190206654Y-61195679D01*
X190386440Y-61629721D01*
X190647450Y-62020349D01*
X190979651Y-62352550D01*
X191370279Y-62613560D01*
X191804321Y-62793346D01*
X192265098Y-62885000D01*
X192734902Y-62885000D01*
X193195679Y-62793346D01*
X193629721Y-62613560D01*
X194020349Y-62352550D01*
X194352550Y-62020349D01*
X194613560Y-61629721D01*
X194793346Y-61195679D01*
X194885000Y-60734902D01*
X194885000Y-60265098D01*
X194793346Y-59804321D01*
X194613560Y-59370279D01*
X194352550Y-58979651D01*
X194020349Y-58647450D01*
X193629721Y-58386440D01*
X193195679Y-58206654D01*
X192734902Y-58115000D01*
X192265098Y-58115000D01*
X191804321Y-58206654D01*
X191370279Y-58386440D01*
X190979651Y-58647450D01*
X190647450Y-58979651D01*
X190386440Y-59370279D01*
X190206654Y-59804321D01*
X190115000Y-60265098D01*
X184785000Y-60265098D01*
X184785000Y-59944000D01*
X184782560Y-59919224D01*
X184775333Y-59895399D01*
X184763597Y-59873443D01*
X184747803Y-59854197D01*
X184728557Y-59838403D01*
X184706601Y-59826667D01*
X184682776Y-59819440D01*
X184658000Y-59817000D01*
X164399630Y-59817000D01*
X164374854Y-59819440D01*
X164351029Y-59826667D01*
X164329073Y-59838403D01*
X164309827Y-59854197D01*
X164294033Y-59873443D01*
X164282297Y-59895399D01*
X164275070Y-59919224D01*
X164272771Y-59938019D01*
X164220567Y-61045313D01*
X164212168Y-61003088D01*
X164088918Y-60705537D01*
X163909987Y-60437748D01*
X163682252Y-60210013D01*
X163414463Y-60031082D01*
X163116912Y-59907832D01*
X162801033Y-59845000D01*
X162478967Y-59845000D01*
X162163088Y-59907832D01*
X161865537Y-60031082D01*
X161597748Y-60210013D01*
X161370013Y-60437748D01*
X161191082Y-60705537D01*
X161067832Y-61003088D01*
X161005000Y-61318967D01*
X157775000Y-61318967D01*
X157712168Y-61003088D01*
X157588918Y-60705537D01*
X157409987Y-60437748D01*
X157182252Y-60210013D01*
X156914463Y-60031082D01*
X156616912Y-59907832D01*
X156301033Y-59845000D01*
X155978967Y-59845000D01*
X155663088Y-59907832D01*
X155365537Y-60031082D01*
X155097748Y-60210013D01*
X154870013Y-60437748D01*
X154691082Y-60705537D01*
X154567832Y-61003088D01*
X154505000Y-61318967D01*
X127742278Y-61318967D01*
X127793346Y-61195679D01*
X127885000Y-60734902D01*
X127885000Y-60265098D01*
X127793346Y-59804321D01*
X127613560Y-59370279D01*
X127352550Y-58979651D01*
X127020349Y-58647450D01*
X126629721Y-58386440D01*
X126195679Y-58206654D01*
X125734902Y-58115000D01*
X125265098Y-58115000D01*
X124804321Y-58206654D01*
X124370279Y-58386440D01*
X123979651Y-58647450D01*
X123647450Y-58979651D01*
X123386440Y-59370279D01*
X123206654Y-59804321D01*
X123115000Y-60265098D01*
X122660000Y-60265098D01*
X122660000Y-57660000D01*
X195340000Y-57660000D01*
X195340001Y-100340000D01*
%TA.AperFunction,Conductor*%
D29*
G36*
X195340001Y-100340000D02*
G01*
X125461133Y-100340000D01*
X125695679Y-100293346D01*
X126129721Y-100113560D01*
X126520349Y-99852550D01*
X126852550Y-99520349D01*
X127113560Y-99129721D01*
X127293346Y-98695679D01*
X127348181Y-98420000D01*
X128781928Y-98420000D01*
X128794188Y-98544482D01*
X128830498Y-98664180D01*
X128889463Y-98774494D01*
X128968815Y-98871185D01*
X129065506Y-98950537D01*
X129175820Y-99009502D01*
X129295518Y-99045812D01*
X129420000Y-99058072D01*
X129984250Y-99055000D01*
X130143000Y-98896250D01*
X130143000Y-97697000D01*
X128943750Y-97697000D01*
X128785000Y-97855750D01*
X128781928Y-98420000D01*
X127348181Y-98420000D01*
X127385000Y-98234902D01*
X127385000Y-97765098D01*
X127293346Y-97304321D01*
X127113560Y-96870279D01*
X127013147Y-96720000D01*
X128781928Y-96720000D01*
X128785000Y-97284250D01*
X128943750Y-97443000D01*
X130143000Y-97443000D01*
X130143000Y-96243750D01*
X130397000Y-96243750D01*
X130397000Y-97443000D01*
X130417000Y-97443000D01*
X130417000Y-97697000D01*
X130397000Y-97697000D01*
X130397000Y-98896250D01*
X130555750Y-99055000D01*
X131120000Y-99058072D01*
X131244482Y-99045812D01*
X131364180Y-99009502D01*
X131474494Y-98950537D01*
X131571185Y-98871185D01*
X131650537Y-98774494D01*
X131709502Y-98664180D01*
X131731513Y-98591620D01*
X131863368Y-98723475D01*
X132106589Y-98885990D01*
X132376842Y-98997932D01*
X132663740Y-99055000D01*
X132956260Y-99055000D01*
X133243158Y-98997932D01*
X133513411Y-98885990D01*
X133756632Y-98723475D01*
X133963475Y-98516632D01*
X134080000Y-98342240D01*
X134196525Y-98516632D01*
X134403368Y-98723475D01*
X134646589Y-98885990D01*
X134916842Y-98997932D01*
X135203740Y-99055000D01*
X135496260Y-99055000D01*
X135783158Y-98997932D01*
X136053411Y-98885990D01*
X136296632Y-98723475D01*
X136503475Y-98516632D01*
X136568042Y-98420000D01*
X137581928Y-98420000D01*
X137594188Y-98544482D01*
X137630498Y-98664180D01*
X137689463Y-98774494D01*
X137768815Y-98871185D01*
X137865506Y-98950537D01*
X137975820Y-99009502D01*
X138095518Y-99045812D01*
X138220000Y-99058072D01*
X138784250Y-99055000D01*
X138943000Y-98896250D01*
X138943000Y-97697000D01*
X137743750Y-97697000D01*
X137585000Y-97855750D01*
X137581928Y-98420000D01*
X136568042Y-98420000D01*
X136665990Y-98273411D01*
X136777932Y-98003158D01*
X136835000Y-97716260D01*
X136835000Y-97423740D01*
X136777932Y-97136842D01*
X136665990Y-96866589D01*
X136568043Y-96720000D01*
X137581928Y-96720000D01*
X137585000Y-97284250D01*
X137743750Y-97443000D01*
X138943000Y-97443000D01*
X138943000Y-96243750D01*
X139197000Y-96243750D01*
X139197000Y-97443000D01*
X139217000Y-97443000D01*
X139217000Y-97697000D01*
X139197000Y-97697000D01*
X139197000Y-98896250D01*
X139355750Y-99055000D01*
X139920000Y-99058072D01*
X140044482Y-99045812D01*
X140164180Y-99009502D01*
X140274494Y-98950537D01*
X140371185Y-98871185D01*
X140450537Y-98774494D01*
X140509502Y-98664180D01*
X140531513Y-98591620D01*
X140663368Y-98723475D01*
X140906589Y-98885990D01*
X141176842Y-98997932D01*
X141463740Y-99055000D01*
X141756260Y-99055000D01*
X142043158Y-98997932D01*
X142313411Y-98885990D01*
X142556632Y-98723475D01*
X142763475Y-98516632D01*
X142880000Y-98342240D01*
X142996525Y-98516632D01*
X143203368Y-98723475D01*
X143446589Y-98885990D01*
X143716842Y-98997932D01*
X144003740Y-99055000D01*
X144296260Y-99055000D01*
X144583158Y-98997932D01*
X144853411Y-98885990D01*
X145096632Y-98723475D01*
X145303475Y-98516632D01*
X145420000Y-98342240D01*
X145536525Y-98516632D01*
X145743368Y-98723475D01*
X145986589Y-98885990D01*
X146256842Y-98997932D01*
X146543740Y-99055000D01*
X146836260Y-99055000D01*
X147123158Y-98997932D01*
X147393411Y-98885990D01*
X147636632Y-98723475D01*
X147843475Y-98516632D01*
X148005990Y-98273411D01*
X148117932Y-98003158D01*
X148175000Y-97716260D01*
X148175000Y-97423740D01*
X148117932Y-97136842D01*
X148005990Y-96866589D01*
X147843475Y-96623368D01*
X147636632Y-96416525D01*
X147393411Y-96254010D01*
X147123158Y-96142068D01*
X146836260Y-96085000D01*
X146543740Y-96085000D01*
X146256842Y-96142068D01*
X145986589Y-96254010D01*
X145743368Y-96416525D01*
X145536525Y-96623368D01*
X145420000Y-96797760D01*
X145303475Y-96623368D01*
X145096632Y-96416525D01*
X144853411Y-96254010D01*
X144583158Y-96142068D01*
X144303217Y-96086384D01*
X144322500Y-95989439D01*
X144322500Y-95888072D01*
X145600000Y-95888072D01*
X145724482Y-95875812D01*
X145844180Y-95839502D01*
X145954494Y-95780537D01*
X146051185Y-95701185D01*
X146130537Y-95604494D01*
X146185976Y-95500777D01*
X146239956Y-95649814D01*
X146529571Y-95790704D01*
X146841108Y-95872384D01*
X147162595Y-95891718D01*
X147481675Y-95847961D01*
X147786088Y-95742795D01*
X147960044Y-95649814D01*
X148055808Y-95385413D01*
X147100000Y-94429605D01*
X147085858Y-94443748D01*
X146906253Y-94264143D01*
X146920395Y-94250000D01*
X147279605Y-94250000D01*
X148235413Y-95205808D01*
X148265075Y-95195065D01*
X148330013Y-95292252D01*
X148557748Y-95519987D01*
X148825537Y-95698918D01*
X149123088Y-95822168D01*
X149438967Y-95885000D01*
X149761033Y-95885000D01*
X150076912Y-95822168D01*
X150374463Y-95698918D01*
X150642252Y-95519987D01*
X150869987Y-95292252D01*
X151048918Y-95024463D01*
X151172168Y-94726912D01*
X151235000Y-94411033D01*
X151235000Y-94088967D01*
X151172168Y-93773088D01*
X151048918Y-93475537D01*
X150869987Y-93207748D01*
X150642252Y-92980013D01*
X150374463Y-92801082D01*
X150076912Y-92677832D01*
X149761033Y-92615000D01*
X149438967Y-92615000D01*
X149123088Y-92677832D01*
X148825537Y-92801082D01*
X148557748Y-92980013D01*
X148330013Y-93207748D01*
X148265075Y-93304935D01*
X148235413Y-93294192D01*
X147279605Y-94250000D01*
X146920395Y-94250000D01*
X146906253Y-94235858D01*
X147085858Y-94056253D01*
X147100000Y-94070395D01*
X148055808Y-93114587D01*
X147960044Y-92850186D01*
X147670429Y-92709296D01*
X147358892Y-92627616D01*
X147037405Y-92608282D01*
X146718325Y-92652039D01*
X146413912Y-92757205D01*
X146239956Y-92850186D01*
X146185976Y-92999223D01*
X146130537Y-92895506D01*
X146051185Y-92798815D01*
X145954494Y-92719463D01*
X145844180Y-92660498D01*
X145724482Y-92624188D01*
X145600000Y-92611928D01*
X143600000Y-92611928D01*
X143475518Y-92624188D01*
X143355820Y-92660498D01*
X143245506Y-92719463D01*
X143148815Y-92798815D01*
X143069463Y-92895506D01*
X143010498Y-93005820D01*
X142974188Y-93125518D01*
X142961928Y-93250000D01*
X142961928Y-93490000D01*
X141503711Y-93490000D01*
X141459774Y-93446063D01*
X141290256Y-93332795D01*
X141101898Y-93254774D01*
X140901939Y-93215000D01*
X140698061Y-93215000D01*
X140498102Y-93254774D01*
X140309744Y-93332795D01*
X140140226Y-93446063D01*
X139996063Y-93590226D01*
X139882795Y-93759744D01*
X139804774Y-93948102D01*
X139765000Y-94148061D01*
X139765000Y-94351939D01*
X139804774Y-94551898D01*
X139882795Y-94740256D01*
X139996063Y-94909774D01*
X140061289Y-94975000D01*
X140058563Y-94977726D01*
X139945295Y-95147244D01*
X139867274Y-95335602D01*
X139827500Y-95535561D01*
X139827500Y-95739439D01*
X139867274Y-95939398D01*
X139926581Y-96082576D01*
X139920000Y-96081928D01*
X139355750Y-96085000D01*
X139197000Y-96243750D01*
X138943000Y-96243750D01*
X138784250Y-96085000D01*
X138220000Y-96081928D01*
X138095518Y-96094188D01*
X137975820Y-96130498D01*
X137865506Y-96189463D01*
X137768815Y-96268815D01*
X137689463Y-96365506D01*
X137630498Y-96475820D01*
X137594188Y-96595518D01*
X137581928Y-96720000D01*
X136568043Y-96720000D01*
X136503475Y-96623368D01*
X136296632Y-96416525D01*
X136053411Y-96254010D01*
X135783158Y-96142068D01*
X135496260Y-96085000D01*
X135203740Y-96085000D01*
X134916842Y-96142068D01*
X134646589Y-96254010D01*
X134403368Y-96416525D01*
X134196525Y-96623368D01*
X134080000Y-96797760D01*
X133963475Y-96623368D01*
X133756632Y-96416525D01*
X133513411Y-96254010D01*
X133243158Y-96142068D01*
X132956260Y-96085000D01*
X132663740Y-96085000D01*
X132376842Y-96142068D01*
X132106589Y-96254010D01*
X131863368Y-96416525D01*
X131731513Y-96548380D01*
X131709502Y-96475820D01*
X131650537Y-96365506D01*
X131571185Y-96268815D01*
X131474494Y-96189463D01*
X131364180Y-96130498D01*
X131244482Y-96094188D01*
X131120000Y-96081928D01*
X130555750Y-96085000D01*
X130397000Y-96243750D01*
X130143000Y-96243750D01*
X129984250Y-96085000D01*
X129420000Y-96081928D01*
X129295518Y-96094188D01*
X129175820Y-96130498D01*
X129065506Y-96189463D01*
X128968815Y-96268815D01*
X128889463Y-96365506D01*
X128830498Y-96475820D01*
X128794188Y-96595518D01*
X128781928Y-96720000D01*
X127013147Y-96720000D01*
X126852550Y-96479651D01*
X126520349Y-96147450D01*
X126129721Y-95886440D01*
X125695679Y-95706654D01*
X125234902Y-95615000D01*
X124765098Y-95615000D01*
X124304321Y-95706654D01*
X123870279Y-95886440D01*
X123479651Y-96147450D01*
X123147450Y-96479651D01*
X122886440Y-96870279D01*
X122706654Y-97304321D01*
X122660000Y-97538867D01*
X122660000Y-92750000D01*
X125721928Y-92750000D01*
X125721928Y-94750000D01*
X125734188Y-94874482D01*
X125770498Y-94994180D01*
X125829463Y-95104494D01*
X125908815Y-95201185D01*
X126005506Y-95280537D01*
X126115820Y-95339502D01*
X126235518Y-95375812D01*
X126360000Y-95388072D01*
X128360000Y-95388072D01*
X128484482Y-95375812D01*
X128604180Y-95339502D01*
X128714494Y-95280537D01*
X128811185Y-95201185D01*
X128890537Y-95104494D01*
X128945976Y-95000777D01*
X128999956Y-95149814D01*
X129289571Y-95290704D01*
X129601108Y-95372384D01*
X129922595Y-95391718D01*
X130241675Y-95347961D01*
X130546088Y-95242795D01*
X130720044Y-95149814D01*
X130815808Y-94885413D01*
X129860000Y-93929605D01*
X129845858Y-93943748D01*
X129666253Y-93764143D01*
X129680395Y-93750000D01*
X130039605Y-93750000D01*
X130995413Y-94705808D01*
X131025075Y-94695065D01*
X131090013Y-94792252D01*
X131317748Y-95019987D01*
X131585537Y-95198918D01*
X131883088Y-95322168D01*
X132198967Y-95385000D01*
X132521033Y-95385000D01*
X132836912Y-95322168D01*
X133134463Y-95198918D01*
X133372300Y-95040000D01*
X136471289Y-95040000D01*
X136515226Y-95083937D01*
X136684744Y-95197205D01*
X136873102Y-95275226D01*
X137073061Y-95315000D01*
X137276939Y-95315000D01*
X137476898Y-95275226D01*
X137665256Y-95197205D01*
X137834774Y-95083937D01*
X137978937Y-94939774D01*
X138092205Y-94770256D01*
X138170226Y-94581898D01*
X138182752Y-94518925D01*
X138301898Y-94495226D01*
X138490256Y-94417205D01*
X138659774Y-94303937D01*
X138803937Y-94159774D01*
X138917205Y-93990256D01*
X138995226Y-93801898D01*
X139035000Y-93601939D01*
X139035000Y-93398061D01*
X138995226Y-93198102D01*
X138917205Y-93009744D01*
X138803937Y-92840226D01*
X138659774Y-92696063D01*
X138490256Y-92582795D01*
X138301898Y-92504774D01*
X138101939Y-92465000D01*
X137898061Y-92465000D01*
X137698102Y-92504774D01*
X137509744Y-92582795D01*
X137340226Y-92696063D01*
X137296289Y-92740000D01*
X136303711Y-92740000D01*
X136259774Y-92696063D01*
X136090256Y-92582795D01*
X135901898Y-92504774D01*
X135701939Y-92465000D01*
X135498061Y-92465000D01*
X135298102Y-92504774D01*
X135109744Y-92582795D01*
X134940226Y-92696063D01*
X134796063Y-92840226D01*
X134682795Y-93009744D01*
X134604774Y-93198102D01*
X134565000Y-93398061D01*
X134565000Y-93520000D01*
X133981282Y-93520000D01*
X133932168Y-93273088D01*
X133808918Y-92975537D01*
X133629987Y-92707748D01*
X133402252Y-92480013D01*
X133134463Y-92301082D01*
X132836912Y-92177832D01*
X132521033Y-92115000D01*
X132198967Y-92115000D01*
X131883088Y-92177832D01*
X131585537Y-92301082D01*
X131317748Y-92480013D01*
X131090013Y-92707748D01*
X131025075Y-92804935D01*
X130995413Y-92794192D01*
X130039605Y-93750000D01*
X129680395Y-93750000D01*
X129666253Y-93735858D01*
X129845858Y-93556253D01*
X129860000Y-93570395D01*
X130815808Y-92614587D01*
X130720044Y-92350186D01*
X130430429Y-92209296D01*
X130118892Y-92127616D01*
X129797405Y-92108282D01*
X129478325Y-92152039D01*
X129173912Y-92257205D01*
X128999956Y-92350186D01*
X128945976Y-92499223D01*
X128890537Y-92395506D01*
X128811185Y-92298815D01*
X128714494Y-92219463D01*
X128604180Y-92160498D01*
X128484482Y-92124188D01*
X128360000Y-92111928D01*
X126360000Y-92111928D01*
X126235518Y-92124188D01*
X126115820Y-92160498D01*
X126005506Y-92219463D01*
X125908815Y-92298815D01*
X125829463Y-92395506D01*
X125770498Y-92505820D01*
X125734188Y-92625518D01*
X125721928Y-92750000D01*
X122660000Y-92750000D01*
X122660000Y-91200000D01*
X154573000Y-91200000D01*
X154573000Y-97200000D01*
X154575440Y-97224776D01*
X154582667Y-97248601D01*
X154594403Y-97270557D01*
X154610197Y-97289803D01*
X154629443Y-97305597D01*
X154651399Y-97317333D01*
X154675224Y-97324560D01*
X154699380Y-97326998D01*
X175199380Y-97426998D01*
X175224169Y-97424679D01*
X175248028Y-97417568D01*
X175270041Y-97405940D01*
X175289363Y-97390240D01*
X175305251Y-97371072D01*
X175317094Y-97349173D01*
X175324437Y-97325384D01*
X175327000Y-97300000D01*
X175327000Y-97263128D01*
X190095000Y-97263128D01*
X190095000Y-97736872D01*
X190187423Y-98201513D01*
X190368716Y-98639195D01*
X190631914Y-99033098D01*
X190966902Y-99368086D01*
X191360805Y-99631284D01*
X191798487Y-99812577D01*
X192263128Y-99905000D01*
X192736872Y-99905000D01*
X193201513Y-99812577D01*
X193639195Y-99631284D01*
X194033098Y-99368086D01*
X194368086Y-99033098D01*
X194631284Y-98639195D01*
X194812577Y-98201513D01*
X194905000Y-97736872D01*
X194905000Y-97263128D01*
X194812577Y-96798487D01*
X194631284Y-96360805D01*
X194368086Y-95966902D01*
X194033098Y-95631914D01*
X193639195Y-95368716D01*
X193201513Y-95187423D01*
X192736872Y-95095000D01*
X192263128Y-95095000D01*
X191798487Y-95187423D01*
X191360805Y-95368716D01*
X190966902Y-95631914D01*
X190631914Y-95966902D01*
X190368716Y-96360805D01*
X190187423Y-96798487D01*
X190095000Y-97263128D01*
X175327000Y-97263128D01*
X175327000Y-94340000D01*
X176401928Y-94340000D01*
X176401928Y-96440000D01*
X176414188Y-96564482D01*
X176450498Y-96684180D01*
X176509463Y-96794494D01*
X176588815Y-96891185D01*
X176685506Y-96970537D01*
X176795820Y-97029502D01*
X176915518Y-97065812D01*
X177040000Y-97078072D01*
X179140000Y-97078072D01*
X179264482Y-97065812D01*
X179384180Y-97029502D01*
X179494494Y-96970537D01*
X179591185Y-96891185D01*
X179670537Y-96794494D01*
X179729502Y-96684180D01*
X179765812Y-96564482D01*
X179778072Y-96440000D01*
X179778072Y-94340000D01*
X179765812Y-94215518D01*
X179729502Y-94095820D01*
X179670537Y-93985506D01*
X179591185Y-93888815D01*
X179494494Y-93809463D01*
X179384180Y-93750498D01*
X179264482Y-93714188D01*
X179140000Y-93701928D01*
X177040000Y-93701928D01*
X176915518Y-93714188D01*
X176795820Y-93750498D01*
X176685506Y-93809463D01*
X176588815Y-93888815D01*
X176509463Y-93985506D01*
X176450498Y-94095820D01*
X176414188Y-94215518D01*
X176401928Y-94340000D01*
X175327000Y-94340000D01*
X175327000Y-91100000D01*
X175324560Y-91075224D01*
X175317333Y-91051399D01*
X175305597Y-91029443D01*
X175289803Y-91010197D01*
X175270557Y-90994403D01*
X175248601Y-90982667D01*
X175224776Y-90975440D01*
X175198573Y-90973008D01*
X174676813Y-90978870D01*
X174663010Y-90970983D01*
X174640287Y-90960809D01*
X174616016Y-90955264D01*
X174599242Y-90954252D01*
X169791941Y-90982939D01*
X169890256Y-90942215D01*
X170059774Y-90828947D01*
X170203937Y-90684784D01*
X170317205Y-90515266D01*
X170395226Y-90326908D01*
X170435000Y-90126949D01*
X170435000Y-89923071D01*
X170395226Y-89723112D01*
X170317205Y-89534754D01*
X170203937Y-89365236D01*
X170160000Y-89321299D01*
X170160000Y-89198061D01*
X170870000Y-89198061D01*
X170870000Y-89401939D01*
X170909774Y-89601898D01*
X170987795Y-89790256D01*
X171101063Y-89959774D01*
X171245226Y-90103937D01*
X171414744Y-90217205D01*
X171603102Y-90295226D01*
X171803061Y-90335000D01*
X172006939Y-90335000D01*
X172206898Y-90295226D01*
X172395256Y-90217205D01*
X172564774Y-90103937D01*
X172708937Y-89959774D01*
X172822205Y-89790256D01*
X172900226Y-89601898D01*
X172940000Y-89401939D01*
X172940000Y-89198061D01*
X172900226Y-88998102D01*
X172857410Y-88894735D01*
X172901831Y-88840608D01*
X172979278Y-88695716D01*
X173026969Y-88538500D01*
X173043072Y-88375000D01*
X173043072Y-87025000D01*
X173026969Y-86861500D01*
X172979278Y-86704284D01*
X172901831Y-86559392D01*
X172797606Y-86432394D01*
X172670608Y-86328169D01*
X172525716Y-86250722D01*
X172368500Y-86203031D01*
X172205000Y-86186928D01*
X171805000Y-86186928D01*
X171641500Y-86203031D01*
X171484284Y-86250722D01*
X171339392Y-86328169D01*
X171212394Y-86432394D01*
X171108169Y-86559392D01*
X171030722Y-86704284D01*
X170983031Y-86861500D01*
X170966928Y-87025000D01*
X170966928Y-88375000D01*
X170983031Y-88538500D01*
X171030722Y-88695716D01*
X171045506Y-88723374D01*
X170987795Y-88809744D01*
X170909774Y-88998102D01*
X170870000Y-89198061D01*
X170160000Y-89198061D01*
X170160000Y-89047710D01*
X170257606Y-88967606D01*
X170361831Y-88840608D01*
X170439278Y-88695716D01*
X170486969Y-88538500D01*
X170503072Y-88375000D01*
X170503072Y-87025000D01*
X170486969Y-86861500D01*
X170439278Y-86704284D01*
X170361831Y-86559392D01*
X170257606Y-86432394D01*
X170130608Y-86328169D01*
X169985716Y-86250722D01*
X169828500Y-86203031D01*
X169665000Y-86186928D01*
X169265000Y-86186928D01*
X169101500Y-86203031D01*
X168944284Y-86250722D01*
X168799392Y-86328169D01*
X168672394Y-86432394D01*
X168568169Y-86559392D01*
X168490722Y-86704284D01*
X168443031Y-86861500D01*
X168426928Y-87025000D01*
X168426928Y-88375000D01*
X168443031Y-88538500D01*
X168490722Y-88695716D01*
X168568169Y-88840608D01*
X168640000Y-88928135D01*
X168640000Y-89321299D01*
X168596063Y-89365236D01*
X168482795Y-89534754D01*
X168404774Y-89723112D01*
X168365000Y-89923071D01*
X168365000Y-90126949D01*
X168404774Y-90326908D01*
X168482795Y-90515266D01*
X168596063Y-90684784D01*
X168740226Y-90828947D01*
X168909744Y-90942215D01*
X169019192Y-90987550D01*
X154699242Y-91073002D01*
X154674481Y-91075590D01*
X154650700Y-91082959D01*
X154628814Y-91094826D01*
X154609663Y-91110735D01*
X154593984Y-91130074D01*
X154582379Y-91152100D01*
X154575295Y-91175967D01*
X154573000Y-91200000D01*
X122660000Y-91200000D01*
X122660000Y-88998061D01*
X158465000Y-88998061D01*
X158465000Y-89201939D01*
X158504774Y-89401898D01*
X158582795Y-89590256D01*
X158696063Y-89759774D01*
X158840226Y-89903937D01*
X159009744Y-90017205D01*
X159198102Y-90095226D01*
X159398061Y-90135000D01*
X159601939Y-90135000D01*
X159801898Y-90095226D01*
X159990256Y-90017205D01*
X160159774Y-89903937D01*
X160303937Y-89759774D01*
X160417205Y-89590256D01*
X160495226Y-89401898D01*
X160535000Y-89201939D01*
X160535000Y-88998061D01*
X160965000Y-88998061D01*
X160965000Y-89201939D01*
X161004774Y-89401898D01*
X161082795Y-89590256D01*
X161196063Y-89759774D01*
X161340226Y-89903937D01*
X161509744Y-90017205D01*
X161698102Y-90095226D01*
X161898061Y-90135000D01*
X162101939Y-90135000D01*
X162301898Y-90095226D01*
X162490256Y-90017205D01*
X162659774Y-89903937D01*
X162803937Y-89759774D01*
X162917205Y-89590256D01*
X162995226Y-89401898D01*
X163035000Y-89201939D01*
X163035000Y-88998061D01*
X162995315Y-88798548D01*
X163001831Y-88790608D01*
X163079278Y-88645716D01*
X163126969Y-88488500D01*
X163143072Y-88325000D01*
X163143072Y-86975000D01*
X163126969Y-86811500D01*
X163079278Y-86654284D01*
X163001831Y-86509392D01*
X162897606Y-86382394D01*
X162770608Y-86278169D01*
X162625716Y-86200722D01*
X162468500Y-86153031D01*
X162305000Y-86136928D01*
X161905000Y-86136928D01*
X161741500Y-86153031D01*
X161584284Y-86200722D01*
X161439392Y-86278169D01*
X161312394Y-86382394D01*
X161208169Y-86509392D01*
X161130722Y-86654284D01*
X161083031Y-86811500D01*
X161066928Y-86975000D01*
X161066928Y-88325000D01*
X161083031Y-88488500D01*
X161108252Y-88571644D01*
X161082795Y-88609744D01*
X161004774Y-88798102D01*
X160965000Y-88998061D01*
X160535000Y-88998061D01*
X160495226Y-88798102D01*
X160478897Y-88758680D01*
X160539278Y-88645716D01*
X160586969Y-88488500D01*
X160603072Y-88325000D01*
X160603072Y-86975000D01*
X160586969Y-86811500D01*
X160539278Y-86654284D01*
X160461831Y-86509392D01*
X160357606Y-86382394D01*
X160230608Y-86278169D01*
X160085716Y-86200722D01*
X159928500Y-86153031D01*
X159765000Y-86136928D01*
X159365000Y-86136928D01*
X159201500Y-86153031D01*
X159044284Y-86200722D01*
X158899392Y-86278169D01*
X158772394Y-86382394D01*
X158668169Y-86509392D01*
X158590722Y-86654284D01*
X158543031Y-86811500D01*
X158526928Y-86975000D01*
X158526928Y-88325000D01*
X158543031Y-88488500D01*
X158581072Y-88613904D01*
X158504774Y-88798102D01*
X158465000Y-88998061D01*
X122660000Y-88998061D01*
X122660000Y-88282939D01*
X122765820Y-88339502D01*
X122885518Y-88375812D01*
X123010000Y-88388072D01*
X125510000Y-88388072D01*
X125634482Y-88375812D01*
X125754180Y-88339502D01*
X125864494Y-88280537D01*
X125961185Y-88201185D01*
X126040537Y-88104494D01*
X126099502Y-87994180D01*
X126135812Y-87874482D01*
X126148072Y-87750000D01*
X126148072Y-84750000D01*
X126135812Y-84625518D01*
X126099502Y-84505820D01*
X126040537Y-84395506D01*
X125961185Y-84298815D01*
X125864494Y-84219463D01*
X125754180Y-84160498D01*
X125634482Y-84124188D01*
X125510000Y-84111928D01*
X123010000Y-84111928D01*
X122885518Y-84124188D01*
X122765820Y-84160498D01*
X122660000Y-84217061D01*
X122660000Y-83998061D01*
X131365000Y-83998061D01*
X131365000Y-84201939D01*
X131404774Y-84401898D01*
X131482795Y-84590256D01*
X131596063Y-84759774D01*
X131740226Y-84903937D01*
X131909744Y-85017205D01*
X132098102Y-85095226D01*
X132298061Y-85135000D01*
X132501939Y-85135000D01*
X132701898Y-85095226D01*
X132890256Y-85017205D01*
X133059774Y-84903937D01*
X133071928Y-84891783D01*
X133071928Y-87750000D01*
X133084188Y-87874482D01*
X133120498Y-87994180D01*
X133179463Y-88104494D01*
X133258815Y-88201185D01*
X133355506Y-88280537D01*
X133465820Y-88339502D01*
X133585518Y-88375812D01*
X133710000Y-88388072D01*
X136210000Y-88388072D01*
X136334482Y-88375812D01*
X136454180Y-88339502D01*
X136564494Y-88280537D01*
X136661185Y-88201185D01*
X136740537Y-88104494D01*
X136799502Y-87994180D01*
X136835812Y-87874482D01*
X136848072Y-87750000D01*
X136848072Y-85250000D01*
X139611928Y-85250000D01*
X139611928Y-88250000D01*
X139624188Y-88374482D01*
X139660498Y-88494180D01*
X139719463Y-88604494D01*
X139798815Y-88701185D01*
X139895506Y-88780537D01*
X140005820Y-88839502D01*
X140125518Y-88875812D01*
X140250000Y-88888072D01*
X142750000Y-88888072D01*
X142874482Y-88875812D01*
X142994180Y-88839502D01*
X143104494Y-88780537D01*
X143201185Y-88701185D01*
X143280537Y-88604494D01*
X143339502Y-88494180D01*
X143375812Y-88374482D01*
X143388072Y-88250000D01*
X143388072Y-85835907D01*
X143509744Y-85917205D01*
X143698102Y-85995226D01*
X143898061Y-86035000D01*
X144101939Y-86035000D01*
X144301898Y-85995226D01*
X144490256Y-85917205D01*
X144625000Y-85827172D01*
X144759744Y-85917205D01*
X144948102Y-85995226D01*
X145148061Y-86035000D01*
X145351939Y-86035000D01*
X145551898Y-85995226D01*
X145740256Y-85917205D01*
X145909774Y-85803937D01*
X146053937Y-85659774D01*
X146167205Y-85490256D01*
X146245226Y-85301898D01*
X146285000Y-85101939D01*
X146285000Y-84898061D01*
X146245226Y-84698102D01*
X146205539Y-84602291D01*
X146315000Y-84613072D01*
X146615000Y-84613072D01*
X146641058Y-84610505D01*
X146604774Y-84698102D01*
X146565000Y-84898061D01*
X146565000Y-85101939D01*
X146604774Y-85301898D01*
X146682795Y-85490256D01*
X146796063Y-85659774D01*
X146940226Y-85803937D01*
X147109744Y-85917205D01*
X147298102Y-85995226D01*
X147498061Y-86035000D01*
X147701939Y-86035000D01*
X147901898Y-85995226D01*
X148090256Y-85917205D01*
X148259774Y-85803937D01*
X148350000Y-85713711D01*
X148440226Y-85803937D01*
X148609744Y-85917205D01*
X148798102Y-85995226D01*
X148998061Y-86035000D01*
X149201939Y-86035000D01*
X149401898Y-85995226D01*
X149590256Y-85917205D01*
X149759774Y-85803937D01*
X149903937Y-85659774D01*
X150017205Y-85490256D01*
X150095226Y-85301898D01*
X150135000Y-85101939D01*
X150135000Y-84898061D01*
X150095226Y-84698102D01*
X150057241Y-84606398D01*
X150125000Y-84613072D01*
X150425000Y-84613072D01*
X150578745Y-84597929D01*
X150726582Y-84553084D01*
X150862829Y-84480258D01*
X150910000Y-84441546D01*
X150957171Y-84480258D01*
X151093418Y-84553084D01*
X151241255Y-84597929D01*
X151383385Y-84611928D01*
X150950000Y-84611928D01*
X150825518Y-84624188D01*
X150705820Y-84660498D01*
X150595506Y-84719463D01*
X150498815Y-84798815D01*
X150419463Y-84895506D01*
X150360498Y-85005820D01*
X150324188Y-85125518D01*
X150311928Y-85250000D01*
X150311928Y-88250000D01*
X150324188Y-88374482D01*
X150360498Y-88494180D01*
X150419463Y-88604494D01*
X150498815Y-88701185D01*
X150595506Y-88780537D01*
X150705820Y-88839502D01*
X150825518Y-88875812D01*
X150950000Y-88888072D01*
X153450000Y-88888072D01*
X153574482Y-88875812D01*
X153694180Y-88839502D01*
X153804494Y-88780537D01*
X153901185Y-88701185D01*
X153980537Y-88604494D01*
X154039502Y-88494180D01*
X154075812Y-88374482D01*
X154088072Y-88250000D01*
X154088072Y-85925000D01*
X181986928Y-85925000D01*
X181986928Y-87875000D01*
X181999188Y-87999482D01*
X182035498Y-88119180D01*
X182094463Y-88229494D01*
X182173815Y-88326185D01*
X182270506Y-88405537D01*
X182380820Y-88464502D01*
X182500518Y-88500812D01*
X182625000Y-88513072D01*
X184575000Y-88513072D01*
X184699482Y-88500812D01*
X184819180Y-88464502D01*
X184929494Y-88405537D01*
X185026185Y-88326185D01*
X185105537Y-88229494D01*
X185164502Y-88119180D01*
X185200812Y-87999482D01*
X185213072Y-87875000D01*
X185213072Y-85925000D01*
X185200812Y-85800518D01*
X185164502Y-85680820D01*
X185105537Y-85570506D01*
X185026185Y-85473815D01*
X184929494Y-85394463D01*
X184819180Y-85335498D01*
X184699482Y-85299188D01*
X184575000Y-85286928D01*
X182625000Y-85286928D01*
X182500518Y-85299188D01*
X182380820Y-85335498D01*
X182270506Y-85394463D01*
X182173815Y-85473815D01*
X182094463Y-85570506D01*
X182035498Y-85680820D01*
X181999188Y-85800518D01*
X181986928Y-85925000D01*
X154088072Y-85925000D01*
X154088072Y-85250000D01*
X154075812Y-85125518D01*
X154039502Y-85005820D01*
X153980537Y-84895506D01*
X153901185Y-84798815D01*
X153804494Y-84719463D01*
X153694180Y-84660498D01*
X153574482Y-84624188D01*
X153450000Y-84611928D01*
X152976615Y-84611928D01*
X153118745Y-84597929D01*
X153266582Y-84553084D01*
X153402829Y-84480258D01*
X153522251Y-84382251D01*
X153620258Y-84262829D01*
X153693084Y-84126582D01*
X153737929Y-83978745D01*
X153753072Y-83825000D01*
X153753072Y-83406160D01*
X153898061Y-83435000D01*
X154101939Y-83435000D01*
X154301898Y-83395226D01*
X154490256Y-83317205D01*
X154659774Y-83203937D01*
X154803937Y-83059774D01*
X154917205Y-82890256D01*
X154995226Y-82701898D01*
X155035000Y-82501939D01*
X155035000Y-82298061D01*
X154995226Y-82098102D01*
X154917205Y-81909744D01*
X154803937Y-81740226D01*
X154659774Y-81596063D01*
X154490256Y-81482795D01*
X154301898Y-81404774D01*
X154101939Y-81365000D01*
X153898061Y-81365000D01*
X153698102Y-81404774D01*
X153509744Y-81482795D01*
X153493161Y-81493875D01*
X153402829Y-81419742D01*
X153266582Y-81346916D01*
X153118745Y-81302071D01*
X152965000Y-81286928D01*
X152665000Y-81286928D01*
X152535000Y-81299732D01*
X152535000Y-81198061D01*
X152495226Y-80998102D01*
X152417205Y-80809744D01*
X152303937Y-80640226D01*
X152159774Y-80496063D01*
X151990256Y-80382795D01*
X151801898Y-80304774D01*
X151601939Y-80265000D01*
X151398061Y-80265000D01*
X151198102Y-80304774D01*
X151009744Y-80382795D01*
X150941863Y-80428152D01*
X150934774Y-80421063D01*
X150765256Y-80307795D01*
X150576898Y-80229774D01*
X150376939Y-80190000D01*
X150173061Y-80190000D01*
X149973102Y-80229774D01*
X149784744Y-80307795D01*
X149656208Y-80393680D01*
X149490256Y-80282795D01*
X149301898Y-80204774D01*
X149101939Y-80165000D01*
X148898061Y-80165000D01*
X148698102Y-80204774D01*
X148509744Y-80282795D01*
X148340226Y-80396063D01*
X148196063Y-80540226D01*
X148082795Y-80709744D01*
X148004774Y-80898102D01*
X147965000Y-81098061D01*
X147965000Y-81294808D01*
X147885000Y-81286928D01*
X147585000Y-81286928D01*
X147485000Y-81296777D01*
X147485000Y-81098061D01*
X147445226Y-80898102D01*
X147367205Y-80709744D01*
X147253937Y-80540226D01*
X147109774Y-80396063D01*
X146940256Y-80282795D01*
X146751898Y-80204774D01*
X146551939Y-80165000D01*
X146348061Y-80165000D01*
X146148102Y-80204774D01*
X145959744Y-80282795D01*
X145790226Y-80396063D01*
X145646063Y-80540226D01*
X145532795Y-80709744D01*
X145454774Y-80898102D01*
X145415000Y-81098061D01*
X145415000Y-81293823D01*
X145345000Y-81286928D01*
X145045000Y-81286928D01*
X144891255Y-81302071D01*
X144743418Y-81346916D01*
X144607171Y-81419742D01*
X144560000Y-81458454D01*
X144512829Y-81419742D01*
X144376582Y-81346916D01*
X144228745Y-81302071D01*
X144075000Y-81286928D01*
X143775000Y-81286928D01*
X143621255Y-81302071D01*
X143473418Y-81346916D01*
X143337171Y-81419742D01*
X143290000Y-81458454D01*
X143242829Y-81419742D01*
X143106582Y-81346916D01*
X142958745Y-81302071D01*
X142805000Y-81286928D01*
X142505000Y-81286928D01*
X142351255Y-81302071D01*
X142203418Y-81346916D01*
X142069064Y-81418730D01*
X142039494Y-81394463D01*
X141929180Y-81335498D01*
X141809482Y-81299188D01*
X141685000Y-81286928D01*
X141670750Y-81290000D01*
X141512000Y-81448750D01*
X141512000Y-82823000D01*
X141532000Y-82823000D01*
X141532000Y-83077000D01*
X141512000Y-83077000D01*
X141512000Y-84451250D01*
X141670750Y-84610000D01*
X141679693Y-84611928D01*
X141090307Y-84611928D01*
X141099250Y-84610000D01*
X141258000Y-84451250D01*
X141258000Y-83077000D01*
X140608750Y-83077000D01*
X140450000Y-83235750D01*
X140446928Y-83975000D01*
X140459188Y-84099482D01*
X140495498Y-84219180D01*
X140554463Y-84329494D01*
X140633815Y-84426185D01*
X140730506Y-84505537D01*
X140840820Y-84564502D01*
X140960518Y-84600812D01*
X141073384Y-84611928D01*
X140250000Y-84611928D01*
X140125518Y-84624188D01*
X140005820Y-84660498D01*
X139895506Y-84719463D01*
X139798815Y-84798815D01*
X139719463Y-84895506D01*
X139660498Y-85005820D01*
X139624188Y-85125518D01*
X139611928Y-85250000D01*
X136848072Y-85250000D01*
X136848072Y-84750000D01*
X136835812Y-84625518D01*
X136799502Y-84505820D01*
X136740537Y-84395506D01*
X136661185Y-84298815D01*
X136564494Y-84219463D01*
X136454180Y-84160498D01*
X136334482Y-84124188D01*
X136210000Y-84111928D01*
X135535000Y-84111928D01*
X135535000Y-83998061D01*
X135495226Y-83798102D01*
X135417205Y-83609744D01*
X135303937Y-83440226D01*
X135159774Y-83296063D01*
X134990256Y-83182795D01*
X134801898Y-83104774D01*
X134601939Y-83065000D01*
X134398061Y-83065000D01*
X134198102Y-83104774D01*
X134009744Y-83182795D01*
X133840226Y-83296063D01*
X133796289Y-83340000D01*
X133103711Y-83340000D01*
X133059774Y-83296063D01*
X132890256Y-83182795D01*
X132701898Y-83104774D01*
X132501939Y-83065000D01*
X132298061Y-83065000D01*
X132098102Y-83104774D01*
X131909744Y-83182795D01*
X131740226Y-83296063D01*
X131596063Y-83440226D01*
X131482795Y-83609744D01*
X131404774Y-83798102D01*
X131365000Y-83998061D01*
X122660000Y-83998061D01*
X122660000Y-81925000D01*
X140446928Y-81925000D01*
X140450000Y-82664250D01*
X140608750Y-82823000D01*
X141258000Y-82823000D01*
X141258000Y-81448750D01*
X141099250Y-81290000D01*
X141085000Y-81286928D01*
X140960518Y-81299188D01*
X140840820Y-81335498D01*
X140730506Y-81394463D01*
X140633815Y-81473815D01*
X140554463Y-81570506D01*
X140495498Y-81680820D01*
X140459188Y-81800518D01*
X140446928Y-81925000D01*
X122660000Y-81925000D01*
X122660000Y-77000000D01*
X125771928Y-77000000D01*
X125771928Y-79000000D01*
X125784188Y-79124482D01*
X125820498Y-79244180D01*
X125879463Y-79354494D01*
X125958815Y-79451185D01*
X126055506Y-79530537D01*
X126165820Y-79589502D01*
X126285518Y-79625812D01*
X126410000Y-79638072D01*
X128410000Y-79638072D01*
X128534482Y-79625812D01*
X128654180Y-79589502D01*
X128764494Y-79530537D01*
X128861185Y-79451185D01*
X128940537Y-79354494D01*
X128995976Y-79250777D01*
X129049956Y-79399814D01*
X129339571Y-79540704D01*
X129651108Y-79622384D01*
X129972595Y-79641718D01*
X130291675Y-79597961D01*
X130596088Y-79492795D01*
X130770044Y-79399814D01*
X130865808Y-79135413D01*
X129910000Y-78179605D01*
X129895858Y-78193748D01*
X129716253Y-78014143D01*
X129730395Y-78000000D01*
X130089605Y-78000000D01*
X131045413Y-78955808D01*
X131075075Y-78945065D01*
X131140013Y-79042252D01*
X131367748Y-79269987D01*
X131635537Y-79448918D01*
X131933088Y-79572168D01*
X132248967Y-79635000D01*
X132571033Y-79635000D01*
X132886912Y-79572168D01*
X133184463Y-79448918D01*
X133452252Y-79269987D01*
X133679987Y-79042252D01*
X133858918Y-78774463D01*
X133982168Y-78476912D01*
X134045000Y-78161033D01*
X134045000Y-77838967D01*
X133982168Y-77523088D01*
X133858918Y-77225537D01*
X133679987Y-76957748D01*
X133452252Y-76730013D01*
X133184463Y-76551082D01*
X132886912Y-76427832D01*
X132571033Y-76365000D01*
X132248967Y-76365000D01*
X131933088Y-76427832D01*
X131635537Y-76551082D01*
X131367748Y-76730013D01*
X131140013Y-76957748D01*
X131075075Y-77054935D01*
X131045413Y-77044192D01*
X130089605Y-78000000D01*
X129730395Y-78000000D01*
X129716253Y-77985858D01*
X129895858Y-77806253D01*
X129910000Y-77820395D01*
X130865808Y-76864587D01*
X130770044Y-76600186D01*
X130480429Y-76459296D01*
X130168892Y-76377616D01*
X129847405Y-76358282D01*
X129528325Y-76402039D01*
X129223912Y-76507205D01*
X129049956Y-76600186D01*
X128995976Y-76749223D01*
X128940537Y-76645506D01*
X128861185Y-76548815D01*
X128764494Y-76469463D01*
X128654180Y-76410498D01*
X128534482Y-76374188D01*
X128410000Y-76361928D01*
X126410000Y-76361928D01*
X126285518Y-76374188D01*
X126165820Y-76410498D01*
X126055506Y-76469463D01*
X125958815Y-76548815D01*
X125879463Y-76645506D01*
X125820498Y-76755820D01*
X125784188Y-76875518D01*
X125771928Y-77000000D01*
X122660000Y-77000000D01*
X122660000Y-75400000D01*
X138486928Y-75400000D01*
X138499188Y-75524482D01*
X138535498Y-75644180D01*
X138594463Y-75754494D01*
X138673815Y-75851185D01*
X138770506Y-75930537D01*
X138880820Y-75989502D01*
X139000518Y-76025812D01*
X139125000Y-76038072D01*
X139314250Y-76035000D01*
X139473000Y-75876250D01*
X139473000Y-74989500D01*
X138648750Y-74989500D01*
X138490000Y-75148250D01*
X138486928Y-75400000D01*
X122660000Y-75400000D01*
X122660000Y-72998061D01*
X137265000Y-72998061D01*
X137265000Y-73201939D01*
X137304774Y-73401898D01*
X137382795Y-73590256D01*
X137496063Y-73759774D01*
X137640226Y-73903937D01*
X137809744Y-74017205D01*
X137998102Y-74095226D01*
X138198061Y-74135000D01*
X138401939Y-74135000D01*
X138526584Y-74110207D01*
X138499188Y-74200518D01*
X138486928Y-74325000D01*
X138490000Y-74576750D01*
X138648750Y-74735500D01*
X139473000Y-74735500D01*
X139473000Y-74715500D01*
X139727000Y-74715500D01*
X139727000Y-74735500D01*
X139747000Y-74735500D01*
X139747000Y-74989500D01*
X139727000Y-74989500D01*
X139727000Y-75876250D01*
X139885750Y-76035000D01*
X140075000Y-76038072D01*
X140199482Y-76025812D01*
X140319180Y-75989502D01*
X140429494Y-75930537D01*
X140526185Y-75851185D01*
X140605537Y-75754494D01*
X140664502Y-75644180D01*
X140700812Y-75524482D01*
X140713072Y-75400000D01*
X140710499Y-75189117D01*
X140730506Y-75205537D01*
X140840820Y-75264502D01*
X140960518Y-75300812D01*
X141085000Y-75313072D01*
X141685000Y-75313072D01*
X141809482Y-75300812D01*
X141929180Y-75264502D01*
X142039494Y-75205537D01*
X142069064Y-75181270D01*
X142203418Y-75253084D01*
X142265000Y-75271764D01*
X142265000Y-75301939D01*
X142304774Y-75501898D01*
X142382795Y-75690256D01*
X142496063Y-75859774D01*
X142640226Y-76003937D01*
X142809744Y-76117205D01*
X142925997Y-76165359D01*
X142909463Y-76185506D01*
X142850498Y-76295820D01*
X142814188Y-76415518D01*
X142801928Y-76540000D01*
X142801928Y-78540000D01*
X142814188Y-78664482D01*
X142850498Y-78784180D01*
X142909463Y-78894494D01*
X142988815Y-78991185D01*
X143085506Y-79070537D01*
X143195820Y-79129502D01*
X143315518Y-79165812D01*
X143440000Y-79178072D01*
X145440000Y-79178072D01*
X145564482Y-79165812D01*
X145684180Y-79129502D01*
X145794494Y-79070537D01*
X145891185Y-78991185D01*
X145970537Y-78894494D01*
X146025976Y-78790777D01*
X146079956Y-78939814D01*
X146369571Y-79080704D01*
X146681108Y-79162384D01*
X147002595Y-79181718D01*
X147321675Y-79137961D01*
X147626088Y-79032795D01*
X147800044Y-78939814D01*
X147895808Y-78675413D01*
X146940000Y-77719605D01*
X146925858Y-77733748D01*
X146746253Y-77554143D01*
X146760395Y-77540000D01*
X146746253Y-77525858D01*
X146925858Y-77346253D01*
X146940000Y-77360395D01*
X147895808Y-76404587D01*
X147800044Y-76140186D01*
X147510429Y-75999296D01*
X147315518Y-75948193D01*
X147353937Y-75909774D01*
X147467205Y-75740256D01*
X147545226Y-75551898D01*
X147585000Y-75351939D01*
X147585000Y-75313072D01*
X147885000Y-75313072D01*
X147965000Y-75305192D01*
X147965000Y-75401939D01*
X148004774Y-75601898D01*
X148082795Y-75790256D01*
X148196063Y-75959774D01*
X148340226Y-76103937D01*
X148493262Y-76206192D01*
X148397748Y-76270013D01*
X148170013Y-76497748D01*
X148105075Y-76594935D01*
X148075413Y-76584192D01*
X147119605Y-77540000D01*
X148075413Y-78495808D01*
X148105075Y-78485065D01*
X148170013Y-78582252D01*
X148397748Y-78809987D01*
X148665537Y-78988918D01*
X148963088Y-79112168D01*
X149278967Y-79175000D01*
X149601033Y-79175000D01*
X149916912Y-79112168D01*
X150214463Y-78988918D01*
X150482252Y-78809987D01*
X150694178Y-78598061D01*
X169265000Y-78598061D01*
X169265000Y-78801939D01*
X169304774Y-79001898D01*
X169382795Y-79190256D01*
X169496063Y-79359774D01*
X169640226Y-79503937D01*
X169809744Y-79617205D01*
X169998102Y-79695226D01*
X170198061Y-79735000D01*
X170401939Y-79735000D01*
X170601898Y-79695226D01*
X170790256Y-79617205D01*
X170860224Y-79570454D01*
X180563988Y-79579086D01*
X180561928Y-79600000D01*
X180561928Y-82000000D01*
X180574188Y-82124482D01*
X180610498Y-82244180D01*
X180669463Y-82354494D01*
X180748815Y-82451185D01*
X180845506Y-82530537D01*
X180955820Y-82589502D01*
X181075518Y-82625812D01*
X181200000Y-82638072D01*
X183600000Y-82638072D01*
X183724482Y-82625812D01*
X183844180Y-82589502D01*
X183954494Y-82530537D01*
X184051185Y-82451185D01*
X184130537Y-82354494D01*
X184189502Y-82244180D01*
X184225812Y-82124482D01*
X184238072Y-82000000D01*
X184238072Y-81985000D01*
X184401939Y-81985000D01*
X184601898Y-81945226D01*
X184790256Y-81867205D01*
X184959774Y-81753937D01*
X185103937Y-81609774D01*
X185217205Y-81440256D01*
X185295226Y-81251898D01*
X185335000Y-81051939D01*
X185335000Y-80848061D01*
X185295226Y-80648102D01*
X185217205Y-80459744D01*
X185103937Y-80290226D01*
X185060000Y-80246289D01*
X185060000Y-79337322D01*
X185063676Y-79299999D01*
X185060000Y-79262676D01*
X185060000Y-79262667D01*
X185049003Y-79151014D01*
X185005546Y-79007753D01*
X184934974Y-78875724D01*
X184840001Y-78759999D01*
X184811002Y-78736200D01*
X184385527Y-78310726D01*
X184361725Y-78281723D01*
X184246000Y-78186750D01*
X184113971Y-78116178D01*
X183970710Y-78072721D01*
X183859057Y-78061724D01*
X183859046Y-78061724D01*
X183821724Y-78058048D01*
X183784402Y-78061724D01*
X183528065Y-78061724D01*
X171110920Y-78050678D01*
X171103937Y-78040226D01*
X170959774Y-77896063D01*
X170790256Y-77782795D01*
X170601898Y-77704774D01*
X170401939Y-77665000D01*
X170198061Y-77665000D01*
X169998102Y-77704774D01*
X169809744Y-77782795D01*
X169640226Y-77896063D01*
X169496063Y-78040226D01*
X169382795Y-78209744D01*
X169304774Y-78398102D01*
X169265000Y-78598061D01*
X150694178Y-78598061D01*
X150709987Y-78582252D01*
X150888918Y-78314463D01*
X151012168Y-78016912D01*
X151075000Y-77701033D01*
X151075000Y-77378967D01*
X151015131Y-77077980D01*
X181301626Y-77077980D01*
X181421514Y-77362836D01*
X181745210Y-77523699D01*
X182094069Y-77618322D01*
X182454684Y-77643067D01*
X182813198Y-77596985D01*
X183155833Y-77481846D01*
X183378486Y-77362836D01*
X183498374Y-77077980D01*
X182400000Y-75979605D01*
X181301626Y-77077980D01*
X151015131Y-77077980D01*
X151012168Y-77063088D01*
X150888918Y-76765537D01*
X150709987Y-76497748D01*
X150482252Y-76270013D01*
X150214463Y-76091082D01*
X149916912Y-75967832D01*
X149812438Y-75947051D01*
X149917205Y-75790256D01*
X149995226Y-75601898D01*
X150035000Y-75401939D01*
X150035000Y-75304208D01*
X150125000Y-75313072D01*
X150425000Y-75313072D01*
X150519812Y-75303734D01*
X150510000Y-75353061D01*
X150510000Y-75556939D01*
X150549774Y-75756898D01*
X150627795Y-75945256D01*
X150741063Y-76114774D01*
X150885226Y-76258937D01*
X151054744Y-76372205D01*
X151243102Y-76450226D01*
X151443061Y-76490000D01*
X151646939Y-76490000D01*
X151846898Y-76450226D01*
X152035256Y-76372205D01*
X152139105Y-76302816D01*
X152140226Y-76303937D01*
X152309744Y-76417205D01*
X152498102Y-76495226D01*
X152698061Y-76535000D01*
X152901939Y-76535000D01*
X153101898Y-76495226D01*
X153290256Y-76417205D01*
X153459774Y-76303937D01*
X153603937Y-76159774D01*
X153717205Y-75990256D01*
X153773361Y-75854684D01*
X180556933Y-75854684D01*
X180603015Y-76213198D01*
X180718154Y-76555833D01*
X180837164Y-76778486D01*
X181122020Y-76898374D01*
X182220395Y-75800000D01*
X182579605Y-75800000D01*
X183677980Y-76898374D01*
X183962836Y-76778486D01*
X184123699Y-76454790D01*
X184218322Y-76105931D01*
X184243067Y-75745316D01*
X184196985Y-75386802D01*
X184081846Y-75044167D01*
X183962836Y-74821514D01*
X183677980Y-74701626D01*
X182579605Y-75800000D01*
X182220395Y-75800000D01*
X181122020Y-74701626D01*
X180837164Y-74821514D01*
X180676301Y-75145210D01*
X180581678Y-75494069D01*
X180556933Y-75854684D01*
X153773361Y-75854684D01*
X153795226Y-75801898D01*
X153835000Y-75601939D01*
X153835000Y-75398061D01*
X153804637Y-75245413D01*
X155184192Y-75245413D01*
X155279956Y-75509814D01*
X155569571Y-75650704D01*
X155881108Y-75732384D01*
X156202595Y-75751718D01*
X156521675Y-75707961D01*
X156826088Y-75602795D01*
X157000044Y-75509814D01*
X157095808Y-75245413D01*
X161684192Y-75245413D01*
X161779956Y-75509814D01*
X162069571Y-75650704D01*
X162381108Y-75732384D01*
X162702595Y-75751718D01*
X163021675Y-75707961D01*
X163326088Y-75602795D01*
X163500044Y-75509814D01*
X163595808Y-75245413D01*
X162640000Y-74289605D01*
X161684192Y-75245413D01*
X157095808Y-75245413D01*
X156140000Y-74289605D01*
X155184192Y-75245413D01*
X153804637Y-75245413D01*
X153795226Y-75198102D01*
X153717205Y-75009744D01*
X153649413Y-74908285D01*
X153693084Y-74826582D01*
X153737929Y-74678745D01*
X153753072Y-74525000D01*
X153753072Y-74172595D01*
X154498282Y-74172595D01*
X154542039Y-74491675D01*
X154647205Y-74796088D01*
X154740186Y-74970044D01*
X155004587Y-75065808D01*
X155960395Y-74110000D01*
X156319605Y-74110000D01*
X157275413Y-75065808D01*
X157539814Y-74970044D01*
X157680704Y-74680429D01*
X157762384Y-74368892D01*
X157774189Y-74172595D01*
X160998282Y-74172595D01*
X161042039Y-74491675D01*
X161147205Y-74796088D01*
X161240186Y-74970044D01*
X161504587Y-75065808D01*
X162460395Y-74110000D01*
X162819605Y-74110000D01*
X163775413Y-75065808D01*
X164039814Y-74970044D01*
X164180704Y-74680429D01*
X164222236Y-74522020D01*
X181301626Y-74522020D01*
X182400000Y-75620395D01*
X183498374Y-74522020D01*
X183378486Y-74237164D01*
X183054790Y-74076301D01*
X182705931Y-73981678D01*
X182345316Y-73956933D01*
X181986802Y-74003015D01*
X181644167Y-74118154D01*
X181421514Y-74237164D01*
X181301626Y-74522020D01*
X164222236Y-74522020D01*
X164262384Y-74368892D01*
X164281718Y-74047405D01*
X164237961Y-73728325D01*
X164132795Y-73423912D01*
X164039814Y-73249956D01*
X163775413Y-73154192D01*
X162819605Y-74110000D01*
X162460395Y-74110000D01*
X161504587Y-73154192D01*
X161240186Y-73249956D01*
X161099296Y-73539571D01*
X161017616Y-73851108D01*
X160998282Y-74172595D01*
X157774189Y-74172595D01*
X157781718Y-74047405D01*
X157737961Y-73728325D01*
X157632795Y-73423912D01*
X157539814Y-73249956D01*
X157275413Y-73154192D01*
X156319605Y-74110000D01*
X155960395Y-74110000D01*
X155004587Y-73154192D01*
X154740186Y-73249956D01*
X154599296Y-73539571D01*
X154517616Y-73851108D01*
X154498282Y-74172595D01*
X153753072Y-74172595D01*
X153753072Y-72974587D01*
X155184192Y-72974587D01*
X156140000Y-73930395D01*
X157095808Y-72974587D01*
X161684192Y-72974587D01*
X162640000Y-73930395D01*
X163595808Y-72974587D01*
X163500044Y-72710186D01*
X163210429Y-72569296D01*
X162898892Y-72487616D01*
X162577405Y-72468282D01*
X162258325Y-72512039D01*
X161953912Y-72617205D01*
X161779956Y-72710186D01*
X161684192Y-72974587D01*
X157095808Y-72974587D01*
X157000044Y-72710186D01*
X156710429Y-72569296D01*
X156398892Y-72487616D01*
X156077405Y-72468282D01*
X155758325Y-72512039D01*
X155453912Y-72617205D01*
X155279956Y-72710186D01*
X155184192Y-72974587D01*
X153753072Y-72974587D01*
X153753072Y-72775000D01*
X153737929Y-72621255D01*
X153693084Y-72473418D01*
X153620258Y-72337171D01*
X153522251Y-72217749D01*
X153446961Y-72155960D01*
X153534180Y-72129502D01*
X153644494Y-72070537D01*
X153741185Y-71991185D01*
X153820537Y-71894494D01*
X153879502Y-71784180D01*
X153915812Y-71664482D01*
X153928072Y-71540000D01*
X153928072Y-69448967D01*
X154505000Y-69448967D01*
X154505000Y-69771033D01*
X154567832Y-70086912D01*
X154691082Y-70384463D01*
X154870013Y-70652252D01*
X155097748Y-70879987D01*
X155365537Y-71058918D01*
X155663088Y-71182168D01*
X155978967Y-71245000D01*
X156301033Y-71245000D01*
X156616912Y-71182168D01*
X156914463Y-71058918D01*
X157182252Y-70879987D01*
X157409987Y-70652252D01*
X157588918Y-70384463D01*
X157712168Y-70086912D01*
X157775000Y-69771033D01*
X157775000Y-69448967D01*
X161005000Y-69448967D01*
X161005000Y-69771033D01*
X161067832Y-70086912D01*
X161191082Y-70384463D01*
X161370013Y-70652252D01*
X161597748Y-70879987D01*
X161865537Y-71058918D01*
X162163088Y-71182168D01*
X162478967Y-71245000D01*
X162801033Y-71245000D01*
X163116912Y-71182168D01*
X163414463Y-71058918D01*
X163682252Y-70879987D01*
X163909987Y-70652252D01*
X164088918Y-70384463D01*
X164212168Y-70086912D01*
X164275000Y-69771033D01*
X164275000Y-69448967D01*
X164212168Y-69133088D01*
X164125975Y-68925000D01*
X166656928Y-68925000D01*
X166656928Y-70275000D01*
X166673031Y-70438500D01*
X166720722Y-70595716D01*
X166782305Y-70710928D01*
X166704774Y-70898102D01*
X166665000Y-71098061D01*
X166665000Y-71301939D01*
X166704774Y-71501898D01*
X166782795Y-71690256D01*
X166896063Y-71859774D01*
X167040226Y-72003937D01*
X167209744Y-72117205D01*
X167398102Y-72195226D01*
X167598061Y-72235000D01*
X167801939Y-72235000D01*
X168001898Y-72195226D01*
X168190256Y-72117205D01*
X168359774Y-72003937D01*
X168503937Y-71859774D01*
X168617205Y-71690256D01*
X168695226Y-71501898D01*
X168735000Y-71301939D01*
X168735000Y-71098061D01*
X168695226Y-70898102D01*
X168617205Y-70709744D01*
X168612273Y-70702363D01*
X168669278Y-70595716D01*
X168716969Y-70438500D01*
X168733072Y-70275000D01*
X168733072Y-68925000D01*
X169196928Y-68925000D01*
X169196928Y-70275000D01*
X169213031Y-70438500D01*
X169260722Y-70595716D01*
X169319949Y-70706521D01*
X169317795Y-70709744D01*
X169239774Y-70898102D01*
X169200000Y-71098061D01*
X169200000Y-71301939D01*
X169239774Y-71501898D01*
X169317795Y-71690256D01*
X169431063Y-71859774D01*
X169575226Y-72003937D01*
X169744744Y-72117205D01*
X169933102Y-72195226D01*
X170133061Y-72235000D01*
X170336939Y-72235000D01*
X170536898Y-72195226D01*
X170725256Y-72117205D01*
X170894774Y-72003937D01*
X171038937Y-71859774D01*
X171152205Y-71690256D01*
X171230226Y-71501898D01*
X171270000Y-71301939D01*
X171270000Y-71098061D01*
X171230226Y-70898102D01*
X171152205Y-70709744D01*
X171150051Y-70706521D01*
X171209278Y-70595716D01*
X171256969Y-70438500D01*
X171273072Y-70275000D01*
X171273072Y-69025000D01*
X176756928Y-69025000D01*
X176756928Y-70375000D01*
X176773031Y-70538500D01*
X176820722Y-70695716D01*
X176898169Y-70840608D01*
X177002394Y-70967606D01*
X177129392Y-71071831D01*
X177274284Y-71149278D01*
X177431500Y-71196969D01*
X177595000Y-71213072D01*
X177995000Y-71213072D01*
X178158500Y-71196969D01*
X178315716Y-71149278D01*
X178460608Y-71071831D01*
X178587606Y-70967606D01*
X178691831Y-70840608D01*
X178769278Y-70695716D01*
X178816969Y-70538500D01*
X178833072Y-70375000D01*
X178833072Y-69025000D01*
X178816969Y-68861500D01*
X178769278Y-68704284D01*
X178691831Y-68559392D01*
X178630620Y-68484806D01*
X178727205Y-68340256D01*
X178805226Y-68151898D01*
X178845000Y-67951939D01*
X178845000Y-67748061D01*
X178805226Y-67548102D01*
X178727205Y-67359744D01*
X178613937Y-67190226D01*
X178469774Y-67046063D01*
X178300256Y-66932795D01*
X178111898Y-66854774D01*
X177911939Y-66815000D01*
X177708061Y-66815000D01*
X177508102Y-66854774D01*
X177319744Y-66932795D01*
X177150226Y-67046063D01*
X177006063Y-67190226D01*
X176892795Y-67359744D01*
X176814774Y-67548102D01*
X176775000Y-67748061D01*
X176775000Y-67951939D01*
X176814774Y-68151898D01*
X176892795Y-68340256D01*
X176975917Y-68464657D01*
X176898169Y-68559392D01*
X176820722Y-68704284D01*
X176773031Y-68861500D01*
X176756928Y-69025000D01*
X171273072Y-69025000D01*
X171273072Y-68925000D01*
X171256969Y-68761500D01*
X171209278Y-68604284D01*
X171131831Y-68459392D01*
X171027606Y-68332394D01*
X170900608Y-68228169D01*
X170755716Y-68150722D01*
X170598500Y-68103031D01*
X170435000Y-68086928D01*
X170035000Y-68086928D01*
X169871500Y-68103031D01*
X169714284Y-68150722D01*
X169569392Y-68228169D01*
X169442394Y-68332394D01*
X169338169Y-68459392D01*
X169260722Y-68604284D01*
X169213031Y-68761500D01*
X169196928Y-68925000D01*
X168733072Y-68925000D01*
X168716969Y-68761500D01*
X168669278Y-68604284D01*
X168591831Y-68459392D01*
X168487606Y-68332394D01*
X168360608Y-68228169D01*
X168215716Y-68150722D01*
X168058500Y-68103031D01*
X167895000Y-68086928D01*
X167495000Y-68086928D01*
X167331500Y-68103031D01*
X167174284Y-68150722D01*
X167029392Y-68228169D01*
X166902394Y-68332394D01*
X166798169Y-68459392D01*
X166720722Y-68604284D01*
X166673031Y-68761500D01*
X166656928Y-68925000D01*
X164125975Y-68925000D01*
X164088918Y-68835537D01*
X163909987Y-68567748D01*
X163682252Y-68340013D01*
X163414463Y-68161082D01*
X163116912Y-68037832D01*
X162801033Y-67975000D01*
X162478967Y-67975000D01*
X162163088Y-68037832D01*
X161865537Y-68161082D01*
X161597748Y-68340013D01*
X161370013Y-68567748D01*
X161191082Y-68835537D01*
X161067832Y-69133088D01*
X161005000Y-69448967D01*
X157775000Y-69448967D01*
X157712168Y-69133088D01*
X157588918Y-68835537D01*
X157409987Y-68567748D01*
X157182252Y-68340013D01*
X156914463Y-68161082D01*
X156616912Y-68037832D01*
X156301033Y-67975000D01*
X155978967Y-67975000D01*
X155663088Y-68037832D01*
X155365537Y-68161082D01*
X155097748Y-68340013D01*
X154870013Y-68567748D01*
X154691082Y-68835537D01*
X154567832Y-69133088D01*
X154505000Y-69448967D01*
X153928072Y-69448967D01*
X153928072Y-68540000D01*
X153915812Y-68415518D01*
X153879502Y-68295820D01*
X153820537Y-68185506D01*
X153741185Y-68088815D01*
X153644494Y-68009463D01*
X153534180Y-67950498D01*
X153414482Y-67914188D01*
X153290000Y-67901928D01*
X150790000Y-67901928D01*
X150665518Y-67914188D01*
X150545820Y-67950498D01*
X150435506Y-68009463D01*
X150338815Y-68088815D01*
X150259463Y-68185506D01*
X150200498Y-68295820D01*
X150164188Y-68415518D01*
X150151928Y-68540000D01*
X150151928Y-70865000D01*
X150098061Y-70865000D01*
X149898102Y-70904774D01*
X149709744Y-70982795D01*
X149540226Y-71096063D01*
X149396063Y-71240226D01*
X149282795Y-71409744D01*
X149204774Y-71598102D01*
X149165000Y-71798061D01*
X149165000Y-71987913D01*
X149155000Y-71986928D01*
X148855000Y-71986928D01*
X148701255Y-72002071D01*
X148553418Y-72046916D01*
X148495000Y-72078141D01*
X148495000Y-71756374D01*
X148495896Y-71740471D01*
X148495000Y-71719095D01*
X148495000Y-71697667D01*
X148493436Y-71681791D01*
X148488950Y-71574761D01*
X148503937Y-71559774D01*
X148617205Y-71390256D01*
X148695226Y-71201898D01*
X148735000Y-71001939D01*
X148735000Y-70798061D01*
X148695226Y-70598102D01*
X148617205Y-70409744D01*
X148503937Y-70240226D01*
X148359774Y-70096063D01*
X148190256Y-69982795D01*
X148001898Y-69904774D01*
X147801939Y-69865000D01*
X147598061Y-69865000D01*
X147398102Y-69904774D01*
X147209744Y-69982795D01*
X147040226Y-70096063D01*
X146896063Y-70240226D01*
X146782795Y-70409744D01*
X146704774Y-70598102D01*
X146665000Y-70798061D01*
X146665000Y-71001939D01*
X146704774Y-71201898D01*
X146782795Y-71390256D01*
X146896063Y-71559774D01*
X146970092Y-71633803D01*
X146975000Y-71750903D01*
X146975000Y-72078141D01*
X146916582Y-72046916D01*
X146768745Y-72002071D01*
X146615000Y-71986928D01*
X146315000Y-71986928D01*
X146161255Y-72002071D01*
X146013418Y-72046916D01*
X145877171Y-72119742D01*
X145830000Y-72158454D01*
X145782829Y-72119742D01*
X145646582Y-72046916D01*
X145498745Y-72002071D01*
X145345000Y-71986928D01*
X145045000Y-71986928D01*
X144891255Y-72002071D01*
X144743418Y-72046916D01*
X144607171Y-72119742D01*
X144560000Y-72158454D01*
X144512829Y-72119742D01*
X144376582Y-72046916D01*
X144310170Y-72026770D01*
X144335000Y-71901939D01*
X144335000Y-71698061D01*
X144295226Y-71498102D01*
X144217205Y-71309744D01*
X144103937Y-71140226D01*
X143959774Y-70996063D01*
X143790256Y-70882795D01*
X143601898Y-70804774D01*
X143401939Y-70765000D01*
X143228072Y-70765000D01*
X143228072Y-68540000D01*
X143215812Y-68415518D01*
X143179502Y-68295820D01*
X143120537Y-68185506D01*
X143041185Y-68088815D01*
X142944494Y-68009463D01*
X142834180Y-67950498D01*
X142714482Y-67914188D01*
X142590000Y-67901928D01*
X140090000Y-67901928D01*
X139965518Y-67914188D01*
X139845820Y-67950498D01*
X139735506Y-68009463D01*
X139638815Y-68088815D01*
X139559463Y-68185506D01*
X139500498Y-68295820D01*
X139464188Y-68415518D01*
X139451928Y-68540000D01*
X139451928Y-71540000D01*
X139464188Y-71664482D01*
X139500498Y-71784180D01*
X139559463Y-71894494D01*
X139614804Y-71961928D01*
X139362500Y-71961928D01*
X139191684Y-71978752D01*
X139027433Y-72028577D01*
X138876058Y-72109488D01*
X138787915Y-72181825D01*
X138601898Y-72104774D01*
X138401939Y-72065000D01*
X138198061Y-72065000D01*
X137998102Y-72104774D01*
X137809744Y-72182795D01*
X137640226Y-72296063D01*
X137496063Y-72440226D01*
X137382795Y-72609744D01*
X137304774Y-72798102D01*
X137265000Y-72998061D01*
X122660000Y-72998061D01*
X122660000Y-72493191D01*
X122705506Y-72530537D01*
X122815820Y-72589502D01*
X122935518Y-72625812D01*
X123060000Y-72638072D01*
X125560000Y-72638072D01*
X125684482Y-72625812D01*
X125804180Y-72589502D01*
X125914494Y-72530537D01*
X126011185Y-72451185D01*
X126090537Y-72354494D01*
X126149502Y-72244180D01*
X126185812Y-72124482D01*
X126198072Y-72000000D01*
X126198072Y-69000000D01*
X133121928Y-69000000D01*
X133121928Y-72000000D01*
X133134188Y-72124482D01*
X133170498Y-72244180D01*
X133229463Y-72354494D01*
X133308815Y-72451185D01*
X133405506Y-72530537D01*
X133515820Y-72589502D01*
X133635518Y-72625812D01*
X133760000Y-72638072D01*
X136260000Y-72638072D01*
X136384482Y-72625812D01*
X136504180Y-72589502D01*
X136614494Y-72530537D01*
X136711185Y-72451185D01*
X136790537Y-72354494D01*
X136849502Y-72244180D01*
X136885812Y-72124482D01*
X136898072Y-72000000D01*
X136898072Y-69000000D01*
X136885812Y-68875518D01*
X136849502Y-68755820D01*
X136790537Y-68645506D01*
X136711185Y-68548815D01*
X136614494Y-68469463D01*
X136504180Y-68410498D01*
X136384482Y-68374188D01*
X136260000Y-68361928D01*
X133760000Y-68361928D01*
X133635518Y-68374188D01*
X133515820Y-68410498D01*
X133405506Y-68469463D01*
X133308815Y-68548815D01*
X133229463Y-68645506D01*
X133170498Y-68755820D01*
X133134188Y-68875518D01*
X133121928Y-69000000D01*
X126198072Y-69000000D01*
X126185812Y-68875518D01*
X126149502Y-68755820D01*
X126090537Y-68645506D01*
X126011185Y-68548815D01*
X125914494Y-68469463D01*
X125804180Y-68410498D01*
X125684482Y-68374188D01*
X125560000Y-68361928D01*
X123060000Y-68361928D01*
X122935518Y-68374188D01*
X122815820Y-68410498D01*
X122705506Y-68469463D01*
X122660000Y-68506809D01*
X122660000Y-65818967D01*
X154505000Y-65818967D01*
X154505000Y-66141033D01*
X154567832Y-66456912D01*
X154691082Y-66754463D01*
X154870013Y-67022252D01*
X155097748Y-67249987D01*
X155365537Y-67428918D01*
X155663088Y-67552168D01*
X155978967Y-67615000D01*
X156301033Y-67615000D01*
X156616912Y-67552168D01*
X156914463Y-67428918D01*
X157182252Y-67249987D01*
X157409987Y-67022252D01*
X157588918Y-66754463D01*
X157712168Y-66456912D01*
X157775000Y-66141033D01*
X157775000Y-65818967D01*
X157712168Y-65503088D01*
X157588918Y-65205537D01*
X157409987Y-64937748D01*
X157182252Y-64710013D01*
X156914463Y-64531082D01*
X156616912Y-64407832D01*
X156301033Y-64345000D01*
X155978967Y-64345000D01*
X155663088Y-64407832D01*
X155365537Y-64531082D01*
X155097748Y-64710013D01*
X154870013Y-64937748D01*
X154691082Y-65205537D01*
X154567832Y-65503088D01*
X154505000Y-65818967D01*
X122660000Y-65818967D01*
X122660000Y-60265098D01*
X123115000Y-60265098D01*
X123115000Y-60734902D01*
X123206654Y-61195679D01*
X123386440Y-61629721D01*
X123647450Y-62020349D01*
X123979651Y-62352550D01*
X124370279Y-62613560D01*
X124804321Y-62793346D01*
X125265098Y-62885000D01*
X125734902Y-62885000D01*
X126195679Y-62793346D01*
X126629721Y-62613560D01*
X127020349Y-62352550D01*
X127352550Y-62020349D01*
X127613560Y-61629721D01*
X127742278Y-61318967D01*
X154505000Y-61318967D01*
X154505000Y-61641033D01*
X154567832Y-61956912D01*
X154691082Y-62254463D01*
X154870013Y-62522252D01*
X155097748Y-62749987D01*
X155365537Y-62928918D01*
X155663088Y-63052168D01*
X155978967Y-63115000D01*
X156301033Y-63115000D01*
X156616912Y-63052168D01*
X156914463Y-62928918D01*
X157182252Y-62749987D01*
X157409987Y-62522252D01*
X157588918Y-62254463D01*
X157712168Y-61956912D01*
X157775000Y-61641033D01*
X157775000Y-61318967D01*
X161005000Y-61318967D01*
X161005000Y-61641033D01*
X161067832Y-61956912D01*
X161191082Y-62254463D01*
X161370013Y-62522252D01*
X161597748Y-62749987D01*
X161865537Y-62928918D01*
X162163088Y-63052168D01*
X162478967Y-63115000D01*
X162801033Y-63115000D01*
X163116912Y-63052168D01*
X163414463Y-62928918D01*
X163682252Y-62749987D01*
X163909987Y-62522252D01*
X164088918Y-62254463D01*
X164173148Y-62051114D01*
X164028681Y-65115387D01*
X163909987Y-64937748D01*
X163682252Y-64710013D01*
X163414463Y-64531082D01*
X163116912Y-64407832D01*
X162801033Y-64345000D01*
X162478967Y-64345000D01*
X162163088Y-64407832D01*
X161865537Y-64531082D01*
X161597748Y-64710013D01*
X161370013Y-64937748D01*
X161191082Y-65205537D01*
X161067832Y-65503088D01*
X161005000Y-65818967D01*
X161005000Y-66141033D01*
X161067832Y-66456912D01*
X161191082Y-66754463D01*
X161370013Y-67022252D01*
X161597748Y-67249987D01*
X161865537Y-67428918D01*
X162163088Y-67552168D01*
X162478967Y-67615000D01*
X162801033Y-67615000D01*
X163116912Y-67552168D01*
X163414463Y-67428918D01*
X163682252Y-67249987D01*
X163909987Y-67022252D01*
X164088918Y-66754463D01*
X164212168Y-66456912D01*
X164242305Y-66305400D01*
X179430009Y-66260612D01*
X179364774Y-66418102D01*
X179325000Y-66618061D01*
X179325000Y-66821939D01*
X179364774Y-67021898D01*
X179442795Y-67210256D01*
X179556063Y-67379774D01*
X179585301Y-67409012D01*
X179564093Y-68414586D01*
X179542394Y-68432394D01*
X179438169Y-68559392D01*
X179360722Y-68704284D01*
X179313031Y-68861500D01*
X179296928Y-69025000D01*
X179296928Y-70375000D01*
X179313031Y-70538500D01*
X179360722Y-70695716D01*
X179438169Y-70840608D01*
X179542394Y-70967606D01*
X179669392Y-71071831D01*
X179814284Y-71149278D01*
X179971500Y-71196969D01*
X180135000Y-71213072D01*
X180535000Y-71213072D01*
X180698500Y-71196969D01*
X180855716Y-71149278D01*
X181000608Y-71071831D01*
X181127606Y-70967606D01*
X181231831Y-70840608D01*
X181309278Y-70695716D01*
X181356969Y-70538500D01*
X181373072Y-70375000D01*
X181373072Y-69025000D01*
X181356969Y-68861500D01*
X181309278Y-68704284D01*
X181231831Y-68559392D01*
X181127606Y-68432394D01*
X181084796Y-68397260D01*
X181105012Y-67438699D01*
X181163937Y-67379774D01*
X181277205Y-67210256D01*
X181355226Y-67021898D01*
X181395000Y-66821939D01*
X181395000Y-66618061D01*
X181355226Y-66418102D01*
X181287722Y-66255133D01*
X184658375Y-66245193D01*
X184683144Y-66242680D01*
X184706947Y-66235383D01*
X184728869Y-66223582D01*
X184748067Y-66207731D01*
X184763804Y-66188440D01*
X184775476Y-66166449D01*
X184782632Y-66142603D01*
X184785000Y-66118194D01*
X184785000Y-60930000D01*
X185411928Y-60930000D01*
X185411928Y-63030000D01*
X185424188Y-63154482D01*
X185460498Y-63274180D01*
X185519463Y-63384494D01*
X185598815Y-63481185D01*
X185695506Y-63560537D01*
X185805820Y-63619502D01*
X185925518Y-63655812D01*
X186050000Y-63668072D01*
X188150000Y-63668072D01*
X188274482Y-63655812D01*
X188394180Y-63619502D01*
X188504494Y-63560537D01*
X188601185Y-63481185D01*
X188680537Y-63384494D01*
X188739502Y-63274180D01*
X188775812Y-63154482D01*
X188788072Y-63030000D01*
X188788072Y-60930000D01*
X188775812Y-60805518D01*
X188739502Y-60685820D01*
X188680537Y-60575506D01*
X188601185Y-60478815D01*
X188504494Y-60399463D01*
X188394180Y-60340498D01*
X188274482Y-60304188D01*
X188150000Y-60291928D01*
X186050000Y-60291928D01*
X185925518Y-60304188D01*
X185805820Y-60340498D01*
X185695506Y-60399463D01*
X185598815Y-60478815D01*
X185519463Y-60575506D01*
X185460498Y-60685820D01*
X185424188Y-60805518D01*
X185411928Y-60930000D01*
X184785000Y-60930000D01*
X184785000Y-60265098D01*
X190115000Y-60265098D01*
X190115000Y-60734902D01*
X190206654Y-61195679D01*
X190386440Y-61629721D01*
X190647450Y-62020349D01*
X190979651Y-62352550D01*
X191370279Y-62613560D01*
X191804321Y-62793346D01*
X192265098Y-62885000D01*
X192734902Y-62885000D01*
X193195679Y-62793346D01*
X193629721Y-62613560D01*
X194020349Y-62352550D01*
X194352550Y-62020349D01*
X194613560Y-61629721D01*
X194793346Y-61195679D01*
X194885000Y-60734902D01*
X194885000Y-60265098D01*
X194793346Y-59804321D01*
X194613560Y-59370279D01*
X194352550Y-58979651D01*
X194020349Y-58647450D01*
X193629721Y-58386440D01*
X193195679Y-58206654D01*
X192734902Y-58115000D01*
X192265098Y-58115000D01*
X191804321Y-58206654D01*
X191370279Y-58386440D01*
X190979651Y-58647450D01*
X190647450Y-58979651D01*
X190386440Y-59370279D01*
X190206654Y-59804321D01*
X190115000Y-60265098D01*
X184785000Y-60265098D01*
X184785000Y-59944000D01*
X184782560Y-59919224D01*
X184775333Y-59895399D01*
X184763597Y-59873443D01*
X184747803Y-59854197D01*
X184728557Y-59838403D01*
X184706601Y-59826667D01*
X184682776Y-59819440D01*
X184658000Y-59817000D01*
X164399630Y-59817000D01*
X164374854Y-59819440D01*
X164351029Y-59826667D01*
X164329073Y-59838403D01*
X164309827Y-59854197D01*
X164294033Y-59873443D01*
X164282297Y-59895399D01*
X164275070Y-59919224D01*
X164272771Y-59938019D01*
X164220567Y-61045313D01*
X164212168Y-61003088D01*
X164088918Y-60705537D01*
X163909987Y-60437748D01*
X163682252Y-60210013D01*
X163414463Y-60031082D01*
X163116912Y-59907832D01*
X162801033Y-59845000D01*
X162478967Y-59845000D01*
X162163088Y-59907832D01*
X161865537Y-60031082D01*
X161597748Y-60210013D01*
X161370013Y-60437748D01*
X161191082Y-60705537D01*
X161067832Y-61003088D01*
X161005000Y-61318967D01*
X157775000Y-61318967D01*
X157712168Y-61003088D01*
X157588918Y-60705537D01*
X157409987Y-60437748D01*
X157182252Y-60210013D01*
X156914463Y-60031082D01*
X156616912Y-59907832D01*
X156301033Y-59845000D01*
X155978967Y-59845000D01*
X155663088Y-59907832D01*
X155365537Y-60031082D01*
X155097748Y-60210013D01*
X154870013Y-60437748D01*
X154691082Y-60705537D01*
X154567832Y-61003088D01*
X154505000Y-61318967D01*
X127742278Y-61318967D01*
X127793346Y-61195679D01*
X127885000Y-60734902D01*
X127885000Y-60265098D01*
X127793346Y-59804321D01*
X127613560Y-59370279D01*
X127352550Y-58979651D01*
X127020349Y-58647450D01*
X126629721Y-58386440D01*
X126195679Y-58206654D01*
X125734902Y-58115000D01*
X125265098Y-58115000D01*
X124804321Y-58206654D01*
X124370279Y-58386440D01*
X123979651Y-58647450D01*
X123647450Y-58979651D01*
X123386440Y-59370279D01*
X123206654Y-59804321D01*
X123115000Y-60265098D01*
X122660000Y-60265098D01*
X122660000Y-57660000D01*
X195340000Y-57660000D01*
X195340001Y-100340000D01*
G37*
%TD.AperFunction*%
%TD*%
M02*
