%TF.GenerationSoftware,KiCad,Pcbnew,(5.1.9)-1*%
%TF.CreationDate,2021-01-07T15:51:33-05:00*%
%TF.ProjectId,rgb,7267622e-6b69-4636-9164-5f7063625858,rev?*%
%TF.SameCoordinates,Original*%
%TF.FileFunction,Legend,Top*%
%TF.FilePolarity,Positive*%
%FSLAX46Y46*%
G04 Gerber Fmt 4.6, Leading zero omitted, Abs format (unit mm)*
G04 Created by KiCad (PCBNEW (5.1.9)-1) date 2021-01-07 15:51:33*
%MOMM*%
%LPD*%
G01*
G04 APERTURE LIST*
%ADD10C,0.700000*%
%ADD11C,0.300000*%
%ADD12C,0.120000*%
%ADD13C,0.127000*%
%ADD14C,0.100000*%
%ADD15C,0.150000*%
G04 APERTURE END LIST*
D10*
X184742857Y-92814285D02*
X182457142Y-92814285D01*
X183600000Y-93957142D02*
X183600000Y-91671428D01*
X187857142Y-92485714D02*
X190142857Y-92485714D01*
D11*
X182292262Y-66280000D02*
X182168452Y-66218095D01*
X181982738Y-66218095D01*
X181797024Y-66280000D01*
X181673214Y-66403809D01*
X181611309Y-66527619D01*
X181549405Y-66775238D01*
X181549405Y-66960952D01*
X181611309Y-67208571D01*
X181673214Y-67332380D01*
X181797024Y-67456190D01*
X181982738Y-67518095D01*
X182106547Y-67518095D01*
X182292262Y-67456190D01*
X182354166Y-67394285D01*
X182354166Y-66960952D01*
X182106547Y-66960952D01*
X187671428Y-66937142D02*
X186528571Y-66937142D01*
X187100000Y-67508571D02*
X187100000Y-66365714D01*
X166692857Y-66268095D02*
X167002380Y-67568095D01*
X167250000Y-66639523D01*
X167497619Y-67568095D01*
X167807142Y-66268095D01*
X172305357Y-66837142D02*
X172491071Y-66899047D01*
X172552976Y-66960952D01*
X172614880Y-67084761D01*
X172614880Y-67270476D01*
X172552976Y-67394285D01*
X172491071Y-67456190D01*
X172367261Y-67518095D01*
X171872023Y-67518095D01*
X171872023Y-66218095D01*
X172305357Y-66218095D01*
X172429166Y-66280000D01*
X172491071Y-66341904D01*
X172552976Y-66465714D01*
X172552976Y-66589523D01*
X172491071Y-66713333D01*
X172429166Y-66775238D01*
X172305357Y-66837142D01*
X171872023Y-66837142D01*
X177484523Y-67518095D02*
X177051190Y-66899047D01*
X176741666Y-67518095D02*
X176741666Y-66218095D01*
X177236904Y-66218095D01*
X177360714Y-66280000D01*
X177422619Y-66341904D01*
X177484523Y-66465714D01*
X177484523Y-66651428D01*
X177422619Y-66775238D01*
X177360714Y-66837142D01*
X177236904Y-66899047D01*
X176741666Y-66899047D01*
X157692857Y-99488095D02*
X158002380Y-100788095D01*
X158250000Y-99859523D01*
X158497619Y-100788095D01*
X158807142Y-99488095D01*
X163305357Y-100057142D02*
X163491071Y-100119047D01*
X163552976Y-100180952D01*
X163614880Y-100304761D01*
X163614880Y-100490476D01*
X163552976Y-100614285D01*
X163491071Y-100676190D01*
X163367261Y-100738095D01*
X162872023Y-100738095D01*
X162872023Y-99438095D01*
X163305357Y-99438095D01*
X163429166Y-99500000D01*
X163491071Y-99561904D01*
X163552976Y-99685714D01*
X163552976Y-99809523D01*
X163491071Y-99933333D01*
X163429166Y-99995238D01*
X163305357Y-100057142D01*
X162872023Y-100057142D01*
X168484523Y-100738095D02*
X168051190Y-100119047D01*
X167741666Y-100738095D02*
X167741666Y-99438095D01*
X168236904Y-99438095D01*
X168360714Y-99500000D01*
X168422619Y-99561904D01*
X168484523Y-99685714D01*
X168484523Y-99871428D01*
X168422619Y-99995238D01*
X168360714Y-100057142D01*
X168236904Y-100119047D01*
X167741666Y-100119047D01*
X173292262Y-99500000D02*
X173168452Y-99438095D01*
X172982738Y-99438095D01*
X172797024Y-99500000D01*
X172673214Y-99623809D01*
X172611309Y-99747619D01*
X172549405Y-99995238D01*
X172549405Y-100180952D01*
X172611309Y-100428571D01*
X172673214Y-100552380D01*
X172797024Y-100676190D01*
X172982738Y-100738095D01*
X173106547Y-100738095D01*
X173292262Y-100676190D01*
X173354166Y-100614285D01*
X173354166Y-100180952D01*
X173106547Y-100180952D01*
X178671428Y-100157142D02*
X177528571Y-100157142D01*
X178100000Y-100728571D02*
X178100000Y-99585714D01*
D12*
%TO.C,U1*%
X185290000Y-78220000D02*
X185290000Y-79150000D01*
X185290000Y-81380000D02*
X185290000Y-80450000D01*
X185290000Y-81380000D02*
X187450000Y-81380000D01*
X185290000Y-78220000D02*
X186750000Y-78220000D01*
%TO.C,R1*%
X189890000Y-79761252D02*
X189890000Y-79038748D01*
X195110000Y-79761252D02*
X195110000Y-79038748D01*
%TO.C,R2*%
X161055000Y-79932936D02*
X161055000Y-80387064D01*
X162525000Y-79932936D02*
X162525000Y-80387064D01*
%TO.C,SW5*%
X136160000Y-88050000D02*
X136160000Y-92950000D01*
X136160000Y-92950000D02*
X133360000Y-92950000D01*
X123560000Y-79550000D02*
X136160000Y-79550000D01*
X132860000Y-86250000D02*
G75*
G03*
X132860000Y-86250000I-3000000J0D01*
G01*
X123560000Y-84450000D02*
X123560000Y-79550000D01*
X125760000Y-93450000D02*
X126060000Y-93750000D01*
X123560000Y-88150000D02*
X123560000Y-92950000D01*
X126060000Y-93750000D02*
X125760000Y-94050000D01*
X125760000Y-94050000D02*
X125760000Y-93450000D01*
X136160000Y-79550000D02*
X136160000Y-84450000D01*
X123560000Y-92950000D02*
X126060000Y-92950000D01*
X129360000Y-86250000D02*
X130360000Y-86250000D01*
X129860000Y-86750000D02*
X129860000Y-85750000D01*
D13*
%TO.C,J1*%
X191100000Y-90900000D02*
X181100000Y-90900000D01*
X181100000Y-81900000D02*
X191100000Y-81900000D01*
X191100000Y-81900000D02*
X191100000Y-90900000D01*
X181100000Y-90900000D02*
X181100000Y-81900000D01*
%TO.C,J2*%
X180590000Y-91390000D02*
X180590000Y-99190000D01*
X155590000Y-99190000D02*
X155590000Y-91390000D01*
X180590000Y-99190000D02*
X155590000Y-99190000D01*
X155590000Y-91390000D02*
X180590000Y-91390000D01*
%TO.C,J3*%
X189600000Y-57980000D02*
X189600000Y-65780000D01*
X164600000Y-65780000D02*
X164600000Y-57980000D01*
X189600000Y-65780000D02*
X164600000Y-65780000D01*
X164600000Y-57980000D02*
X189600000Y-57980000D01*
D12*
%TO.C,R5*%
X137572936Y-60135000D02*
X138027064Y-60135000D01*
X137572936Y-58665000D02*
X138027064Y-58665000D01*
%TO.C,R4*%
X152867064Y-60995000D02*
X152412936Y-60995000D01*
X152867064Y-62465000D02*
X152412936Y-62465000D01*
%TO.C,R3*%
X152827064Y-58665000D02*
X152372936Y-58665000D01*
X152827064Y-60135000D02*
X152372936Y-60135000D01*
%TO.C,SW3*%
X153400000Y-88550000D02*
X153400000Y-93450000D01*
X153400000Y-93450000D02*
X150600000Y-93450000D01*
X140800000Y-80050000D02*
X153400000Y-80050000D01*
X150100000Y-86750000D02*
G75*
G03*
X150100000Y-86750000I-3000000J0D01*
G01*
X140800000Y-84950000D02*
X140800000Y-80050000D01*
X143000000Y-93950000D02*
X143300000Y-94250000D01*
X140800000Y-88650000D02*
X140800000Y-93450000D01*
X143300000Y-94250000D02*
X143000000Y-94550000D01*
X143000000Y-94550000D02*
X143000000Y-93950000D01*
X153400000Y-80050000D02*
X153400000Y-84950000D01*
X140800000Y-93450000D02*
X143300000Y-93450000D01*
X146600000Y-86750000D02*
X147600000Y-86750000D01*
X147100000Y-87250000D02*
X147100000Y-86250000D01*
%TO.C,C3*%
X143790000Y-60446267D02*
X143790000Y-60153733D01*
X144810000Y-60446267D02*
X144810000Y-60153733D01*
D14*
%TO.C,U2*%
X147900000Y-61700000D02*
X148370000Y-61700000D01*
X146300000Y-62000000D02*
X146900000Y-62000000D01*
X146300000Y-61700000D02*
X146300000Y-62000000D01*
X146300000Y-58800000D02*
X146900000Y-58800000D01*
X146300000Y-59100000D02*
X146300000Y-58800000D01*
X147900000Y-58800000D02*
X147400000Y-58800000D01*
X147900000Y-59100000D02*
X147900000Y-58800000D01*
X147900000Y-62000000D02*
X147500000Y-62000000D01*
X147900000Y-61700000D02*
X147900000Y-62000000D01*
D12*
%TO.C,SW4*%
X153240000Y-71840000D02*
X153240000Y-76740000D01*
X153240000Y-76740000D02*
X150440000Y-76740000D01*
X140640000Y-63340000D02*
X153240000Y-63340000D01*
X149940000Y-70040000D02*
G75*
G03*
X149940000Y-70040000I-3000000J0D01*
G01*
X140640000Y-68240000D02*
X140640000Y-63340000D01*
X142840000Y-77240000D02*
X143140000Y-77540000D01*
X140640000Y-71940000D02*
X140640000Y-76740000D01*
X143140000Y-77540000D02*
X142840000Y-77840000D01*
X142840000Y-77840000D02*
X142840000Y-77240000D01*
X153240000Y-63340000D02*
X153240000Y-68240000D01*
X140640000Y-76740000D02*
X143140000Y-76740000D01*
X146440000Y-70040000D02*
X147440000Y-70040000D01*
X146940000Y-70540000D02*
X146940000Y-69540000D01*
%TO.C,SW2*%
X136210000Y-72300000D02*
X136210000Y-77200000D01*
X136210000Y-77200000D02*
X133410000Y-77200000D01*
X123610000Y-63800000D02*
X136210000Y-63800000D01*
X132910000Y-70500000D02*
G75*
G03*
X132910000Y-70500000I-3000000J0D01*
G01*
X123610000Y-68700000D02*
X123610000Y-63800000D01*
X125810000Y-77700000D02*
X126110000Y-78000000D01*
X123610000Y-72400000D02*
X123610000Y-77200000D01*
X126110000Y-78000000D02*
X125810000Y-78300000D01*
X125810000Y-78300000D02*
X125810000Y-77700000D01*
X136210000Y-63800000D02*
X136210000Y-68700000D01*
X123610000Y-77200000D02*
X126110000Y-77200000D01*
X129410000Y-70500000D02*
X130410000Y-70500000D01*
X129910000Y-71000000D02*
X129910000Y-70000000D01*
%TO.C,D1*%
X135940000Y-62510000D02*
X138800000Y-62510000D01*
X135940000Y-60590000D02*
X135940000Y-62510000D01*
X138800000Y-60590000D02*
X135940000Y-60590000D01*
%TO.C,SW6*%
X157140000Y-75110000D02*
X161640000Y-75110000D01*
X155890000Y-71110000D02*
X155890000Y-72610000D01*
X161640000Y-68610000D02*
X157140000Y-68610000D01*
X162890000Y-72610000D02*
X162890000Y-71110000D01*
%TO.C,SW1*%
X161640000Y-60480000D02*
X157140000Y-60480000D01*
X162890000Y-64480000D02*
X162890000Y-62980000D01*
X157140000Y-66980000D02*
X161640000Y-66980000D01*
X155890000Y-62980000D02*
X155890000Y-64480000D01*
%TO.C,J5*%
X148020000Y-98900000D02*
X148020000Y-96240000D01*
X140340000Y-98900000D02*
X148020000Y-98900000D01*
X140340000Y-96240000D02*
X148020000Y-96240000D01*
X140340000Y-98900000D02*
X140340000Y-96240000D01*
X139070000Y-98900000D02*
X137740000Y-98900000D01*
X137740000Y-98900000D02*
X137740000Y-97570000D01*
%TO.C,J4*%
X136680000Y-98900000D02*
X136680000Y-96240000D01*
X131540000Y-98900000D02*
X136680000Y-98900000D01*
X131540000Y-96240000D02*
X136680000Y-96240000D01*
X131540000Y-98900000D02*
X131540000Y-96240000D01*
X130270000Y-98900000D02*
X128940000Y-98900000D01*
X128940000Y-98900000D02*
X128940000Y-97570000D01*
%TO.C,F1*%
X193550000Y-83687936D02*
X193550000Y-84892064D01*
X191730000Y-83687936D02*
X191730000Y-84892064D01*
%TO.C,U1*%
D15*
X185562380Y-83611904D02*
X186371904Y-83611904D01*
X186467142Y-83564285D01*
X186514761Y-83516666D01*
X186562380Y-83421428D01*
X186562380Y-83230952D01*
X186514761Y-83135714D01*
X186467142Y-83088095D01*
X186371904Y-83040476D01*
X185562380Y-83040476D01*
X186562380Y-82040476D02*
X186562380Y-82611904D01*
X186562380Y-82326190D02*
X185562380Y-82326190D01*
X185705238Y-82421428D01*
X185800476Y-82516666D01*
X185848095Y-82611904D01*
%TO.C,R1*%
X192922380Y-76456666D02*
X192446190Y-76790000D01*
X192922380Y-77028095D02*
X191922380Y-77028095D01*
X191922380Y-76647142D01*
X191970000Y-76551904D01*
X192017619Y-76504285D01*
X192112857Y-76456666D01*
X192255714Y-76456666D01*
X192350952Y-76504285D01*
X192398571Y-76551904D01*
X192446190Y-76647142D01*
X192446190Y-77028095D01*
X192922380Y-75504285D02*
X192922380Y-76075714D01*
X192922380Y-75790000D02*
X191922380Y-75790000D01*
X192065238Y-75885238D01*
X192160476Y-75980476D01*
X192208095Y-76075714D01*
%TO.C,R2*%
X159613333Y-80602380D02*
X159280000Y-80126190D01*
X159041904Y-80602380D02*
X159041904Y-79602380D01*
X159422857Y-79602380D01*
X159518095Y-79650000D01*
X159565714Y-79697619D01*
X159613333Y-79792857D01*
X159613333Y-79935714D01*
X159565714Y-80030952D01*
X159518095Y-80078571D01*
X159422857Y-80126190D01*
X159041904Y-80126190D01*
X159994285Y-79697619D02*
X160041904Y-79650000D01*
X160137142Y-79602380D01*
X160375238Y-79602380D01*
X160470476Y-79650000D01*
X160518095Y-79697619D01*
X160565714Y-79792857D01*
X160565714Y-79888095D01*
X160518095Y-80030952D01*
X159946666Y-80602380D01*
X160565714Y-80602380D01*
%TO.C,SW5*%
X123966666Y-81024761D02*
X124109523Y-81072380D01*
X124347619Y-81072380D01*
X124442857Y-81024761D01*
X124490476Y-80977142D01*
X124538095Y-80881904D01*
X124538095Y-80786666D01*
X124490476Y-80691428D01*
X124442857Y-80643809D01*
X124347619Y-80596190D01*
X124157142Y-80548571D01*
X124061904Y-80500952D01*
X124014285Y-80453333D01*
X123966666Y-80358095D01*
X123966666Y-80262857D01*
X124014285Y-80167619D01*
X124061904Y-80120000D01*
X124157142Y-80072380D01*
X124395238Y-80072380D01*
X124538095Y-80120000D01*
X124871428Y-80072380D02*
X125109523Y-81072380D01*
X125300000Y-80358095D01*
X125490476Y-81072380D01*
X125728571Y-80072380D01*
X126585714Y-80072380D02*
X126109523Y-80072380D01*
X126061904Y-80548571D01*
X126109523Y-80500952D01*
X126204761Y-80453333D01*
X126442857Y-80453333D01*
X126538095Y-80500952D01*
X126585714Y-80548571D01*
X126633333Y-80643809D01*
X126633333Y-80881904D01*
X126585714Y-80977142D01*
X126538095Y-81024761D01*
X126442857Y-81072380D01*
X126204761Y-81072380D01*
X126109523Y-81024761D01*
X126061904Y-80977142D01*
%TO.C,J1*%
X189716666Y-82302380D02*
X189716666Y-83016666D01*
X189669047Y-83159523D01*
X189573809Y-83254761D01*
X189430952Y-83302380D01*
X189335714Y-83302380D01*
X190716666Y-83302380D02*
X190145238Y-83302380D01*
X190430952Y-83302380D02*
X190430952Y-82302380D01*
X190335714Y-82445238D01*
X190240476Y-82540476D01*
X190145238Y-82588095D01*
%TO.C,J2*%
X179166666Y-91902380D02*
X179166666Y-92616666D01*
X179119047Y-92759523D01*
X179023809Y-92854761D01*
X178880952Y-92902380D01*
X178785714Y-92902380D01*
X179595238Y-91997619D02*
X179642857Y-91950000D01*
X179738095Y-91902380D01*
X179976190Y-91902380D01*
X180071428Y-91950000D01*
X180119047Y-91997619D01*
X180166666Y-92092857D01*
X180166666Y-92188095D01*
X180119047Y-92330952D01*
X179547619Y-92902380D01*
X180166666Y-92902380D01*
%TO.C,J3*%
X187966666Y-58652380D02*
X187966666Y-59366666D01*
X187919047Y-59509523D01*
X187823809Y-59604761D01*
X187680952Y-59652380D01*
X187585714Y-59652380D01*
X188347619Y-58652380D02*
X188966666Y-58652380D01*
X188633333Y-59033333D01*
X188776190Y-59033333D01*
X188871428Y-59080952D01*
X188919047Y-59128571D01*
X188966666Y-59223809D01*
X188966666Y-59461904D01*
X188919047Y-59557142D01*
X188871428Y-59604761D01*
X188776190Y-59652380D01*
X188490476Y-59652380D01*
X188395238Y-59604761D01*
X188347619Y-59557142D01*
%TO.C,R5*%
X134683333Y-59852380D02*
X134350000Y-59376190D01*
X134111904Y-59852380D02*
X134111904Y-58852380D01*
X134492857Y-58852380D01*
X134588095Y-58900000D01*
X134635714Y-58947619D01*
X134683333Y-59042857D01*
X134683333Y-59185714D01*
X134635714Y-59280952D01*
X134588095Y-59328571D01*
X134492857Y-59376190D01*
X134111904Y-59376190D01*
X135588095Y-58852380D02*
X135111904Y-58852380D01*
X135064285Y-59328571D01*
X135111904Y-59280952D01*
X135207142Y-59233333D01*
X135445238Y-59233333D01*
X135540476Y-59280952D01*
X135588095Y-59328571D01*
X135635714Y-59423809D01*
X135635714Y-59661904D01*
X135588095Y-59757142D01*
X135540476Y-59804761D01*
X135445238Y-59852380D01*
X135207142Y-59852380D01*
X135111904Y-59804761D01*
X135064285Y-59757142D01*
%TO.C,R4*%
X149933333Y-62152380D02*
X149600000Y-61676190D01*
X149361904Y-62152380D02*
X149361904Y-61152380D01*
X149742857Y-61152380D01*
X149838095Y-61200000D01*
X149885714Y-61247619D01*
X149933333Y-61342857D01*
X149933333Y-61485714D01*
X149885714Y-61580952D01*
X149838095Y-61628571D01*
X149742857Y-61676190D01*
X149361904Y-61676190D01*
X150790476Y-61485714D02*
X150790476Y-62152380D01*
X150552380Y-61104761D02*
X150314285Y-61819047D01*
X150933333Y-61819047D01*
%TO.C,R3*%
X149883333Y-59852380D02*
X149550000Y-59376190D01*
X149311904Y-59852380D02*
X149311904Y-58852380D01*
X149692857Y-58852380D01*
X149788095Y-58900000D01*
X149835714Y-58947619D01*
X149883333Y-59042857D01*
X149883333Y-59185714D01*
X149835714Y-59280952D01*
X149788095Y-59328571D01*
X149692857Y-59376190D01*
X149311904Y-59376190D01*
X150216666Y-58852380D02*
X150835714Y-58852380D01*
X150502380Y-59233333D01*
X150645238Y-59233333D01*
X150740476Y-59280952D01*
X150788095Y-59328571D01*
X150835714Y-59423809D01*
X150835714Y-59661904D01*
X150788095Y-59757142D01*
X150740476Y-59804761D01*
X150645238Y-59852380D01*
X150359523Y-59852380D01*
X150264285Y-59804761D01*
X150216666Y-59757142D01*
%TO.C,SW3*%
X141216666Y-81404761D02*
X141359523Y-81452380D01*
X141597619Y-81452380D01*
X141692857Y-81404761D01*
X141740476Y-81357142D01*
X141788095Y-81261904D01*
X141788095Y-81166666D01*
X141740476Y-81071428D01*
X141692857Y-81023809D01*
X141597619Y-80976190D01*
X141407142Y-80928571D01*
X141311904Y-80880952D01*
X141264285Y-80833333D01*
X141216666Y-80738095D01*
X141216666Y-80642857D01*
X141264285Y-80547619D01*
X141311904Y-80500000D01*
X141407142Y-80452380D01*
X141645238Y-80452380D01*
X141788095Y-80500000D01*
X142121428Y-80452380D02*
X142359523Y-81452380D01*
X142550000Y-80738095D01*
X142740476Y-81452380D01*
X142978571Y-80452380D01*
X143264285Y-80452380D02*
X143883333Y-80452380D01*
X143550000Y-80833333D01*
X143692857Y-80833333D01*
X143788095Y-80880952D01*
X143835714Y-80928571D01*
X143883333Y-81023809D01*
X143883333Y-81261904D01*
X143835714Y-81357142D01*
X143788095Y-81404761D01*
X143692857Y-81452380D01*
X143407142Y-81452380D01*
X143311904Y-81404761D01*
X143264285Y-81357142D01*
%TO.C,C3*%
X142483333Y-60607142D02*
X142435714Y-60654761D01*
X142292857Y-60702380D01*
X142197619Y-60702380D01*
X142054761Y-60654761D01*
X141959523Y-60559523D01*
X141911904Y-60464285D01*
X141864285Y-60273809D01*
X141864285Y-60130952D01*
X141911904Y-59940476D01*
X141959523Y-59845238D01*
X142054761Y-59750000D01*
X142197619Y-59702380D01*
X142292857Y-59702380D01*
X142435714Y-59750000D01*
X142483333Y-59797619D01*
X142816666Y-59702380D02*
X143435714Y-59702380D01*
X143102380Y-60083333D01*
X143245238Y-60083333D01*
X143340476Y-60130952D01*
X143388095Y-60178571D01*
X143435714Y-60273809D01*
X143435714Y-60511904D01*
X143388095Y-60607142D01*
X143340476Y-60654761D01*
X143245238Y-60702380D01*
X142959523Y-60702380D01*
X142864285Y-60654761D01*
X142816666Y-60607142D01*
%TO.C,U2*%
X146338095Y-57452380D02*
X146338095Y-58261904D01*
X146385714Y-58357142D01*
X146433333Y-58404761D01*
X146528571Y-58452380D01*
X146719047Y-58452380D01*
X146814285Y-58404761D01*
X146861904Y-58357142D01*
X146909523Y-58261904D01*
X146909523Y-57452380D01*
X147338095Y-57547619D02*
X147385714Y-57500000D01*
X147480952Y-57452380D01*
X147719047Y-57452380D01*
X147814285Y-57500000D01*
X147861904Y-57547619D01*
X147909523Y-57642857D01*
X147909523Y-57738095D01*
X147861904Y-57880952D01*
X147290476Y-58452380D01*
X147909523Y-58452380D01*
%TO.C,SW4*%
X141016666Y-64654761D02*
X141159523Y-64702380D01*
X141397619Y-64702380D01*
X141492857Y-64654761D01*
X141540476Y-64607142D01*
X141588095Y-64511904D01*
X141588095Y-64416666D01*
X141540476Y-64321428D01*
X141492857Y-64273809D01*
X141397619Y-64226190D01*
X141207142Y-64178571D01*
X141111904Y-64130952D01*
X141064285Y-64083333D01*
X141016666Y-63988095D01*
X141016666Y-63892857D01*
X141064285Y-63797619D01*
X141111904Y-63750000D01*
X141207142Y-63702380D01*
X141445238Y-63702380D01*
X141588095Y-63750000D01*
X141921428Y-63702380D02*
X142159523Y-64702380D01*
X142350000Y-63988095D01*
X142540476Y-64702380D01*
X142778571Y-63702380D01*
X143588095Y-64035714D02*
X143588095Y-64702380D01*
X143350000Y-63654761D02*
X143111904Y-64369047D01*
X143730952Y-64369047D01*
%TO.C,SW2*%
X124016666Y-65114761D02*
X124159523Y-65162380D01*
X124397619Y-65162380D01*
X124492857Y-65114761D01*
X124540476Y-65067142D01*
X124588095Y-64971904D01*
X124588095Y-64876666D01*
X124540476Y-64781428D01*
X124492857Y-64733809D01*
X124397619Y-64686190D01*
X124207142Y-64638571D01*
X124111904Y-64590952D01*
X124064285Y-64543333D01*
X124016666Y-64448095D01*
X124016666Y-64352857D01*
X124064285Y-64257619D01*
X124111904Y-64210000D01*
X124207142Y-64162380D01*
X124445238Y-64162380D01*
X124588095Y-64210000D01*
X124921428Y-64162380D02*
X125159523Y-65162380D01*
X125350000Y-64448095D01*
X125540476Y-65162380D01*
X125778571Y-64162380D01*
X126111904Y-64257619D02*
X126159523Y-64210000D01*
X126254761Y-64162380D01*
X126492857Y-64162380D01*
X126588095Y-64210000D01*
X126635714Y-64257619D01*
X126683333Y-64352857D01*
X126683333Y-64448095D01*
X126635714Y-64590952D01*
X126064285Y-65162380D01*
X126683333Y-65162380D01*
%TO.C,D1*%
X134061904Y-62102380D02*
X134061904Y-61102380D01*
X134300000Y-61102380D01*
X134442857Y-61150000D01*
X134538095Y-61245238D01*
X134585714Y-61340476D01*
X134633333Y-61530952D01*
X134633333Y-61673809D01*
X134585714Y-61864285D01*
X134538095Y-61959523D01*
X134442857Y-62054761D01*
X134300000Y-62102380D01*
X134061904Y-62102380D01*
X135585714Y-62102380D02*
X135014285Y-62102380D01*
X135300000Y-62102380D02*
X135300000Y-61102380D01*
X135204761Y-61245238D01*
X135109523Y-61340476D01*
X135014285Y-61388095D01*
%TO.C,SW6*%
X158256666Y-69864761D02*
X158399523Y-69912380D01*
X158637619Y-69912380D01*
X158732857Y-69864761D01*
X158780476Y-69817142D01*
X158828095Y-69721904D01*
X158828095Y-69626666D01*
X158780476Y-69531428D01*
X158732857Y-69483809D01*
X158637619Y-69436190D01*
X158447142Y-69388571D01*
X158351904Y-69340952D01*
X158304285Y-69293333D01*
X158256666Y-69198095D01*
X158256666Y-69102857D01*
X158304285Y-69007619D01*
X158351904Y-68960000D01*
X158447142Y-68912380D01*
X158685238Y-68912380D01*
X158828095Y-68960000D01*
X159161428Y-68912380D02*
X159399523Y-69912380D01*
X159590000Y-69198095D01*
X159780476Y-69912380D01*
X160018571Y-68912380D01*
X160828095Y-68912380D02*
X160637619Y-68912380D01*
X160542380Y-68960000D01*
X160494761Y-69007619D01*
X160399523Y-69150476D01*
X160351904Y-69340952D01*
X160351904Y-69721904D01*
X160399523Y-69817142D01*
X160447142Y-69864761D01*
X160542380Y-69912380D01*
X160732857Y-69912380D01*
X160828095Y-69864761D01*
X160875714Y-69817142D01*
X160923333Y-69721904D01*
X160923333Y-69483809D01*
X160875714Y-69388571D01*
X160828095Y-69340952D01*
X160732857Y-69293333D01*
X160542380Y-69293333D01*
X160447142Y-69340952D01*
X160399523Y-69388571D01*
X160351904Y-69483809D01*
%TO.C,SW1*%
X158266666Y-61704761D02*
X158409523Y-61752380D01*
X158647619Y-61752380D01*
X158742857Y-61704761D01*
X158790476Y-61657142D01*
X158838095Y-61561904D01*
X158838095Y-61466666D01*
X158790476Y-61371428D01*
X158742857Y-61323809D01*
X158647619Y-61276190D01*
X158457142Y-61228571D01*
X158361904Y-61180952D01*
X158314285Y-61133333D01*
X158266666Y-61038095D01*
X158266666Y-60942857D01*
X158314285Y-60847619D01*
X158361904Y-60800000D01*
X158457142Y-60752380D01*
X158695238Y-60752380D01*
X158838095Y-60800000D01*
X159171428Y-60752380D02*
X159409523Y-61752380D01*
X159600000Y-61038095D01*
X159790476Y-61752380D01*
X160028571Y-60752380D01*
X160933333Y-61752380D02*
X160361904Y-61752380D01*
X160647619Y-61752380D02*
X160647619Y-60752380D01*
X160552380Y-60895238D01*
X160457142Y-60990476D01*
X160361904Y-61038095D01*
%TO.C,J5*%
X149066666Y-97252380D02*
X149066666Y-97966666D01*
X149019047Y-98109523D01*
X148923809Y-98204761D01*
X148780952Y-98252380D01*
X148685714Y-98252380D01*
X150019047Y-97252380D02*
X149542857Y-97252380D01*
X149495238Y-97728571D01*
X149542857Y-97680952D01*
X149638095Y-97633333D01*
X149876190Y-97633333D01*
X149971428Y-97680952D01*
X150019047Y-97728571D01*
X150066666Y-97823809D01*
X150066666Y-98061904D01*
X150019047Y-98157142D01*
X149971428Y-98204761D01*
X149876190Y-98252380D01*
X149638095Y-98252380D01*
X149542857Y-98204761D01*
X149495238Y-98157142D01*
%TO.C,J4*%
X127266666Y-96852380D02*
X127266666Y-97566666D01*
X127219047Y-97709523D01*
X127123809Y-97804761D01*
X126980952Y-97852380D01*
X126885714Y-97852380D01*
X128171428Y-97185714D02*
X128171428Y-97852380D01*
X127933333Y-96804761D02*
X127695238Y-97519047D01*
X128314285Y-97519047D01*
%TO.C,F1*%
X190456666Y-84198571D02*
X190123333Y-84198571D01*
X190123333Y-84722380D02*
X190123333Y-83722380D01*
X190599523Y-83722380D01*
X191504285Y-84722380D02*
X190932857Y-84722380D01*
X191218571Y-84722380D02*
X191218571Y-83722380D01*
X191123333Y-83865238D01*
X191028095Y-83960476D01*
X190932857Y-84008095D01*
%TD*%
M02*
